<svg xmlns="http://www.w3.org/2000/svg" xmlns:xlink="http://www.w3.org/1999/xlink" viewBox="0 0 203 203"><defs><style>.cls-1,.cls-3{fill:none;stroke:#0d529e;stroke-width:3px;}.cls-1{stroke-miterlimit:10;}.cls-2{clip-path:url(#clip-path);}.cls-3{stroke-linejoin:round;}</style><clipPath id="clip-path"><circle class="cls-1" cx="101.5" cy="101.5" r="100"/></clipPath></defs><title>bg_digital</title><g id="Calque_2" data-name="Calque 2"><g id="Pland_de_travail_4" data-name="Pland de travail 4"><g class="cls-2"><path class="cls-1" d="M36.48,142.57V53.86a7.17,7.17,0,0,1,7.18-7.18H159a7.21,7.21,0,0,1,7.22,7.21v88.68H122.94l-4.79,4.93H84.5l-4.79-4.93Z"/><rect class="cls-3" x="46.33" y="56.2" width="110.34" height="76.85"/><path class="cls-1" d="M171.5,142.23v7.23a7.26,7.26,0,0,1-7.25,7.25H38.75a7.26,7.26,0,0,1-7.25-7.25h0v-7.22H79.76l4.84,4.82h33.8l4.84-4.82Z"/></g><circle class="cls-1" cx="101.5" cy="101.5" r="100"/></g></g></svg>