<svg xmlns="http://www.w3.org/2000/svg" xmlns:xlink="http://www.w3.org/1999/xlink" viewBox="0 0 203 203"><defs><style>.cls-1,.cls-3{fill:none;stroke:#0d529e;stroke-miterlimit:10;stroke-width:3px;}.cls-2{clip-path:url(#clip-path);}.cls-3{stroke-linecap:round;}</style><clipPath id="clip-path"><circle class="cls-1" cx="101.5" cy="101.5" r="100"/></clipPath></defs><title>bg_logo</title><g id="Calque_2" data-name="Calque 2"><g id="Pland_de_travail_4" data-name="Pland de travail 4"><g class="cls-2"><polyline class="cls-1" points="132.95 127.86 172.51 127.86 172.51 155.19 125.28 155.19"/><line class="cls-1" x1="77.28" y1="155.19" x2="125.28" y2="155.19"/><polyline class="cls-1" points="70.84 127.86 31.31 127.86 31.31 155.19 77.28 155.19"/><path class="cls-1" d="M133,127.86V113.18c19.17-17.69,20.81-48.09,3.65-67.92a45.49,45.49,0,0,0-65.72-3.77C51.72,59.18,50.07,89.58,67.2,109.42a46.26,46.26,0,0,0,3.64,3.76v14.68"/><polyline class="cls-1" points="77.91 155.19 77.91 169.5 125.91 169.5 125.91 155.19"/><line class="cls-1" x1="132.95" y1="127.86" x2="102.41" y2="127.86"/><line class="cls-1" x1="102.41" y1="127.86" x2="70.84" y2="127.86"/><line class="cls-1" x1="102.41" y1="103" x2="102.41" y2="127.86"/><polyline class="cls-3" points="88.91 89.5 102.41 102.5 114.91 89.5"/></g><circle class="cls-1" cx="101.5" cy="101.5" r="100"/></g></g></svg>