<svg xmlns="http://www.w3.org/2000/svg" xmlns:xlink="http://www.w3.org/1999/xlink" viewBox="0 0 203 203"><defs><style>.cls-1,.cls-3,.cls-4,.cls-5{fill:none;}.cls-1,.cls-3,.cls-4{stroke:#0d529e;}.cls-1,.cls-4{stroke-miterlimit:10;}.cls-1,.cls-3{stroke-width:3px;}.cls-2{clip-path:url(#clip-path);}.cls-3{stroke-linecap:round;stroke-linejoin:round;}.cls-4{stroke-width:2px;}</style><clipPath id="clip-path"><circle class="cls-1" cx="101.5" cy="101.5" r="100"/></clipPath></defs><title>bg_Print</title><g id="Calque_2" data-name="Calque 2"><g id="Pland_de_travail_4" data-name="Pland de travail 4"><g class="cls-2"><polyline class="cls-3" points="84.23 113.68 122.94 113.68 122.94 158.94"/><polyline class="cls-1" points="84.23 113.68 36 113.68 36 166.08 122.94 166.08 122.94 158.94"/><path class="cls-4" d="M146.77,158.93l.12-57.66,4.45-9.15,4.48,9.15s.07,43.52.11,57.66"/><path class="cls-4" d="M146.77,158.93v4.23a4.71,4.71,0,0,0,4,4.73,4.59,4.59,0,0,0,5.14-4.56s0-1.65,0-4.4"/><line class="cls-5" x1="146.77" y1="158.93" x2="155.93" y2="158.93"/><polyline class="cls-1" points="155.93 158.94 167 158.94 167 35.08 84.23 35.08 84.23 76.17"/><line class="cls-1" x1="146.77" y1="158.93" x2="122.94" y2="158.93"/><line class="cls-1" x1="84.23" y1="109.51" x2="84.23" y2="113.68"/><polyline class="cls-1" points="84.23 76.17 104.48 76.17 104.48 109.51 84.23 109.51"/><polyline class="cls-1" points="84.23 76.17 53.27 76.17 53.27 109.51 84.23 109.51"/></g><circle class="cls-1" cx="101.5" cy="101.5" r="100"/></g></g></svg>