<svg xmlns="http://www.w3.org/2000/svg" viewBox="0 0 1920 328"><defs><style>.cls-1,.cls-3,.cls-4,.cls-5,.cls-6,.cls-7{fill:none;}.cls-2{opacity:0.25;}.cls-3,.cls-4,.cls-5,.cls-6,.cls-7{stroke:#fff;stroke-miterlimit:10;}.cls-3{stroke-width:1.71px;}.cls-4{stroke-width:2.57px;}.cls-5{stroke-width:1.24px;}.cls-6{stroke-width:0.83px;}</style></defs><title>contact_header</title><g id="Calque_2" data-name="Calque 2"><g id="Fond"><rect class="cls-1" width="1920" height="328"/></g><g id="Contact"><g class="cls-2"><path class="cls-3" d="M369.84,265.72l2.21,1.58,4.67-5.59-3.35-2.26Zm22,15.11,2.45.92,2.19-5.47a21.74,21.74,0,0,0-2.68-.82C393,277.2,392.43,279,391.82,280.83Z"/><path class="cls-3" d="M359.46,74.37c1.79.78,5,1.4,5.13,2.37.39,3.42-2.91,3.22-5.15,3.51-17.52,2.28-31.74-16-25.06-32.28.58-1.42,2.6-2.25,4-3.35.17,1.7.94,3.61.41,5.06C333.81,63.34,344.68,77.14,359.46,74.37Z"/><path class="cls-3" d="M317.3,74.34c.53-3,.73-6.19,1.72-9.07.44-1.27,2.48-2,3.8-2.94.18,1.48.88,3.13.46,4.41-3.24,10,3.08,19.65,13.32,20,1.26,0,2.56-.56,3.77-.4a13.82,13.82,0,0,1,3.42,1.39c-.84,1.08-1.58,3-2.54,3.1a28.41,28.41,0,0,1-9.25-.08C324.4,89.11,318.84,82.39,317.3,74.34Z"/><path class="cls-3" d="M322,97.06l3,1.79c-1.32,1-2.56,2.71-4,2.91a14.48,14.48,0,0,1-14.27-5.88,14.71,14.71,0,0,1-2.12-15.3c.45-1.09,2.16-1.66,3.29-2.47.32,1.33,1.18,2.81.87,4C306.41,91,311.88,98.2,322,97.06Z"/><path class="cls-4" d="M465,272.91c-.9,10.21-6.74,15.09-16.74,14.07a4.5,4.5,0,0,0-3.21,1.17c-7.07,7-15.33,8-24.46,5.17-1-.31-2.49-.91-3.12-.38a15.72,15.72,0,0,1-11.33,3.19c-4.51-.38-10.81-4-14.23-8.15-.52-.64-2-.61-3.08-.64-9.56-.24-17.06-3.83-21.51-12.74a4.52,4.52,0,0,0-2.66-2.14c-9.81-2.25-13.77-8.73-11.35-18.7,1-3.93,2.7-7.87.46-12.14-18.74,4.69-33.73-2.38-47.66-14.21-25.2-21.41-42.39-47.7-50.52-79.81-.9-3.56-1.41-7.22-2.1-10.84v-13.7a10.35,10.35,0,0,0,.7-2c2.41-16.26,9.29-29.45,25-36.61h4.29c3.25,3.27,7.3,6.07,9.57,9.92,3.5,6,6,12.54,8.5,19,2.15,5.56.51,10.68-3.33,15.05-2.17,2.46-4.53,4.75-6.89,7-6.06,5.86-8.21,12.77-6,21,4.4,16.16,13.75,29.27,25.26,41a11.3,11.3,0,0,0,11.87,2.89,21.78,21.78,0,0,0,3.69-1c11.39-5.78,20.33-1.93,27.9,7.09,3.65,4.36,7.54,8.61,10.56,13.38,4.56,7.2,3.31,12.14-3.44,17.33-1,.77-2,1.5-1.91,2.5-.57,5-.8,10-1.8,14.89-1.61,7.85,1.06,12.65,8.53,13.36.18-2,.28-4.11.57-6.16.5-3.6,2.35-6.1,6.14-6.67a7.92,7.92,0,0,1,8.09,5.08c1.22,3.74-.51,6.41-3.47,8.37a59.87,59.87,0,0,1-6,3.11c1.89,6.68,7.92,10.79,16.7,11.22-.77-5.24-1.21-10.84,5.69-11.85,2-.3,5.18,1.55,6.54,3.37,2.3,3.1.6,6.62-4.15,10.81,2,3.47,7.67,5.83,10,6.19a13.3,13.3,0,0,0,8.23-2.43c-3.17-5.49-3.64-9.37-.47-11.57,1.87-1.29,5.45-2,7.28-1.1,6.21,3.18,4,8.34,1.59,13.05,8.45,2.41,15.48.45,19.41-5.27a60.11,60.11,0,0,1-4.7-4.88c-2.17-2.8-2.95-5.89-.6-9a7.93,7.93,0,0,1,9.3-2.22c3.4,1.75,4.35,4.71,3.67,8.29-.38,2-1,4-1.44,6,7.3,1.72,11.38-2,12.37-9.92"/><path class="cls-3" d="M444.19,271.87l-3.89,1.06c.87,2.27,1.75,4.53,2.63,6.8l2.6-.8C445.08,276.58,444.64,274.22,444.19,271.87Z"/><path class="cls-3" d="M419.73,280.49a20.26,20.26,0,0,0-2.8-.09q.15,2.94.32,5.88l2.62-.08C419.87,284.29,419.91,282.38,419.73,280.49Z"/><path class="cls-5" d="M1598.72,183.88q9.46-40.75,18.91-81.5c2.18-9.39,9.48-14,18.87-11.8q31.9,7.38,63.8,14.8c9.6,2.24,14.16,9.6,11.94,19.19l-38,164c-1.87,8.06-9.77,12.78-18.33,10.87-8.87-2-17.71-4.08-26.57-6.14-12.47-2.89-24.91-6-37.44-8.64-10.55-2.25-14-11.76-12.12-19.52C1586.33,238.12,1592.43,211,1598.72,183.88Zm21.72-74.2-34.93,150.57,86,19.95q17.51-75.45,34.93-150.58Z"/><path class="cls-5" d="M1620.44,109.68l86,19.94Q1689,204.85,1671.48,280.2l-86-19.95Z"/><path class="cls-6" d="M1672.3,110.35c-.17.71-.3,1.27-.46,2l-12.66-2.94c.15-.63.29-1.24.45-2Z"/><path class="cls-6" d="M1630.26,282.22a4.32,4.32,0,0,1-5.39,3.17,4.4,4.4,0,0,1,2.19-8.53A4.31,4.31,0,0,1,1630.26,282.22Z"/><path class="cls-6" d="M1632.38,282.77a6.49,6.49,0,0,1-8.09,4.74,6.6,6.6,0,0,1,3.28-12.79A6.49,6.49,0,0,1,1632.38,282.77Z"/><path class="cls-7" d="M1684.14,41l1.06.37a31.65,31.65,0,0,1,9.34,5,47.31,47.31,0,0,1,9.32,9.74c1,1.31,1.85,2.69,2.77,4a1.06,1.06,0,0,1,.11.19l-5.23,3.31-.22-.34a53.21,53.21,0,0,0-7.24-9.14,30.27,30.27,0,0,0-8-5.79,22.43,22.43,0,0,0-12.43-2.15,32.5,32.5,0,0,0-11,3.36c-1.76.87-3.44,1.89-5.16,2.85-.09.05-.17.12-.28.19-.09-.13-.17-.25-.24-.37l-3-4.64a1.84,1.84,0,0,0-.17-.22v-.06l.25-.11c1.44-.83,2.86-1.71,4.33-2.48a41.56,41.56,0,0,1,12.84-4.47,29.49,29.49,0,0,1,9.56,0l1.15.17Z"/><path class="cls-7" d="M1673.12,78.79a9.74,9.74,0,0,1-1.09-.64,3.4,3.4,0,0,1-1.46-3.18,3.24,3.24,0,0,1,2.12-2.78,4.11,4.11,0,0,1,4.8,1.26,3.27,3.27,0,0,1,.7,2.77,3.52,3.52,0,0,1-3.32,2.77c-.3,0-.62,0-.93,0Z"/><path class="cls-7" d="M1662.46,61.56l-3.35-5.28,1.23-.68a33.11,33.11,0,0,1,10.28-4.17,21.5,21.5,0,0,1,10.24.25,23.12,23.12,0,0,1,8.48,4.49A37.21,37.21,0,0,1,1696.4,64c.37.54.72,1.09,1.1,1.65L1692.25,69l-.17-.26a34.32,34.32,0,0,0-5.79-7,18.9,18.9,0,0,0-5.38-3.48,14.93,14.93,0,0,0-8.23-.89,24.78,24.78,0,0,0-7.93,2.88C1664,60.65,1663.24,61.1,1662.46,61.56Z"/><path class="cls-7" d="M1687.73,70.37l-5.2,3.3c-.49-.67-1-1.33-1.44-2a11.53,11.53,0,0,0-3-2.74,7,7,0,0,0-6-.61,15.09,15.09,0,0,0-3.38,1.58,1.6,1.6,0,0,0-.26.22l-3.35-5.28a22.38,22.38,0,0,1,3.41-1.82,15.1,15.1,0,0,1,6.62-1.3,13.18,13.18,0,0,1,7.79,3,22.05,22.05,0,0,1,4.74,5.45Z"/></g></g></g></svg>