<svg xmlns="http://www.w3.org/2000/svg" viewBox="0 0 1920 471.81"><defs><style>.cls-1,.cls-10,.cls-11,.cls-2,.cls-3,.cls-4,.cls-5,.cls-6,.cls-7,.cls-8,.cls-9{fill:none;}.cls-1{isolation:isolate;}.cls-10,.cls-11,.cls-2,.cls-3,.cls-4,.cls-5,.cls-7,.cls-8,.cls-9{stroke:#f15a24;}.cls-10,.cls-2,.cls-3,.cls-7,.cls-8,.cls-9{stroke-miterlimit:10;}.cls-2{stroke-width:3px;}.cls-3,.cls-4{stroke-width:4.82px;}.cls-11,.cls-4,.cls-5{stroke-linecap:round;}.cls-5{stroke-width:3.61px;}.cls-7{stroke-width:4px;}.cls-8{stroke-width:3.28px;}.cls-9{stroke-width:3.82px;}.cls-10,.cls-11{stroke-width:3.2px;}.cls-11{stroke-linejoin:round;}</style></defs><title>header_methods</title><g id="Calque_2" data-name="Calque 2"><g id="Fond"><rect class="cls-1" width="1920" height="470"/></g><g id="Fond_nos_méthodes" data-name="Fond nos méthodes"><path class="cls-2" d="M279.34,429.39c-6.67,6.48-14.34,6.11-20.56-1-5.67-6.45-5.73-13.49.6-19.82C274,394,306,362.85,306,362.85a96.8,96.8,0,0,0,8.15,7.46c5.49-5.43,12.28-8,5.6-18.07-17.26-26.1-17.71-53.91-1.6-80.71,15.7-26.13,40.09-37.36,70.29-35.76,39.44,2.08,69.74,36.51,68.66,77.64-1,39.56-33,71.16-71.73,72.28-22.37.65-40.88-7.46-57.67-22L317.43,374.4l7.62,9C309.58,399,294.7,414.46,279.34,429.39ZM382.19,239.63c-38.9,0-71,31.91-71.12,70.78-.16,39.6,31.69,71.16,71.7,71.07,39.35-.1,70.18-31.34,70.12-71.07A70.55,70.55,0,0,0,382.19,239.63Zm-87.47,141c-11.14,10.94-22.74,21.7-33.3,33.39-1.72,1.9-.15,10.09,2.24,11.57,3.09,1.89,10,1.66,12.72-.64,11-9.21,21.09-19.57,33.38-31.3Zm2.43-2.57,14.2,13.42,8.48-8.42L305.9,368.58Z"/><path class="cls-2" d="M484.41,254.3,467,250l-4.73,17.37,8.3-6.49c25.34,53.94,14.49,76.06,1.84,102.87,21.18-36.36,21.24-61.34,2.93-105.38C477.5,257.36,479.68,256.4,484.41,254.3Z"/><path class="cls-2" d="M286.25,344.61l-7.08.55-.54,2.22,13.86,6.45c2.41-5.39,4.35-9.76,7.58-17l-9.29,5.24c-11.12-30.3-4.75-58.63,8.37-86.4C279.4,282.71,277.5,312.42,286.25,344.61Z"/><path class="cls-2" d="M386.21,286.8q-6.91,24.4-13.82,48.82l4.11,1.28c6.88-15.56,9.59-32.47,14.8-48.58Z"/><path class="cls-2" d="M368.17,295.88q-4.21,15-8.41,30.07l4.7,1.4,8.59-30.22Z"/><path class="cls-3" d="M209.4,119.11a49.84,49.84,0,0,0-36.77-14c-26.46,1-48,23.43-48.12,49.93a49.94,49.94,0,0,0,11.61,32.19A72.63,72.63,0,0,1,153,233.63s-1.14,7.74,4.37,7.74H192c5.63,0,4.37-7.74,4.37-7.74,0-16.49,6.06-32.81,17.55-47.2a50.1,50.1,0,0,0-4.51-67.32Z"/><path class="cls-3" d="M192.16,249.38h-35a4.38,4.38,0,0,0,0,8.75h35a4.38,4.38,0,0,0,0-8.75Z"/><path class="cls-3" d="M185.55,267.91H163.8a4.38,4.38,0,1,0,0,8.75h21.75a4.38,4.38,0,1,0,0-8.75Z"/><path class="cls-4" d="M170.87,74.08v-4.4A11.08,11.08,0,0,1,172,64.6,19.32,19.32,0,0,1,175,60.39q1.78-2,3.8-3.8t3.8-3.8a19.32,19.32,0,0,0,2.93-4.21,11.09,11.09,0,0,0,1.15-5.09,14.29,14.29,0,0,0-.69-4.48,9.92,9.92,0,0,0-2.11-3.67,10.17,10.17,0,0,0-3.57-2.47,12.91,12.91,0,0,0-5.08-.92A10.78,10.78,0,0,0,166.43,36a18,18,0,0,0-3.71,10.67"/><path class="cls-5" d="M173.23,87.14a3.56,3.56,0,1,1-3.56-3.56A3.56,3.56,0,0,1,173.23,87.14Z"/><path class="cls-4" d="M227.86,94.55l3.1-3.11a11.14,11.14,0,0,1,4.41-2.78,19.37,19.37,0,0,1,5-.91q2.66-.12,5.37,0a53.63,53.63,0,0,0,5.38,0,19.44,19.44,0,0,0,5.05-.9,11.09,11.09,0,0,0,4.4-2.79,14.38,14.38,0,0,0,2.69-3.66,10,10,0,0,0,1.1-4.08,10.2,10.2,0,0,0-.78-4.27,12.81,12.81,0,0,0-2.94-4.24,10.75,10.75,0,0,0-9.07-3.3,17.86,17.86,0,0,0-10.17,4.92"/><circle class="cls-5" cx="217.77" cy="102.93" r="3.56"/><path class="cls-4" d="M116.11,99.9,113,96.79a11.06,11.06,0,0,1-2.79-4.41,19.79,19.79,0,0,1-.9-5,53.43,53.43,0,0,1,0-5.37c.08-1.81.09-3.61,0-5.38a19.44,19.44,0,0,0-.91-5,11.07,11.07,0,0,0-2.78-4.4A14.38,14.38,0,0,0,102,64.44a10,10,0,0,0-4.08-1.1,10.2,10.2,0,0,0-4.27.78,12.84,12.84,0,0,0-4.25,2.95,10.79,10.79,0,0,0-3.3,9.06A18,18,0,0,0,91,86.3"/><circle class="cls-5" cx="124.49" cy="109.98" r="3.56"/><line class="cls-6" x1="876.91" y1="470.5" x2="913.5" y2="470.5"/><path class="cls-2" d="M1208.5,470.5c3.44-1.89-5-30.91-5.6-33.7-.16-.71-.52-1.38-.65-2.09a346.88,346.88,0,0,0-9.91-38.41A71.7,71.7,0,0,0,1170,363c-10.31-8.74-22.3-15.69-34.15-22.38-23.22-13.11-46.85-25.48-70.35-38.18-.76,1.13-1.29,1.9-1.79,2.69a102.13,102.13,0,0,1-33.65,33.37,110.83,110.83,0,0,1-34.88,14.07c-6,1.28-12.35,2.5-18.28,1.73-8.6-1.12-17.11-3.6-25.39-6.32-17.11-5.63-31.51-15.62-43.35-29.14-4.3-4.91-7.93-10.41-12-15.79-5,2.55-10,5-14.95,7.67-19.36,10.46-38.86,20.65-57.94,31.6-13.83,7.93-28.26,15.1-38.53,28.23-5.31,6.79-10.43,13.49-13.5,21.59-6.63,17.54-11.45,60-14.76,78.4"/><line class="cls-6" x1="946.21" y1="470.5" x2="930.45" y2="470.5"/><path class="cls-7" d="M876.91,470.5a7.36,7.36,0,0,1,4.66-6.25,9.35,9.35,0,0,1,2.94-.75q1.57-.15,5-.15h24v7.15"/><path class="cls-7" d="M859.58,470.5a23.8,23.8,0,0,1,3-10.3,18.09,18.09,0,0,1,8.32-7.8q5-2.4,17.25-2.4H913.5a45.65,45.65,0,0,0-.37-6.9,10.26,10.26,0,0,0-1.73-4.05,8.34,8.34,0,0,0-4.57-3.3,34.22,34.22,0,0,0-9.23-.9H863.4V421.5h35.85q5.7,0,9.75.37a39.42,39.42,0,0,1,7,1.2,17.17,17.17,0,0,1,5,2.25,19.79,19.79,0,0,1,3.9,3.53,21.12,21.12,0,0,1,4.35,8.4,56.63,56.63,0,0,1,1.2,13.35v19.9"/><path class="cls-7" d="M998.4,470.5V434.85H983.19q-21.09,0-21.09,22.65a34.36,34.36,0,0,0,2.16,13"/><path class="cls-7" d="M1015.35,470.5v-76h-17v27H980.7q-15,0-23.1,6.3a30.64,30.64,0,0,0-9.45,12.82,46.75,46.75,0,0,0-3.3,17.93,50,50,0,0,0,1.36,11.95"/><path class="cls-7" d="M1084.35,470.5V434.85h-15.21q-21.09,0-21.09,22.65a34.36,34.36,0,0,0,2.16,13"/><path class="cls-7" d="M1101.3,470.5v-76h-17v27h-17.7q-15,0-23.1,6.3a30.64,30.64,0,0,0-9.45,12.82,46.75,46.75,0,0,0-3.3,17.93,50,50,0,0,0,1.36,11.95"/><path class="cls-8" d="M1074.7,209.27c-.56,21.39-7.77,40.39-19.1,58a148.11,148.11,0,0,1-37.31,40c-10.63,7.74-21.95,14.34-35.43,15.35a34,34,0,0,1-13.18-2c-19.08-6.54-34-19.2-47.4-33.73a141.67,141.67,0,0,1-28-43.71,92.15,92.15,0,0,1-6.8-31.46c0-.82-.12-1.64-.21-2.68-1.74.34-3.3.76-4.89.92-6.9.67-11.94-2.78-15.68-8-7.9-11-10.2-23-4.82-35.8,2.43-5.79,6.81-9.56,13.62-9,2.46.19,2.79-.9,2.68-2.93a96.9,96.9,0,0,1,2.75-28.66A103.17,103.17,0,0,1,949.4,51.88a99.73,99.73,0,0,1,42.13-4.26c29.62,3.21,53.41,16.88,71.6,40.17a90,90,0,0,1,18.17,39.81c1.57,8.89,1.64,18,2.53,27.06.08.86,1.14,2.25,1.87,2.33,8.62,1,13.58,4.85,15.51,13.37,2.56,11.37.66,22.06-6.44,31.52C1089.76,208.55,1083.27,211.67,1074.7,209.27Z"/><path class="cls-8" d="M979.37,126.87V96.92a67.32,67.32,0,0,0-8.51.57l-2.19,10.42a59,59,0,0,0-9.5,2.56l-7.15-8a69.88,69.88,0,0,0-14.66,8.57l3.31,10.07a60.37,60.37,0,0,0-7,7l-10.07-3.31a69.45,69.45,0,0,0-8.57,14.66l8,7.15a60.31,60.31,0,0,0-2.56,9.5l-10.42,2.2v17l10.42,2.19A60,60,0,0,0,923,187l-8,7.15a69.45,69.45,0,0,0,8.57,14.66l10.07-3.31a60.37,60.37,0,0,0,7,7l-3.31,10.08A69.41,69.41,0,0,0,952,231.11l7.15-8a60,60,0,0,0,9.5,2.56l2.19,10.42a71.43,71.43,0,0,0,8.52.57v-30a39.93,39.93,0,1,1,0-79.86Z"/><path class="cls-8" d="M1064.23,166.8a15,15,0,0,0-14,10H1024.3v-20h25a5,5,0,0,0,5-5h0V130.94a15,15,0,1,0-10,0v15.89h-20v-10h-10V106a15,15,0,1,0-10,0v30.87h-25v59.9h15v20a5,5,0,0,0,5,5h15v5.91a15,15,0,1,0,10,0v-10.9a5,5,0,0,0-5-5h-15v-15h20v-10h25.88a14.95,14.95,0,1,0,14-20Z"/><path class="cls-9" d="M742.93,269.26a127.2,127.2,0,0,0,30.57-34.47A118.75,118.75,0,0,0,785,209a104.65,104.65,0,0,0,0-63.42,118.75,118.75,0,0,0-11.51-25.75A127.2,127.2,0,0,0,742.93,85.4c-3.85-3.05-4.31-9.38-1.49-12.68,3.22-3.76,8.8-4.13,12.9-.69q3.3,2.76,6.46,5.66c18.05,16.67,31.79,36.17,39.68,59.65a114.13,114.13,0,0,1,6.29,31.07c.13,2.85.22,5.7.24,8.56h0v.72h0c0,2.86-.11,5.71-.24,8.56a114.13,114.13,0,0,1-6.29,31.07c-7.89,23.48-21.63,43-39.68,59.65q-3.15,2.91-6.46,5.66c-4.1,3.44-9.68,3.07-12.9-.69C738.62,278.64,739.08,272.31,742.93,269.26Z"/><path class="cls-9" d="M707,176.94a94.52,94.52,0,0,0-1.3-15.43c-3-18.33-11.2-34.4-23.88-48-3.9-4.2-8.2-8-12.43-11.92-5.26-4.82-13.43-2.54-14.75,5.61-.44,2.74,1.11,5.5,3.52,7.45a88.16,88.16,0,0,1,25.26,32.17,73.46,73.46,0,0,1,0,60.38,88.24,88.24,0,0,1-25.26,32.17c-2.41,1.94-4,4.7-3.52,7.45,1.32,8.14,9.49,10.42,14.75,5.6,4.23-3.88,8.53-7.72,12.43-11.92,12.68-13.64,20.92-29.71,23.88-48A94.64,94.64,0,0,0,707,177"/><path class="cls-9" d="M598.9,130.11c10.21,6.06,19,23,21.25,30.1a56.49,56.49,0,0,1,1.09,29.12c-2.94,13.5-10.6,24.43-21.11,33.32a10.91,10.91,0,0,1-4.61,2.33,8.42,8.42,0,0,1-9.36-4.33c-2.37-4.53-.08-8.3,2.4-10.94,3.9-4.15,8.12-8.17,11.13-12.92,8.84-13.93,7.23-32.8-3.81-45.73a83.9,83.9,0,0,0-6.81-6.92c-3.38-3.13-4.28-8.34-1.87-11.82C589.79,128.58,594.35,127.67,598.9,130.11Z"/><path class="cls-10" d="M1393.58,185.59l2.14-5.2a1.36,1.36,0,0,1,.74-.73,1.34,1.34,0,0,1,1,0l5.66,2.33a1.38,1.38,0,0,1,.74.74,1.41,1.41,0,0,1,0,1l-2.15,5.2a2.29,2.29,0,0,0,.85,2.77,31.25,31.25,0,0,1,8.8,8.8,2.28,2.28,0,0,0,2.77.83l5.19-2.15a1.37,1.37,0,0,1,1.78.74l2.36,5.65a1.38,1.38,0,0,1-.74,1.78l-5.2,2.15a2.31,2.31,0,0,0-1.36,2.56,31.66,31.66,0,0,1,0,12.42,2.27,2.27,0,0,0,1.36,2.56l5.2,2.15a1.41,1.41,0,0,1,.74.74,1.43,1.43,0,0,1,0,1l-2.34,5.66a1.31,1.31,0,0,1-.73.73,1.34,1.34,0,0,1-1,0l-5.2-2.14a2.29,2.29,0,0,0-2.77.85,31.34,31.34,0,0,1-8.79,8.8,2.29,2.29,0,0,0-.84,2.77l2.15,5.19a1.36,1.36,0,0,1-.74,1.78l-5.65,2.35a1.37,1.37,0,0,1-1.78-.73l-2.15-5.2a2.31,2.31,0,0,0-2.56-1.36,31.66,31.66,0,0,1-12.42,0,2.24,2.24,0,0,0-2.56,1.36l-2.15,5.2a1.36,1.36,0,0,1-.74.73,1.34,1.34,0,0,1-1,0l-5.65-2.33a1.37,1.37,0,0,1-.74-1.78l2.14-5.19a2.29,2.29,0,0,0-.85-2.77,31.38,31.38,0,0,1-8.8-8.8,2.28,2.28,0,0,0-2.77-.83l-5.19,2.15a1.34,1.34,0,0,1-1,0,1.38,1.38,0,0,1-.74-.74l-2.35-5.65a1.36,1.36,0,0,1,.74-1.78l5.19-2.15"/><path class="cls-10" d="M1366.22,218.19a18.61,18.61,0,0,0,18.47,18.72h.14a18.59,18.59,0,0,0,.11-37.17h0"/><path class="cls-10" d="M1344.06,160.77a2.27,2.27,0,0,0,1.84-2.24v-4.08a.36.36,0,0,1,.37-.37h4.46a.36.36,0,0,1,.37.37v4.08a2.29,2.29,0,0,0,1.84,2.24,22.36,22.36,0,0,1,8.13,3.37,2.27,2.27,0,0,0,2.89-.28l2.88-2.88a.38.38,0,0,1,.26-.12.36.36,0,0,1,.25.12l3.14,3.14a.36.36,0,0,1,.12.25.4.4,0,0,1-.12.26l-2.89,2.88a2.31,2.31,0,0,0-.27,2.89,22.38,22.38,0,0,1,3.37,8.12,2.27,2.27,0,0,0,2.24,1.85H1377a.36.36,0,0,1,.37.37v4.46a.37.37,0,0,1-.37.37h-4.08a2.29,2.29,0,0,0-2.24,1.84,22.36,22.36,0,0,1-3.37,8.13,2.26,2.26,0,0,0,.27,2.88l2.89,2.89a.36.36,0,0,1,.12.25.38.38,0,0,1-.12.26l-3.14,3.14a.34.34,0,0,1-.25.11.36.36,0,0,1-.26-.11l-2.88-2.89a2.3,2.3,0,0,0-2.89-.27,22.36,22.36,0,0,1-8.13,3.37,2.26,2.26,0,0,0-1.84,2.23v4.09a.36.36,0,0,1-.37.37h-4.46a.36.36,0,0,1-.37-.37V207.4a2.28,2.28,0,0,0-1.84-2.23,22.36,22.36,0,0,1-8.13-3.37,2.27,2.27,0,0,0-2.89.27l-2.88,2.93a.34.34,0,0,1-.26.12.34.34,0,0,1-.25-.12l-3.14-3.14a.35.35,0,0,1,0-.5l2.89-2.89a2.31,2.31,0,0,0,.27-2.89,22.31,22.31,0,0,1-3.37-8.12,2.26,2.26,0,0,0-2.24-1.85H1320a.36.36,0,0,1-.37-.37v-4.45a.36.36,0,0,1,.37-.37h4.08a2.29,2.29,0,0,0,2.24-1.85,22.36,22.36,0,0,1,3.37-8.13,2.26,2.26,0,0,0-.27-2.88l-2.89-2.89a.36.36,0,0,1,0-.51l3.14-3.14a.36.36,0,0,1,.25-.11.36.36,0,0,1,.26.11l2.88,2.89a2.28,2.28,0,0,0,1.62.67,2.37,2.37,0,0,0,1.27-.39A23.17,23.17,0,0,1,1344.06,160.77Z"/><path class="cls-10" d="M1348.49,169.41A13.57,13.57,0,1,0,1362,183,13.6,13.6,0,0,0,1348.49,169.41Z"/><path class="cls-10" d="M1213.45,180c9.09-.46,18.24-2.49,27,2q33,16.85,66,33.64c1.6.82,3.52,2.4,4.86,2,3.31-.89,7.62-1.94,9.11-4.39,1.14-1.87-.54-7.85-2.52-8.81-13-6.35-18.79-18.89-26.82-29.51-3.42-4.53-2.46-8.62,1.12-12.7,10.25-11.71,22.69-19.59,38.38-21.09,3.89-.38,8.25,1.23,12,2.86,8.28,3.62,12.56,3.64,14.9-.85s-.15-7.82-8-12.29c-8.75-5-18.08-6.38-27.86-6.4-3.12,0-6.23-.35-10.74-.62,3.14-3.79,5.56-6.79,8.08-9.7,6.31-7.28,12.63-14.54,19-21.74,3.09-3.49,5.3-7.33,1.32-11.19-4.31-4.17-8.11-1.58-11.53,2q-13.7,14.33-27.53,28.52c-1.55,1.59-3.35,2.94-5,4.4l-1.58-1.53c1.31-1.53,2.55-3.12,3.94-4.57,6.34-6.64,12.72-13.24,19.08-19.87,3.07-3.2,5-6.9,1.3-10.6-3.82-3.86-7.64-2.42-11.06,1.19Q1294.35,94,1281.73,107a14.19,14.19,0,0,1-6.89,4.39,14.26,14.26,0,0,1,1.74-3.39c4.57-4.92,9.16-9.83,13.94-14.55,3.54-3.5,3.93-7.3.46-10.57-3.68-3.46-7.39-1.9-10.51,1.55-7.19,8-14.29,16.07-21.69,23.86-7.09,7.45-14.52,14.58-21.81,21.84-6.85,6.82-15.58,6.22-24,7"/><polyline class="cls-11" points="1503.71 417.97 1496.81 411.08 1496.67 411.08"/><line class="cls-11" x1="1503.71" y1="305.3" x2="1503.71" y2="417.97"/><polyline class="cls-11" points="1503.71 417.97 1503.71 418.13 1496.67 411.08"/><polyline class="cls-10" points="1444.99 302.66 1444.99 411.08 1496.67 411.08"/><polyline class="cls-10" points="1444.99 302.66 1444.99 298.15 1496.55 298.15 1501.07 302.66"/><line class="cls-10" x1="1503.71" y1="305.3" x2="1501.07" y2="302.66"/><rect class="cls-10" x="1453.86" y="309.76" width="18.71" height="18.71"/><line class="cls-10" x1="1474.32" y1="361.12" x2="1495.78" y2="361.12"/><line class="cls-10" x1="1474.32" y1="366.23" x2="1495.78" y2="366.23"/><line class="cls-10" x1="1474.32" y1="371.34" x2="1495.78" y2="371.34"/><rect class="cls-10" x="1453.86" y="359.13" width="14.2" height="14.2"/><line class="cls-10" x1="1475.32" y1="393.82" x2="1453.86" y2="393.82"/><line class="cls-10" x1="1475.32" y1="388.71" x2="1453.86" y2="388.71"/><line class="cls-10" x1="1475.32" y1="383.6" x2="1453.86" y2="383.6"/><rect class="cls-10" x="1481.58" y="381.61" width="14.2" height="14.2"/><line class="cls-10" x1="1532.57" y1="361.12" x2="1554.03" y2="361.12"/><line class="cls-10" x1="1532.57" y1="366.23" x2="1554.03" y2="366.23"/><line class="cls-10" x1="1532.57" y1="371.34" x2="1554.03" y2="371.34"/><rect class="cls-10" x="1513.13" y="359.13" width="14.2" height="14.2"/><line class="cls-10" x1="1534.59" y1="393.82" x2="1513.13" y2="393.82"/><line class="cls-10" x1="1534.59" y1="388.71" x2="1513.13" y2="388.71"/><line class="cls-10" x1="1534.59" y1="383.6" x2="1513.13" y2="383.6"/><rect class="cls-10" x="1539.83" y="381.61" width="14.2" height="14.2"/><rect class="cls-10" x="1535.31" y="309.76" width="18.71" height="18.71"/><line class="cls-10" x1="1513.13" y1="344.13" x2="1533.57" y2="344.13"/><line class="cls-10" x1="1513.13" y1="336.98" x2="1555.03" y2="336.98"/><line class="cls-10" x1="1453.88" y1="344.13" x2="1487.61" y2="344.13"/><line class="cls-10" x1="1453.86" y1="336.98" x2="1494.76" y2="336.98"/><line class="cls-10" x1="1562.76" y1="401.59" x2="1562.76" y2="388.35"/><line class="cls-10" x1="1540.25" y1="298.15" x2="1552.24" y2="298.15"/><line class="cls-10" x1="1562.76" y1="302.66" x2="1562.76" y2="388.35"/><polyline class="cls-10" points="1562.76 302.66 1562.76 298.15 1552.24 298.15"/><polyline class="cls-10" points="1503.71 417.97 1503.88 418.13 1510.94 411.08 1562.76 411.08 1562.76 401.59"/><polyline class="cls-10" points="1503.71 305.3 1510.98 298.15 1540.25 298.15"/><line class="cls-10" x1="1572.12" y1="401.59" x2="1572.12" y2="388.35"/><polyline class="cls-10" points="1572.12 388.35 1572.12 302.66 1562.76 302.66"/><polyline class="cls-10" points="1444.99 302.66 1435.63 302.66 1435.63 420.43 1572.12 420.43 1572.12 401.59"/><rect class="cls-10" x="1652.93" y="402.24" width="31.97" height="27.66"/><line class="cls-10" x1="1624.76" y1="429.9" x2="1713.06" y2="429.9"/><polyline class="cls-10" points="1572.12 401.59 1797.58 401.59 1797.58 227.56 1540.25 227.56 1540.25 298.15"/><polyline class="cls-10" points="1572.12 388.35 1785.59 388.35 1785.59 240.8 1552.24 240.8 1552.24 298.15"/><line class="cls-10" x1="1654.51" y1="172.84" x2="1680.72" y2="172.84"/><line class="cls-10" x1="1654.51" y1="182.79" x2="1671.64" y2="182.79"/><line class="cls-10" x1="1654.51" y1="192.74" x2="1663.07" y2="192.74"/><path class="cls-10" d="M1676.08,207.24a9.13,9.13,0,0,0-.76-3.36l18.84-23.06-23.58,18.32a9.12,9.12,0,0,0-12.77,8.1"/><path class="cls-10" d="M1730.05,207.24h0a62.68,62.68,0,0,0-14.67-40.35l2.11-2.11,3.72,3.72L1731.72,158l-15.47-15.48L1705.73,153l3.71,3.72-2.1,2.11a62.75,62.75,0,0,0-34.59-14.34v-2.63H1678V127h-21.89v14.88h5.25v2.63a63.07,63.07,0,0,0-57.29,62.73h0"/><path class="cls-10" d="M1712.54,207.24h0a45.48,45.48,0,1,0-91,0h0"/></g></g></svg>