<svg xmlns="http://www.w3.org/2000/svg" xmlns:xlink="http://www.w3.org/1999/xlink" viewBox="0 0 1346.57 190.49"><defs><style>.cls-1,.cls-15,.cls-3{fill:#90d1f3;}.cls-1,.cls-2{stroke:#0d529e;stroke-width:2.66px;}.cls-1,.cls-13,.cls-15,.cls-2{stroke-miterlimit:10;}.cls-13,.cls-2{fill:none;}.cls-4{clip-path:url(#clip-path);}.cls-11,.cls-5{fill:#269bd8;}.cls-5,.cls-9{opacity:0.5;isolation:isolate;}.cls-6{fill:#fff;}.cls-7{fill:#591e00;}.cls-8{fill:#fcbf29;}.cls-9{fill:#f28d01;}.cls-10{clip-path:url(#clip-path-2);}.cls-12{fill:#0d529e;}.cls-13{stroke:#591e00;}.cls-13,.cls-15{stroke-width:0.89px;}.cls-14{clip-path:url(#clip-path-3);}.cls-15{stroke:#269bd8;}.cls-16{clip-path:url(#clip-path-4);}.cls-17{clip-path:url(#clip-path-5);}</style><clipPath id="clip-path"><circle class="cls-1" cx="89.86" cy="100.63" r="88.53"/></clipPath><clipPath id="clip-path-2"><circle class="cls-1" cx="381.57" cy="97.31" r="88.53" transform="translate(42.95 298.31) rotate(-45)"/></clipPath><clipPath id="clip-path-3"><circle class="cls-1" cx="673.28" cy="98.86" r="88.53" transform="translate(127.3 505.04) rotate(-45)"/></clipPath><clipPath id="clip-path-4"><circle class="cls-1" cx="964.99" cy="89.86" r="88.53"/></clipPath><clipPath id="clip-path-5"><circle class="cls-1" cx="1256.71" cy="92.34" r="88.53"/></clipPath></defs><title>header_services</title><g id="Calque_2" data-name="Calque 2"><g id="Pland_de_travail_4" data-name="Pland de travail 4"><circle class="cls-2" cx="89.86" cy="100.63" r="8.41"/><circle class="cls-2" cx="126.32" cy="100.38" r="8.15" transform="translate(-21.44 35.58) rotate(-14.79)"/><path class="cls-2" d="M154.9,100.66a7.9,7.9,0,1,1,8.41,7.36A7.9,7.9,0,0,1,154.9,100.66Z"/><path class="cls-2" d="M191.63,100.67a7.66,7.66,0,1,1,8.41,6.84A7.66,7.66,0,0,1,191.63,100.67Z"/><path class="cls-2" d="M228.36,100.69a7.43,7.43,0,1,1,8.41,6.3A7.43,7.43,0,0,1,228.36,100.69Z"/><path class="cls-2" d="M265.08,100.7a7.22,7.22,0,1,1,8.41,5.78A7.22,7.22,0,0,1,265.08,100.7Z"/><path class="cls-2" d="M301.81,100.71a7,7,0,1,1,8.41,5.26A7,7,0,0,1,301.81,100.71Z"/><path class="cls-2" d="M338.54,100.73a6.82,6.82,0,1,1,8.41,4.73A6.82,6.82,0,0,1,338.54,100.73Z"/><path class="cls-2" d="M375.26,100.74a6.65,6.65,0,1,1,8.41,4.21A6.65,6.65,0,0,1,375.26,100.74Z"/><path class="cls-2" d="M412,100.75a6.49,6.49,0,1,1,8.41,3.68A6.49,6.49,0,0,1,412,100.75Z"/><path class="cls-2" d="M448.72,100.77a6.35,6.35,0,1,1,8.41,3.15A6.35,6.35,0,0,1,448.72,100.77Z"/><path class="cls-2" d="M485.44,100.78a6.23,6.23,0,1,1,8.41,2.63A6.24,6.24,0,0,1,485.44,100.78Z"/><path class="cls-2" d="M522.17,100.8a6.13,6.13,0,1,1,8.41,2.1A6.13,6.13,0,0,1,522.17,100.8Z"/><path class="cls-2" d="M558.9,100.81a6,6,0,1,1,8.41,1.58A6.05,6.05,0,0,1,558.9,100.81Z"/><path class="cls-2" d="M595.62,100.82a6,6,0,1,1,8.41,1.06A6,6,0,0,1,595.62,100.82Z"/><path class="cls-2" d="M632.35,100.84a6,6,0,1,1,8.41.52A6,6,0,0,1,632.35,100.84Z"/><path class="cls-2" d="M669.08,100.85a5.95,5.95,0,1,1,8.41,0A6,6,0,0,1,669.08,100.85Z"/><circle class="cls-2" cx="709.75" cy="96.4" r="5.96" transform="matrix(0.51, -0.86, 0.86, 0.51, 264.8, 657.7)"/><path class="cls-2" d="M742.53,100.88a6,6,0,1,1,8.41-1A6,6,0,0,1,742.53,100.88Z"/><path class="cls-2" d="M779.26,100.89a6,6,0,1,1,8.41-1.57A6,6,0,0,1,779.26,100.89Z"/><path class="cls-2" d="M816,100.91a6.13,6.13,0,1,1,8.42-2.11A6.13,6.13,0,0,1,816,100.91Z"/><path class="cls-2" d="M852.71,100.92a6.23,6.23,0,1,1,8.41-2.63A6.24,6.24,0,0,1,852.71,100.92Z"/><path class="cls-2" d="M889.44,100.93a6.35,6.35,0,1,1,8.41-3.15A6.35,6.35,0,0,1,889.44,100.93Z"/><path class="cls-2" d="M926.17,101a6.49,6.49,0,1,1,8.41-3.68A6.49,6.49,0,0,1,926.17,101Z"/><path class="cls-2" d="M962.89,101a6.65,6.65,0,1,1,8.41-4.2A6.65,6.65,0,0,1,962.89,101Z"/><path class="cls-2" d="M999.62,101a6.83,6.83,0,1,1,8.41-4.73A6.82,6.82,0,0,1,999.62,101Z"/><path class="cls-2" d="M1036.35,101a7,7,0,1,1,8.41-5.26A7,7,0,0,1,1036.35,101Z"/><path class="cls-2" d="M1073.07,101a7.22,7.22,0,1,1,8.41-5.78A7.21,7.21,0,0,1,1073.07,101Z"/><path class="cls-2" d="M1109.8,101a7.43,7.43,0,1,1,8.41-6.31A7.43,7.43,0,0,1,1109.8,101Z"/><circle class="cls-2" cx="1147.31" cy="93.41" r="7.66" transform="translate(237.85 799.05) rotate(-42.46)"/><path class="cls-2" d="M1183.25,101.05a7.9,7.9,0,1,1,8.41-7.36A7.92,7.92,0,0,1,1183.25,101.05Z"/><circle class="cls-2" cx="1220.24" cy="92.91" r="8.15" transform="translate(808.2 1245.23) rotate(-74.68)"/><circle class="cls-2" cx="1256.71" cy="92.66" r="8.41"/><circle class="cls-3" cx="89.86" cy="100.63" r="88.53"/><g class="cls-4"><g id="Calque_2-2" data-name="Calque 2"><path class="cls-5" d="M134.64,171.94c-52-.07-94.06-48.07-94-107.21,0-17.39,3.91-37.28,11-52.63H1.33V189.16H178.39v-29.5A84.42,84.42,0,0,1,134.64,171.94Z"/><path class="cls-5" d="M121.3,164.23c-46.8-.07-84.66-45.76-84.63-102.06,0-16.53,3.53-35.44,10-50.07H1.33V189.16H178.39V153.85C166.25,161.53,135,164.23,121.3,164.23Z"/><rect class="cls-6" x="56.68" y="147.74" width="67.09" height="16.5"/><rect class="cls-7" x="27.72" y="125.74" width="125.01" height="24.19"/><path class="cls-8" d="M117.9,125.74V108.38a41.14,41.14,0,1,0-58.21-3.22,37.74,37.74,0,0,0,3.23,3.22v17.36Z"/><path class="cls-9" d="M107.3,101.77A41.11,41.11,0,0,1,71.09,41.52,41,41,0,0,0,54,96.93a40.61,40.61,0,0,0,8.94,11.45v17.36h54.62V108.38a40.78,40.78,0,0,0,8.79-11.31A40,40,0,0,1,107.3,101.77Z"/><rect class="cls-6" x="83.44" y="98.25" width="13.56" height="27.49"/><path class="cls-6" d="M90.32,105.29a6.89,6.89,0,0,1-4.84-2L64.93,82.74l9.69-9.68,15.7,15.7L106,73.06l9.69,9.68L95.16,103.28A6.67,6.67,0,0,1,90.32,105.29Z"/></g></g><circle class="cls-2" cx="89.86" cy="100.63" r="88.53"/><circle class="cls-3" cx="381.57" cy="97.31" r="88.53" transform="translate(42.95 298.31) rotate(-45)"/><g class="cls-10"><g id="Calque_2-3" data-name="Calque 2"><polygon class="cls-11" points="436.95 126.91 392.95 139.43 336.48 139.43 380.49 126.91 436.95 126.91"/><path class="cls-12" d="M367.91,130.28s-14,4.07-5,6.37,30.05,2.49,30.05,2.49H336.48Z"/><path class="cls-3" d="M361.74,132s-8.67,2.55-.09,4.77,31.3,2.35,31.3,2.35H336.48Z"/><polygon class="cls-7" points="363.04 133.17 371.43 133.17 369.74 133.74 361.35 133.74 363.04 133.17"/><polygon class="cls-7" points="369.77 131.17 380.96 131.17 379.27 131.74 368.08 131.74 369.77 131.17"/><polygon class="cls-7" points="378.27 128.9 402.78 128.9 399.32 129.75 374.81 129.75 378.27 128.9"/><polygon class="cls-7" points="366.42 132.31 380.38 132.31 378.69 132.88 364.73 132.88 366.42 132.31"/><polygon class="cls-7" points="350.3 138.57 364.26 138.57 362.98 138.86 349.03 138.86 350.3 138.57"/><path class="cls-8" d="M408.54,132.88l3.07-.86c5.15-.75,9.92-2.05,10.69-2.88s-2.77-.91-7.92-.16-9.91,2.05-10.69,2.88c0,0-.08.11-.08.16l-3.08.86Z"/><path class="cls-9" d="M411.25,131.69c-3.32,0-2.74-.91,1.22-2.05,1.19-.33,2.58-.66,4.07-.94-4.79.53-10.3,1.77-12.27,2.74-.41.22-.66.42-.69.58l-3.07.86h8l3.07-.86c1.08-.16,2.19-.36,3.3-.55C413.44,131.61,412.22,131.69,411.25,131.69Z"/><polygon class="cls-6" points="408.41 131.46 410.53 131.46 405.48 132.88 403.36 132.88 408.41 131.46"/><path class="cls-6" d="M408.15,131.87c-.28,0-.39,0-.36-.11l.61-1,3.1-.47L411,131l5.07-.77-.28.47-6.59,1A10.26,10.26,0,0,1,408.15,131.87Z"/><polygon class="cls-7" points="398.71 132.6 412.72 132.6 410.31 133.17 396.27 133.17 398.71 132.6"/><rect class="cls-3" x="335.35" y="139.43" width="57.48" height="15.65"/><line class="cls-13" x1="335.64" y1="140.14" x2="392.84" y2="140.25"/><line class="cls-13" x1="335.64" y1="140.99" x2="392.84" y2="141.1"/><line class="cls-13" x1="335.64" y1="141.84" x2="392.84" y2="141.96"/><line class="cls-13" x1="335.64" y1="142.7" x2="392.84" y2="142.81"/><line class="cls-13" x1="335.64" y1="143.84" x2="392.84" y2="143.95"/><line class="cls-13" x1="335.64" y1="144.69" x2="392.84" y2="144.8"/><line class="cls-13" x1="335.64" y1="145.54" x2="392.84" y2="145.65"/><line class="cls-13" x1="335.64" y1="146.4" x2="392.84" y2="146.51"/><line class="cls-13" x1="335.64" y1="147.25" x2="392.84" y2="147.36"/><line class="cls-13" x1="335.64" y1="148.11" x2="392.84" y2="148.22"/><line class="cls-13" x1="335.64" y1="148.96" x2="392.84" y2="149.07"/><line class="cls-13" x1="335.64" y1="149.81" x2="392.84" y2="149.92"/><line class="cls-13" x1="335.64" y1="150.95" x2="392.84" y2="151.06"/><line class="cls-13" x1="335.64" y1="151.8" x2="392.84" y2="151.92"/><line class="cls-13" x1="335.64" y1="152.66" x2="392.84" y2="152.77"/><line class="cls-13" x1="335.64" y1="153.51" x2="392.84" y2="153.62"/><line class="cls-13" x1="335.64" y1="154.37" x2="392.84" y2="154.48"/><polygon class="cls-11" points="392.81 155 436.94 142.54 436.94 126.83 392.84 139.26 392.81 155"/><line class="cls-13" x1="392.92" y1="140.29" x2="436.81" y2="127.64"/><line class="cls-13" x1="392.92" y1="141.18" x2="436.81" y2="128.52"/><line class="cls-13" x1="392.92" y1="142.06" x2="436.81" y2="129.41"/><line class="cls-13" x1="392.92" y1="142.95" x2="436.81" y2="130.29"/><line class="cls-13" x1="392.92" y1="143.84" x2="436.81" y2="131.18"/><line class="cls-13" x1="392.92" y1="144.72" x2="436.81" y2="132.07"/><line class="cls-13" x1="392.92" y1="145.61" x2="436.81" y2="132.95"/><line class="cls-13" x1="392.92" y1="146.49" x2="436.81" y2="133.84"/><line class="cls-13" x1="392.92" y1="147.38" x2="436.81" y2="134.72"/><line class="cls-13" x1="392.92" y1="148.27" x2="436.81" y2="135.61"/><line class="cls-13" x1="392.92" y1="149.15" x2="436.81" y2="136.5"/><line class="cls-13" x1="392.92" y1="150.04" x2="436.81" y2="137.38"/><line class="cls-13" x1="392.92" y1="150.92" x2="436.81" y2="138.27"/><line class="cls-13" x1="392.92" y1="151.81" x2="436.81" y2="139.16"/><line class="cls-13" x1="392.92" y1="152.7" x2="436.81" y2="140.04"/><line class="cls-13" x1="392.95" y1="153.58" x2="436.81" y2="140.93"/><line class="cls-13" x1="392.95" y1="154.47" x2="436.81" y2="141.81"/></g><g id="Calque_1-2" data-name="Calque 1"><g id="Capa_1" data-name="Capa 1"><polygon class="cls-11" points="441.78 39.54 441.78 103.86 342.47 103.86 342.47 39.54 441.78 39.54"/><path class="cls-12" d="M342.47,57.91s.72,21.08,31,33.07,68.37,12.88,68.37,12.88H342.47Z"/><path class="cls-3" d="M342.47,67s.66,13.21,29.55,24.67,69.81,12.22,69.81,12.22H342.47Z"/><rect class="cls-7" x="351.57" y="72.55" width="14.8" height="2.56"/><rect class="cls-7" x="351.57" y="62.88" width="19.64" height="2.56"/><rect class="cls-7" x="351.57" y="50.36" width="43.25" height="5.12"/><rect class="cls-7" x="351.57" y="67.72" width="24.47" height="2.56"/><rect class="cls-7" x="362.1" y="99.87" width="24.47" height="1.99"/><path class="cls-8" d="M429.55,70.85V66.36a10.54,10.54,0,0,0,.83-15,10.72,10.72,0,0,0-15.06-.83,10.53,10.53,0,0,0-.84,15c.28.28.56.58.84.83v4.49Z"/><path class="cls-9" d="M426.84,64.62A10.62,10.62,0,0,1,416.18,54a10.74,10.74,0,0,1,1.23-4.93A10.53,10.53,0,0,0,413,63.4a10.67,10.67,0,0,0,2.35,3v4.49h14.23V66.36a10.43,10.43,0,0,0,2.28-2.91A11.12,11.12,0,0,1,426.84,64.62Z"/><rect class="cls-6" x="420.72" y="63.73" width="3.41" height="7.11"/><path class="cls-6" d="M422.38,65.66a1.82,1.82,0,0,1-1.24-.5l-5.26-5.26,2.46-2.46,4,4,4.05-4,2.46,2.46-5.26,5.26A1.88,1.88,0,0,1,422.38,65.66Z"/><rect class="cls-7" x="409.91" y="69.14" width="24.76" height="3.41"/><path class="cls-8" d="M356.14,126.28a5.94,5.94,0,0,0-5.91-5.92h5.49a5.84,5.84,0,0,0,0-11.67h5.8a6,6,0,1,0,0-12h4.64a5.84,5.84,0,0,0,0-11.67H352.74l-2.63-5.22a12.89,12.89,0,0,0-10.45-6.44H320.58a11.59,11.59,0,0,0-9.34,4.67l-1.77,2.35c-2.21,3-14.55,6.44-18.26,6.44l3.55,38.41c4.32,0,13.29,1.89,17.17,3.82A27.84,27.84,0,0,0,324.41,132h25.84A5.66,5.66,0,0,0,356.14,126.28Z"/></g></g></g><circle class="cls-2" cx="381.57" cy="97.31" r="88.53" transform="translate(42.95 298.31) rotate(-45)"/><circle class="cls-3" cx="673.28" cy="98.86" r="88.53" transform="translate(127.3 505.04) rotate(-45)"/><g class="cls-14"><rect class="cls-15" x="627.34" y="60.87" width="71.76" height="97.76"/><rect class="cls-7" x="642.84" y="65.87" width="34.5" height="2.5"/><rect class="cls-7" x="646.09" y="154.13" width="34.5" height="2.5"/><rect class="cls-7" x="642.59" y="71.12" width="26.5" height="2.5"/><path class="cls-8" d="M637.09,73.37V71.73a3.87,3.87,0,0,0,.29-5.4,3.68,3.68,0,0,0-5.29-.3,3.86,3.86,0,0,0-.29,5.4l.29.3v1.64Z"/><path class="cls-9" d="M636.12,71.09a3.79,3.79,0,0,1-3.74-3.82,4,4,0,0,1,.43-1.77,3.85,3.85,0,0,0-1.55,5.18,3.64,3.64,0,0,0,.83,1v1.64h5V71.73a3.83,3.83,0,0,0,.81-1A4.21,4.21,0,0,1,636.12,71.09Z"/><rect class="cls-6" x="634.09" y="70.87" width="1.25" height="2.5"/><path class="cls-6" d="M634.59,71.44a.76.76,0,0,1-.46-.18l-1.91-1.91.9-.9,1.47,1.47,1.48-1.47.89.9-1.91,1.91A.76.76,0,0,1,634.59,71.44Z"/><rect class="cls-7" x="630.09" y="72.87" width="9" height="1.25"/><polygon class="cls-11" points="619.34 148.63 619.34 40.86 691.1 40.86 691.1 60.87 627.34 60.87 627.34 148.63 619.34 148.63"/><path class="cls-12" d="M691.26,40.86h0a12,12,0,0,1-12,12h-48a12,12,0,0,1-12-12Z"/><rect class="cls-11" x="679.84" y="77.12" width="56.26" height="42"/><rect class="cls-7" x="721.1" y="106.12" width="15" height="2"/><rect class="cls-7" x="718.35" y="102.12" width="17.75" height="2"/><rect class="cls-7" x="718.35" y="109.87" width="17.75" height="2"/><rect class="cls-7" x="685.1" y="81.37" width="5.75" height="7.75"/><polygon class="cls-11" points="735.1 140.63 735.1 148.63 667.08 148.63 659.08 144.64 667.08 140.63 735.1 140.63"/><rect class="cls-8" x="727.1" y="140.62" width="8" height="8"/><polygon class="cls-6" points="667.34 140.63 659.34 144.64 667.34 148.63 669.34 148.63 669.34 140.63 667.34 140.63"/><polygon class="cls-6" points="667.34 124.62 659.34 128.63 667.34 132.62 669.34 132.62 669.34 124.62 667.34 124.62"/><rect class="cls-11" x="669.34" y="124.62" width="46.01" height="8"/><rect class="cls-12" x="715.1" y="124.62" width="8" height="8"/><path class="cls-8" d="M731.33,132.87a4.14,4.14,0,0,0,3.92-5.44,4.08,4.08,0,0,0-3.91-2.81H723.1v8l8,.25Z"/><path class="cls-8" d="M723.6,68.37V63.81a10.61,10.61,0,1,0-14.25,0v4.56Z"/><path class="cls-9" d="M720.88,62.29a10.75,10.75,0,0,1-9.43-15.74A10.76,10.76,0,0,0,707,61.07a10.21,10.21,0,0,0,2.35,3v4.56H723.6V64.06a11.08,11.08,0,0,0,2.31-3A11.5,11.5,0,0,1,720.88,62.29Z"/><rect class="cls-6" x="714.6" y="61.12" width="3.5" height="7.25"/><path class="cls-6" d="M716.38,63.09a2,2,0,0,1-1.29-.53l-5.36-5.36,2.51-2.51,4.12,4.12,4.14-4.12L723,57.2l-5.36,5.36A2,2,0,0,1,716.38,63.09Z"/><rect class="cls-7" x="703.85" y="66.62" width="25" height="3.5"/></g><circle class="cls-2" cx="673.28" cy="98.86" r="88.53" transform="translate(127.3 505.04) rotate(-45)"/><circle class="cls-3" cx="964.99" cy="89.86" r="88.53"/><g class="cls-16"><rect class="cls-12" x="906.69" y="47" width="118.25" height="102.03"/><polygon class="cls-3" points="1016.83 140.92 971.93 140.92 965.81 147.04 959.69 140.92 914.79 140.92 914.79 43.08 1016.83 43.08 1016.83 140.92"/><polygon class="cls-11" points="965.67 147.04 965.67 43.08 914.79 43.08 914.79 140.92 959.57 140.92 965.67 147.04"/><rect class="cls-8" x="925.14" y="53.15" width="16.21" height="16.21"/><path class="cls-9" d="M925.14,69.36V53.15h6.08c0,9-.73,16.21,8.1,16.21Z"/><rect class="cls-6" x="925.14" y="95.92" width="12.3" height="12.3"/><rect class="cls-6" x="925.14" y="118.28" width="12.3" height="12.3"/><rect class="cls-8" x="990.27" y="53.15" width="16.21" height="16.21"/><path class="cls-9" d="M990.27,69.36V53.15h6.08c0,9-.73,16.21,8.11,16.21Z"/><rect class="cls-6" x="976.01" y="95.92" width="12.3" height="12.3"/><rect class="cls-6" x="976.01" y="118.28" width="12.3" height="12.3"/><path class="cls-8" d="M974.06,67.4V61.12a16.17,16.17,0,1,0-16.22,0V67.4Z"/><rect class="cls-12" x="957.84" y="67.4" width="16.21" height="8.11"/><path class="cls-9" d="M972,57.2A16.32,16.32,0,0,1,958,32.82a16.34,16.34,0,0,0-.11,28.3V67.4h16.22V61.12a16.42,16.42,0,0,0,6-6A16,16,0,0,1,972,57.2Z"/><rect class="cls-6" x="963.71" y="53.15" width="4.19" height="14.26"/><path class="cls-6" d="M965.85,55.19a2,2,0,0,1-1.44-.6l-6.12-6.12,2.88-2.89,4.68,4.68,4.68-4.68,2.88,2.89-6.12,6.12A2,2,0,0,1,965.85,55.19Z"/><rect class="cls-7" x="951.69" y="65.45" width="28.51" height="4.19"/><rect class="cls-7" x="922.9" y="83.62" width="34.66" height="4.19"/><rect class="cls-7" x="931.01" y="75.51" width="18.45" height="4.19"/><rect class="cls-7" x="922.9" y="75.51" width="4.19" height="4.19"/><rect class="cls-7" x="974.06" y="83.62" width="34.66" height="4.19"/><rect class="cls-7" x="990.27" y="75.51" width="18.45" height="4.19"/><rect class="cls-7" x="982.16" y="75.51" width="4.19" height="4.19"/><rect class="cls-7" x="943.31" y="104.02" width="14.26" height="4.19"/><rect class="cls-7" x="943.31" y="95.92" width="14.26" height="4.19"/><rect class="cls-7" x="943.31" y="126.67" width="14.26" height="4.19"/><rect class="cls-7" x="943.31" y="118.28" width="14.26" height="4.19"/><rect class="cls-7" x="994.46" y="104.02" width="14.26" height="4.19"/><rect class="cls-7" x="994.46" y="95.92" width="14.26" height="4.19"/><rect class="cls-7" x="994.46" y="126.67" width="14.26" height="4.19"/><rect class="cls-7" x="994.46" y="118.28" width="14.26" height="4.19"/></g><circle class="cls-2" cx="964.99" cy="89.86" r="88.53"/><circle class="cls-3" cx="1256.71" cy="92.34" r="88.53"/><g class="cls-17"><path class="cls-11" d="M1194.53,131.59V46.77a6.87,6.87,0,0,1,6.87-6.87h110.27a6.9,6.9,0,0,1,6.9,6.89v84.8H1277.2l-4.58,4.71h-32.17l-4.58-4.71Z"/><rect class="cls-3" x="1203.95" y="49.01" width="105.51" height="73.48"/><path class="cls-12" d="M1320.45,131.59v6.59a6.61,6.61,0,0,1-6.6,6.6H1199.56a6.62,6.62,0,0,1-6.6-6.6h0v-6.58h44l4.41,4.39h30.77l4.41-4.39Z"/><rect class="cls-8" x="1211.8" y="73.5" width="35.17" height="32.97"/><path class="cls-9" d="M1247,106.47h0c-15,0-31.29-14.78-31.29-33h-3.59v33Z"/><rect class="cls-8" x="1221.54" y="116.52" width="68.45" height="5.97"/><rect class="cls-7" x="1254.51" y="74.13" width="36.74" height="4.71"/><rect class="cls-7" x="1203.95" y="49.01" width="105.51" height="13.19"/><rect class="cls-6" x="1254.51" y="92.97" width="21.98" height="2.83"/><rect class="cls-6" x="1280.88" y="92.97" width="21.98" height="2.83"/><rect class="cls-6" x="1254.51" y="98.3" width="21.98" height="2.83"/><rect class="cls-6" x="1280.88" y="98.3" width="21.98" height="2.83"/><rect class="cls-6" x="1254.51" y="103.64" width="21.98" height="2.83"/><rect class="cls-6" x="1280.88" y="103.64" width="21.98" height="2.83"/><rect class="cls-6" x="1243.2" y="55.6" width="10.99" height="2.83"/><rect class="cls-6" x="1259.53" y="55.6" width="10.99" height="2.83"/><rect class="cls-6" x="1275.55" y="55.6" width="10.99" height="2.83"/><rect class="cls-6" x="1291.87" y="55.6" width="10.99" height="2.83"/><rect class="cls-7" x="1254.51" y="81.03" width="25.12" height="4.71"/><path class="cls-8" d="M1215.89,60.62V58.76a4.44,4.44,0,1,0-6.32-.35,2.32,2.32,0,0,0,.35.35v1.86Z"/><path class="cls-9" d="M1210.39,54.57a4.54,4.54,0,0,1,.41-3,4.38,4.38,0,0,0-1.87,5.95,4.5,4.5,0,0,0,1,1.22v1.86h6V58.76a4.8,4.8,0,0,0,1-1.22,4.12,4.12,0,0,1-2.28.54A4.48,4.48,0,0,1,1210.39,54.57Z"/><rect class="cls-6" x="1212.12" y="57.8" width="1.57" height="2.83"/><path class="cls-6" d="M1212.78,58.54a.7.7,0,0,1-.52-.22L1210,56.1l1-1,1.69,1.69,1.69-1.69,1,1-2.22,2.22A.66.66,0,0,1,1212.78,58.54Z"/><rect class="cls-7" x="1207.72" y="60" width="10.36" height="1.57"/></g><circle class="cls-2" cx="1256.71" cy="92.34" r="88.53"/></g></g></svg>