<svg xmlns="http://www.w3.org/2000/svg" viewBox="0 0 315.7 315.7"><defs><style>.cls-1,.cls-2{fill:none;}.cls-2{stroke:#fff;stroke-miterlimit:10;stroke-width:1.97px;}</style></defs><title>ico_methods_2_ecrou2</title><g id="Calque_2" data-name="Calque 2"><g id="Pland_de_travail_4" data-name="Pland de travail 4"><rect class="cls-1" width="315.7" height="315.7"/><circle class="cls-2" cx="181.53" cy="133.79" r="23.51"/><path class="cls-2" d="M195.52,84.2a1.77,1.77,0,0,1,2.31-1l7.37,3a1.77,1.77,0,0,1,1,2.31l-2.8,6.76A3,3,0,0,0,204.47,99a40.83,40.83,0,0,1,11.46,11.45,3,3,0,0,0,3.6,1.08l6.76-2.79a1.79,1.79,0,0,1,2.32,1l3.06,7.36a1.79,1.79,0,0,1-1,2.32L224,122.13a3,3,0,0,0-1.77,3.34,41.32,41.32,0,0,1,0,16.17A3,3,0,0,0,224,145l6.76,2.79a1.78,1.78,0,0,1,1,2.32l-3,7.36a1.78,1.78,0,0,1-2.32,1l-6.76-2.79a3,3,0,0,0-3.6,1.11,40.83,40.83,0,0,1-11.46,11.45,3,3,0,0,0-1.08,3.61l2.8,6.76a1.77,1.77,0,0,1-1,2.31l-7.37,3.07a1.78,1.78,0,0,1-2.31-1l-2.8-6.77a3,3,0,0,0-3.33-1.77,41.32,41.32,0,0,1-16.17,0,2.93,2.93,0,0,0-3.34,1.77l-2.4,6.17a1.78,1.78,0,0,1-2.32,1l-7.36-3a1.82,1.82,0,0,1-1-1,1.75,1.75,0,0,1,0-1.35l2.79-6.76a3,3,0,0,0-1.11-3.61,40.67,40.67,0,0,1-11.45-11.45,3,3,0,0,0-3.61-1.08l-6.76,2.79a1.78,1.78,0,0,1-2.31-1l-3.07-7.36a1.79,1.79,0,0,1,1-2.32l6.77-2.79a3,3,0,0,0,1.77-3.34,41.32,41.32,0,0,1,0-16.17,3,3,0,0,0-1.77-3.33l-6.77-2.8a1.77,1.77,0,0,1-1-2.31l3-7.37a1.77,1.77,0,0,1,2.31-1l6.76,2.8a3,3,0,0,0,3.61-1.12,40.93,40.93,0,0,1,11.45-11.45,3,3,0,0,0,1.08-3.6L156.84,88a1.77,1.77,0,0,1,1-2.31l7.36-3.07a1.78,1.78,0,0,1,2.32,1l2.79,6.76a3,3,0,0,0,3.34,1.77,41.32,41.32,0,0,1,16.17,0,2.94,2.94,0,0,0,3.34-1.77Z"/></g></g></svg>