<svg xmlns="http://www.w3.org/2000/svg" viewBox="0 0 315.7 315.7"><defs><style>.cls-1,.cls-2,.cls-3,.cls-4,.cls-5{fill:none;}.cls-2,.cls-3,.cls-4,.cls-5{stroke:#fff;stroke-miterlimit:10;}.cls-2{stroke-width:0.94px;}.cls-3{stroke-width:1.68px;}.cls-4{stroke-width:1.97px;}.cls-5{stroke-width:2.35px;}</style></defs><title>ico_methods_2</title><g id="Calque_2" data-name="Calque 2"><g id="Pland_de_travail_4" data-name="Pland de travail 4"><rect class="cls-1" width="315.7" height="315.7"/><path class="cls-2" d="M187.2,219a10.52,10.52,0,0,1-4.48-1.66c-2.33-1.49-4.6-3.06-6.87-4.62a10.5,10.5,0,0,0-5.95-2c-3.55,0-7.1,0-10.65.05l-2.91,0a6.53,6.53,0,0,0-4.56,1.76L135,226.72c-1.41,1.19-2.85,2.33-4.21,3.57a1.75,1.75,0,0,0,.49,3.07,8.7,8.7,0,0,0,2.82.77,21.75,21.75,0,0,0,8.61-.75,23.83,23.83,0,0,0,3.86-1.73c1.64-.88,3.22-1.86,4.82-2.82a2.44,2.44,0,0,1,2.77.06c4.26,2.58,8.56,5.12,12.83,7.68l10.56,6.35c3.46,2.08,6.93,4.14,10.4,6.22l12.22,7.33c2.22,1.34,4.45,2.66,6.65,4a8.15,8.15,0,0,1,3.43,8,8.14,8.14,0,0,1-12,5.73c-.25-.14-.52-.26-.9-.44.25,3.51-.93,6.27-3.89,8.05s-6,1.48-9-.3c.13,3.55-1,6.36-4,8.11s-6,1.44-9-.39c0,.59,0,1,0,1.51a7.58,7.58,0,0,1-4.46,6.9,8.07,8.07,0,0,1-8.26-.53c-1-.6-1.92-1.22-2.91-1.76-.5-.28-.76-.48-.3-1a10.12,10.12,0,0,0,.88-1.41c.21-.37.43-.4.78-.18,1.26.77,2.52,1.56,3.82,2.26a4.84,4.84,0,0,0,5.24-.26,5,5,0,0,0,2.3-5,5,5,0,0,0-2.42-3.75c-.85-.53-1.72-1-2.58-1.55a1.52,1.52,0,0,1-.57-2.11,1.56,1.56,0,0,1,2.1-.39c3,1.78,6,3.62,9,5.33a5.15,5.15,0,0,0,7.11-2.77,5.36,5.36,0,0,0-2.54-6.57c-1.52-.84-3-1.81-4.48-2.65a1.64,1.64,0,0,1-.59-2.29c.54-.69,2.52,0,2.85.22l10.12,6.07a5.2,5.2,0,0,0,7.81-5.61,5.54,5.54,0,0,0-2.78-3.51c-2.38-1.41-4.74-2.83-7.1-4.26a1.61,1.61,0,0,1-.79-2.3c.7-1.21,2.18-.25,3,.25l3.66,2.19c3.1,1.86,6.19,3.73,9.3,5.57a5.18,5.18,0,0,0,7.47-6.24c-.56-1.67-1.87-2.54-3.27-3.37-3.36-2-6.71-4-10.07-6l-12.08-7.19-9.18-5.53-15.31-9.15c-1.2-.72-2.4-1.42-3.57-2.17a1.59,1.59,0,0,0-1.84,0c-2,1.16-4,2.33-6.12,3.37a17.92,17.92,0,0,1-7.42,1.68,42.88,42.88,0,0,1-4.94-.1,7.49,7.49,0,0,1-4.57-1.82,4.71,4.71,0,0,1,.22-7.22c3.36-2.79,6.69-5.62,10-8.43,3.75-3.15,7.48-6.33,11.24-9.46a9.14,9.14,0,0,1,6-2.18c4.52,0,9,0,13.55,0a14.35,14.35,0,0,1,8.36,2.91c2,1.45,4.09,2.9,6.24,4.17a10.78,10.78,0,0,0,7,1.35,1.34,1.34,0,0,1,1.44.56,13.52,13.52,0,0,0,1,1.23c.34.37.22.58-.19.77C193.1,219.1,188.25,219,187.2,219Z"/><path class="cls-2" d="M148.06,209.35l-2.63,2.16a.47.47,0,0,1-.37,0,5.22,5.22,0,0,0-4.93,1.08c-2.07,1.51-4.16,3-6.33,4.38a14.73,14.73,0,0,1-9.78,2.19,15.16,15.16,0,0,1-6.37-2.21l-.36-.26c.37-.75.72-1.5,1.13-2.22.07-.11.44-.15.61-.08,1,.45,2,1,3.09,1.4a11.71,11.71,0,0,0,6.16.31c2.78-.55,4.9-2.27,7.15-3.79,1.52-1,3-2.12,4.58-3.07a7.35,7.35,0,0,1,6.1-.47Z"/><path class="cls-2" d="M107.23,257.94c-.36.64-.73,1.28-1.18,2.06a9,9,0,0,1-.38-1.05,7.94,7.94,0,0,0-4-5.4l-1.5-.88a.6.6,0,0,1-.27-.91c.26-.51.5-1,.76-1.55.13-.25.28-.52.64-.3,1.81,1.08,4.09,2.36,5,3.78S107.61,257.26,107.23,257.94Z"/><path class="cls-2" d="M158.26,278.44a7.67,7.67,0,0,0-6.5-4.38c-.77-.06-1.54,0-2.37,0a7.93,7.93,0,0,0-2-8,7.81,7.81,0,0,0-7.94-2.11c-.15-1-.23-1.92-.45-2.83A8.08,8.08,0,0,0,126,257c-.36.3-.6.23-.78-.2a4.6,4.6,0,0,0-.4-.8,8.34,8.34,0,0,0-8-4.12,6.88,6.88,0,0,0-5.82,3.47c-2,3.35-3.84,6.73-5.77,10.08a7.31,7.31,0,0,0,0,7.71,8.31,8.31,0,0,0,5.82,4.12,9.31,9.31,0,0,0,3.57-.09c.5-.09.62.09.66.56a9.26,9.26,0,0,0,3.25,5.83c2,1.44,6.46,1.65,8.21.79.41-.19.51-.07.62.31a13.76,13.76,0,0,0,.72,2,7.69,7.69,0,0,0,5,4.07,8.2,8.2,0,0,0,5.72-.47c.36-.16.48-.09.56.3a7.69,7.69,0,0,0,.54,1.64,8.11,8.11,0,0,0,14.18,1c1.18-2,2.29-4.11,3.43-6.16a13.17,13.17,0,0,0,1.13-2A8,8,0,0,0,158.26,278.44Zm-41.72-6.09a4.64,4.64,0,0,1-5.41,1.91,5.56,5.56,0,0,1-3.74-3.42,10.85,10.85,0,0,1-.35-1.62,5.61,5.61,0,0,1,1.06-3l3.75-6.59c.54-1,1.06-1.95,1.65-2.89a4.69,4.69,0,0,1,5.12-1.94,5.41,5.41,0,0,1,4.36,5.24,5.26,5.26,0,0,1-.69,2.17C120.41,265.65,118.51,269,116.54,272.35ZM128,279.29a4.83,4.83,0,0,1-3.53,2.83,5.47,5.47,0,0,1-4.87-1.29c-1.82-1.53-1.66-4.34-.63-6.67s4.28-7.55,6.45-11.31a13,13,0,0,1,2.36-3.56,5.17,5.17,0,0,1,8.11,1.73,5.49,5.49,0,0,1-.54,5.38C133.15,270.11,128.28,278.73,128,279.29Zm11.46,6.65a4.79,4.79,0,0,1-4.12,2.11c-3.77.06-6.53-4.2-4.63-7.52s3.65-6.43,5.46-9.65c.31-.54.59-1.09.91-1.62a5.09,5.09,0,0,1,4.6-2.69,4.94,4.94,0,0,1,4.5,2.72,5.34,5.34,0,0,1-.34,5.61c-1.29,2.19-2.52,4.41-3.78,6.62C141.17,283,140.38,284.53,139.42,285.94Zm15.65-.43c-1.12,1.92-2.18,3.88-3.31,5.8a5,5,0,0,1-4.95,2.59,4.9,4.9,0,0,1-4.29-3,4.77,4.77,0,0,1,.15-4.52c1.3-2.34,2.61-4.67,4-7a5,5,0,0,1,4.45-2.47,5.3,5.3,0,0,1,5,3.92A6.07,6.07,0,0,1,155.07,285.51Z"/><path class="cls-2" d="M207.29,258.24a11.34,11.34,0,0,1,2.29-4.71c1.32-1.62,3.14-2.53,4.87-3.59.33-.2.52-.05.66.23.28.55.54,1.12.82,1.67s-.06.69-.41.91A27.35,27.35,0,0,0,213,254.3a8.29,8.29,0,0,0-2.92,4.62c-.38,1.42-.14,1.76-1.54.56-.32-.28-.68-.52-1-.8A1.6,1.6,0,0,1,207.29,258.24Z"/><rect class="cls-2" x="77.36" y="220.08" width="43.18" height="13.98" transform="translate(-148.13 209.61) rotate(-62.41)"/><rect class="cls-2" x="74.12" y="217.1" width="49.47" height="19.94" transform="translate(-148.18 209.53) rotate(-62.41)"/><rect class="cls-2" x="195.31" y="220.33" width="43.18" height="13.98" transform="translate(319.77 -69.56) rotate(62.77)"/><rect class="cls-2" x="192.22" y="217.28" width="49.47" height="19.94" transform="translate(319.73 -69.64) rotate(62.77)"/><path class="cls-3" d="M55.18,47l-7.84-.42-.6-1.67L62.1,40,70.49,52.8,60.2,48.85c-12.32,22.79-5.26,44.1,9.26,65C47.59,93.51,45.49,71.16,55.18,47Z"/><path class="cls-3" d="M254,69.07l-20-5c-1.64,6.05-3.12,11.47-5.45,20l9.56-7.48c29.17,62.08,16.67,87.54,2.12,118.4,24.37-41.85,24.44-70.6,3.36-121.29Z"/><circle class="cls-4" cx="181.53" cy="133.79" r="23.51"/><path class="cls-4" d="M195.52,84.2a1.77,1.77,0,0,1,2.31-1l7.37,3a1.77,1.77,0,0,1,1,2.31l-2.8,6.76A3,3,0,0,0,204.47,99a40.83,40.83,0,0,1,11.46,11.45,3,3,0,0,0,3.6,1.08l6.76-2.79a1.79,1.79,0,0,1,2.32,1l3.06,7.36a1.79,1.79,0,0,1-1,2.32L224,122.13a3,3,0,0,0-1.77,3.34,41.32,41.32,0,0,1,0,16.17A3,3,0,0,0,224,145l6.76,2.79a1.78,1.78,0,0,1,1,2.32l-3,7.36a1.78,1.78,0,0,1-2.32,1l-6.76-2.79a3,3,0,0,0-3.6,1.11,40.83,40.83,0,0,1-11.46,11.45,3,3,0,0,0-1.08,3.61l2.8,6.76a1.77,1.77,0,0,1-1,2.31l-7.37,3.07a1.78,1.78,0,0,1-2.31-1l-2.8-6.77a3,3,0,0,0-3.33-1.77,41.32,41.32,0,0,1-16.17,0,2.93,2.93,0,0,0-3.34,1.77l-2.4,6.17a1.78,1.78,0,0,1-2.32,1l-7.36-3a1.82,1.82,0,0,1-1-1,1.75,1.75,0,0,1,0-1.35l2.79-6.76a3,3,0,0,0-1.11-3.61,40.67,40.67,0,0,1-11.45-11.45,3,3,0,0,0-3.61-1.08l-6.76,2.79a1.78,1.78,0,0,1-2.31-1l-3.07-7.36a1.79,1.79,0,0,1,1-2.32l6.77-2.79a3,3,0,0,0,1.77-3.34,41.32,41.32,0,0,1,0-16.17,3,3,0,0,0-1.77-3.33l-6.77-2.8a1.77,1.77,0,0,1-1-2.31l3-7.37a1.77,1.77,0,0,1,2.31-1l6.76,2.8a3,3,0,0,0,3.61-1.12,40.93,40.93,0,0,1,11.45-11.45,3,3,0,0,0,1.08-3.6L156.84,88a1.77,1.77,0,0,1,1-2.31l7.36-3.07a1.78,1.78,0,0,1,2.32,1l2.79,6.76a3,3,0,0,0,3.34,1.77,41.32,41.32,0,0,1,16.17,0,2.94,2.94,0,0,0,3.34-1.77Z"/><path class="cls-5" d="M108.4,34.63a3.53,3.53,0,0,0,2.86-3.48V24.82a.57.57,0,0,1,.58-.57h6.9a.57.57,0,0,1,.58.57v6.33a3.56,3.56,0,0,0,2.86,3.48,34.55,34.55,0,0,1,12.6,5.22,3.53,3.53,0,0,0,4.48-.43L143.73,35a.56.56,0,0,1,.39-.18.58.58,0,0,1,.4.18l4.87,4.87a.53.53,0,0,1,0,.78l-4.48,4.48a3.57,3.57,0,0,0-.43,4.47,34.57,34.57,0,0,1,5.23,12.6A3.52,3.52,0,0,0,153.18,65h6.34a.56.56,0,0,1,.57.57V72.5a.56.56,0,0,1-.57.57h-6.34a3.56,3.56,0,0,0-3.47,2.87,34.57,34.57,0,0,1-5.23,12.6,3.53,3.53,0,0,0,.43,4.47l4.48,4.48a.53.53,0,0,1,0,.78l-4.87,4.87a.58.58,0,0,1-.4.18.56.56,0,0,1-.39-.18l-4.47-4.47a3.58,3.58,0,0,0-4.48-.43,34.55,34.55,0,0,1-12.6,5.22,3.53,3.53,0,0,0-2.86,3.48v6.33a.57.57,0,0,1-.58.57h-6.9a.57.57,0,0,1-.58-.57v-6.33a3.56,3.56,0,0,0-2.86-3.48,34.55,34.55,0,0,1-12.6-5.22,3.53,3.53,0,0,0-4.48.43l-4.47,4.54a.52.52,0,0,1-.79,0l-4.87-4.87a.56.56,0,0,1,0-.78l4.48-4.48a3.57,3.57,0,0,0,.43-4.47A34.57,34.57,0,0,1,80.87,76a3.53,3.53,0,0,0-3.47-2.87H71.06a.56.56,0,0,1-.57-.57V65.66a.56.56,0,0,1,.57-.57H77.4a3.56,3.56,0,0,0,3.47-2.86,34.57,34.57,0,0,1,5.23-12.6,3.54,3.54,0,0,0-.43-4.48l-4.48-4.47a.57.57,0,0,1,0-.79L86.06,35a.52.52,0,0,1,.79,0l4.47,4.48a3.52,3.52,0,0,0,2.51,1,3.59,3.59,0,0,0,2-.61A35.94,35.94,0,0,1,108.4,34.63Z"/><path class="cls-5" d="M115.27,48a21.05,21.05,0,1,0,21,21.05A21.09,21.09,0,0,0,115.27,48Z"/></g></g></svg>