<svg xmlns="http://www.w3.org/2000/svg" viewBox="0 0 315.7 315.7"><defs><style>.cls-1{fill:none;}.cls-2{fill:#fcbf2a;}.cls-3{fill:#078c9b;}</style></defs><title>ico_methods_vous</title><g id="Calque_2" data-name="Calque 2"><g id="Pland_de_travail_4" data-name="Pland de travail 4"><rect class="cls-1" width="315.7" height="315.7"/><circle class="cls-2" cx="160.5" cy="131.14" r="131"/><path class="cls-3" d="M84.83,153.25H74.51l-22-51.76H63.33l16.53,41.75,16.85-41.75h10.47Z"/><path class="cls-3" d="M135.82,101a30.68,30.68,0,0,1,12.11,2.21,18.63,18.63,0,0,1,8.15,6.4,23.84,23.84,0,0,1,3.29,7.76,43,43,0,0,1,1.13,10.25q0,13-6.29,19.63t-18.78,6.6A32.83,32.83,0,0,1,123,151.62a18.39,18.39,0,0,1-8.3-6.28,23.22,23.22,0,0,1-3.49-7.8,39.09,39.09,0,0,1-1.24-10q0-13.27,6.48-19.91T135.82,101Zm-.54,7.6a16.92,16.92,0,0,0-7.8,1.7,10.91,10.91,0,0,0-4.94,5,17,17,0,0,0-1.63,5.1,40.16,40.16,0,0,0-.53,6.88q0,10,3.55,14.49t11.35,4.52q7.78,0,11.31-4.44t3.51-14.34q0-9.89-3.55-14.38T135.28,108.55Z"/><path class="cls-3" d="M177.49,132.3a28.79,28.79,0,0,0,.58,6.52,8.27,8.27,0,0,0,2.12,3.88q3.33,3.57,10,3.57A17.8,17.8,0,0,0,197.4,145a8.54,8.54,0,0,0,4.31-3.8,9.86,9.86,0,0,0,1-3.34,47.9,47.9,0,0,0,.27-5.9v-30.5h9.55v30.27a55,55,0,0,1-.28,6,25.71,25.71,0,0,1-.85,4.54,12.32,12.32,0,0,1-1.59,3.45,15.14,15.14,0,0,1-2.41,2.74q-6,5.49-17.77,5.49-12.34,0-17.85-6.75a14.42,14.42,0,0,1-1.78-2.72,16.14,16.14,0,0,1-1.17-3.15,23.33,23.33,0,0,1-.66-3.92c-.13-1.44-.19-3.1-.19-5v-31h9.54Z"/><path class="cls-3" d="M222,145.42h22.9a30.26,30.26,0,0,0,4.81-.31,7.77,7.77,0,0,0,2.87-1,6.33,6.33,0,0,0,2.95-5.79,7.85,7.85,0,0,0-1-4.13,5.92,5.92,0,0,0-3-2.5,11,11,0,0,0-2.63-.54,41.76,41.76,0,0,0-4.18-.16h-6.66a36.69,36.69,0,0,1-7.86-.7,12.77,12.77,0,0,1-5.15-2.25,12.5,12.5,0,0,1-3.72-4.73,15.1,15.1,0,0,1-1.32-6.37,16,16,0,0,1,2.19-8.34,13,13,0,0,1,6-5.39,17.38,17.38,0,0,1,4.75-1.32,52.39,52.39,0,0,1,7.14-.39h23.29v7.84H241.29a38.48,38.48,0,0,0-4.7.23,11.13,11.13,0,0,0-3,.77,5.06,5.06,0,0,0-2.32,2.28,7.4,7.4,0,0,0-.86,3.58q0,3.56,2.36,5.06t8,1.5h5.5c2.06,0,3.87.07,5.42.2a29.34,29.34,0,0,1,4.14.62,15.16,15.16,0,0,1,3.18,1.09,10.21,10.21,0,0,1,2.44,1.66,13.39,13.39,0,0,1,3.29,5.05,18.77,18.77,0,0,1,1.2,6.83,16.27,16.27,0,0,1-1.88,7.88,12.38,12.38,0,0,1-5.32,5.23,12.78,12.78,0,0,1-2.19.94,18,18,0,0,1-2.68.62,32.58,32.58,0,0,1-3.57.31c-1.37,0-3,.07-4.85.07H222Z"/></g></g></svg>