<svg xmlns="http://www.w3.org/2000/svg" viewBox="0 0 315.7 315.7"><defs><style>.cls-1,.cls-2{fill:none;}.cls-2{stroke:#fff;stroke-miterlimit:10;stroke-width:2.35px;}</style></defs><title>ico_method_3_stylo</title><g id="Calque_2" data-name="Calque 2"><g id="Pland_de_travail_4" data-name="Pland de travail 4"><rect class="cls-1" width="315.7" height="315.7"/><path class="cls-2" d="M307.23,131.35H278a3.18,3.18,0,0,0-1.42.33s-5.71,3.79-6.44,3.07,2.66-7.12,2.66-7.12a3.94,3.94,0,0,0-1.95-3.12c-2-1.32-4.22.82-4.22.82l-10.79,28.8a6.12,6.12,0,0,1-2,2.72l-19.47,15.64-1.67-2.09a9.83,9.83,0,0,1,1.52-13.82l9.72-7.83a3.33,3.33,0,0,0,1-1.43L253.19,125a6.69,6.69,0,0,0-2.42-3.24c-1.71-1.06-3.76,1-3.76,1l-7.87,21.49s-7.73,7.28-8.55,6.88,0-59.25,0-59.25h76.64m0-6.58H230.57V40.78a3.29,3.29,0,0,0-3.29-3.29H221V21.69a3.3,3.3,0,0,0-6.59,0v15.8h-6.25a3.29,3.29,0,0,0-3.29,3.29V47h-4.47a9.87,9.87,0,0,0-9.85,9.85V79a3.29,3.29,0,1,0,6.58,0V56.89a3.28,3.28,0,0,1,3.27-3.27h4.47V92L175,123.42a12.77,12.77,0,0,0-1.83,14.84l-2.33,2.45a12.78,12.78,0,0,0-.17,17.26L204,195.49a3.29,3.29,0,0,0,4.65.28l6,17.92a3.3,3.3,0,0,0,6.26,0l9.54-28.63a3.44,3.44,0,0,0,.16-.95s0-.06,0-.09v-5.81l.77.95a3.26,3.26,0,0,0,2.21,1.21h.35a3.27,3.27,0,0,0,2.06-.72L258,162a12.89,12.89,0,0,0,4-5.57l4.79-12.8,11.92-5.66h28.49M175.55,153.59a6.21,6.21,0,0,1,.06-8.36l1.67-1.75,27.62,31.07V184s0,.06,0,.09a3,3,0,0,0,.15.95l.94,2.83Zm4.16-17.27a6.21,6.21,0,0,1,.06-8.39h0l25.13-26.41v18.17l-10,10.3a3.3,3.3,0,0,0-.1,4.48l14.92,16.79a15.82,15.82,0,0,1,.92,19.86Zm25.19-7.17v6.74l-3.13-3.52Zm12.84,73-5-14.93h10ZM224,180.68H211.48v-1.55a3.23,3.23,0,0,0,1.32-.66,22.39,22.39,0,0,0,1.86-31.6l-3.16-3.56V44.07H224Z"/></g></g></svg>