<svg xmlns="http://www.w3.org/2000/svg" viewBox="0 0 315.7 315.7"><defs><style>.cls-1,.cls-2,.cls-3{fill:none;}.cls-2,.cls-3{stroke:#fff;stroke-miterlimit:10;}.cls-2{stroke-width:2.35px;}.cls-3{stroke-width:1.68px;}</style></defs><title>ico_methods_pensee3</title><g id="Calque_2" data-name="Calque 2"><g id="Pland_de_travail_4" data-name="Pland de travail 4"><rect class="cls-1" width="315.7" height="315.7"/><path class="cls-2" d="M165,80.39a32.36,32.36,0,0,0,7.71-20.68c0-19.1-17.42-34.64-38.84-34.64a41.41,41.41,0,0,0-24.61,7.86A42,42,0,0,0,89.34,28C67.92,28,50.49,43.58,50.49,62.68a29.41,29.41,0,0,0,.23,3.61c-14.33,5.29-23.95,17.83-23.95,32,0,18.7,16.71,34,37.51,34.61,7.45,10.17,20.16,16.36,34,16.36a42.79,42.79,0,0,0,29.52-11.37,42.91,42.91,0,0,0,9,1c21.41,0,38.84-15.53,38.84-34.63A32.81,32.81,0,0,0,165,80.39Zm-28.16,47.49a32,32,0,0,1-9.2-1.35,5.45,5.45,0,0,0-5.67,1.63,29.8,29.8,0,0,1-23.69,10.13c-29.21-1.49-29-22-29-26.49a28.5,28.5,0,0,1,.49-5.76,2,2,0,0,0-3.91-.91,40.82,40.82,0,0,0-.7,16.8C50,121.72,37.72,111.19,37.72,98.27c0-10.66,8.48-20,20.61-22.84a5.47,5.47,0,0,0,4-6.91,20.52,20.52,0,0,1-.89-5.84C61.45,49.62,74,39,89.34,39a30.66,30.66,0,0,1,17.29,5.16,5.5,5.5,0,0,0,6.77-.5A30,30,0,0,1,133.83,36c15.38,0,27.89,10.63,27.89,23.69,0,6.4-3,12.42-8.46,16.94,0,0-9-1.43-13.86-.92-3.39.36-3,3.86-.77,4.14A37.94,37.94,0,0,1,143.89,81a41,41,0,0,1,9.75,4.31l.11.1c6.95,4.55,10.93,11.38,10.93,18.75C164.68,117.26,152.17,127.88,136.79,127.88Z"/><path class="cls-3" d="M93.74,44.56c-7.34-.66-22,2.09-25,17.24a3.63,3.63,0,0,0,2.88,4.27,3.33,3.33,0,0,0,.7.07,3.65,3.65,0,0,0,3.58-3c2.41-12.4,16.51-11.4,17.17-11.36a3.65,3.65,0,0,0,.65-7.27Z"/></g></g></svg>