<svg xmlns="http://www.w3.org/2000/svg" viewBox="0 0 315.7 317.56"><defs><style>.cls-1,.cls-2{fill:none;}.cls-2{stroke:#fcbf2a;stroke-miterlimit:10;stroke-width:4px;stroke-dasharray:24.94 49.89;}.cls-3{fill:#fcbf29;}</style></defs><title>ico_methods_vous-light</title><g id="Calque_2" data-name="Calque 2"><g id="Pland_de_travail_4" data-name="Pland de travail 4"><rect class="cls-1" y="1.86" width="315.7" height="315.7"/><circle class="cls-2" cx="160.5" cy="133" r="131"/><path class="cls-3" d="M105.05,158.09H97.53l-16-37.69h7.91l12,30.4,12.26-30.4h7.63Z"/><path class="cls-3" d="M142.18,120a22.41,22.41,0,0,1,8.81,1.61,13.51,13.51,0,0,1,5.94,4.66,17.45,17.45,0,0,1,2.4,5.66,31.1,31.1,0,0,1,.82,7.46q0,9.5-4.58,14.29t-13.67,4.81a24.06,24.06,0,0,1-9.05-1.58,13.5,13.5,0,0,1-6-4.58,17,17,0,0,1-2.54-5.68,28.67,28.67,0,0,1-.9-7.32q0-9.66,4.72-14.5T142.18,120Zm-.4,5.54a12.26,12.26,0,0,0-5.68,1.24,7.87,7.87,0,0,0-3.59,3.6,12.45,12.45,0,0,0-1.19,3.71,29.63,29.63,0,0,0-.39,5q0,7.26,2.59,10.56c1.72,2.19,4.48,3.29,8.26,3.29s6.53-1.08,8.24-3.24,2.56-5.63,2.56-10.44S151.72,131,150,128.8,145.53,125.54,141.78,125.54Z"/><path class="cls-3" d="M172.53,142.83a20.77,20.77,0,0,0,.42,4.75,6,6,0,0,0,1.54,2.83q2.41,2.59,7.31,2.6a12.94,12.94,0,0,0,5.22-1,6.27,6.27,0,0,0,3.15-2.77,7.45,7.45,0,0,0,.7-2.43,35,35,0,0,0,.2-4.3V120.34h7v22a42.19,42.19,0,0,1-.2,4.35,18.8,18.8,0,0,1-.62,3.31,8.86,8.86,0,0,1-1.16,2.52,10.91,10.91,0,0,1-1.75,2q-4.36,4-12.95,4-9,0-13-4.92a9.92,9.92,0,0,1-1.3-2,11.6,11.6,0,0,1-.85-2.29,16.26,16.26,0,0,1-.48-2.85c-.1-1.06-.14-2.26-.14-3.62V120.34h6.95Z"/><path class="cls-3" d="M205,152.39h16.67a21.52,21.52,0,0,0,3.51-.23,5.68,5.68,0,0,0,2.09-.73,4.63,4.63,0,0,0,2.15-4.22,5.67,5.67,0,0,0-.77-3,4.25,4.25,0,0,0-2.17-1.83,7.72,7.72,0,0,0-1.92-.39,30.1,30.1,0,0,0-3-.12h-4.85a26.83,26.83,0,0,1-5.72-.51,9.24,9.24,0,0,1-3.75-1.64,9,9,0,0,1-2.71-3.44,11,11,0,0,1-1-4.64,11.68,11.68,0,0,1,1.59-6.07,9.55,9.55,0,0,1,4.39-3.93,12.72,12.72,0,0,1,3.46-1,38.08,38.08,0,0,1,5.2-.28h17v5.7H219a27.54,27.54,0,0,0-3.42.17,8.53,8.53,0,0,0-2.18.56,3.73,3.73,0,0,0-1.7,1.66,5.47,5.47,0,0,0-.62,2.61,4,4,0,0,0,1.72,3.69q1.72,1.1,5.84,1.09h4c1.51,0,2.82.05,4,.14a21.21,21.21,0,0,1,3,.46,10.76,10.76,0,0,1,2.31.79,7.27,7.27,0,0,1,1.78,1.21,9.71,9.71,0,0,1,2.39,3.67,13.57,13.57,0,0,1,.88,5,11.85,11.85,0,0,1-1.37,5.74,9.12,9.12,0,0,1-3.87,3.81,10.86,10.86,0,0,1-1.59.68,11.61,11.61,0,0,1-2,.45,24.16,24.16,0,0,1-2.6.23c-1,0-2.18.05-3.53.05H205Z"/></g></g></svg>