<svg xmlns="http://www.w3.org/2000/svg" viewBox="0 0 315.7 315.7"><defs><style>.cls-1,.cls-2{fill:none;}.cls-2{stroke:#fff;stroke-miterlimit:10;stroke-width:2.35px;}</style></defs><title>ico_methods_1_bulle</title><g id="Calque_2" data-name="Calque 2"><g id="Pland_de_travail_4" data-name="Pland de travail 4"><rect class="cls-1" width="315.7" height="315.7"/><path class="cls-2" d="M154,138.33c13.11,17.68,39.1,29.73,69,29.73a106.32,106.32,0,0,0,25.32-3c26.85,19.8,45.41,3.92,45.41,3.92-13.57-1.78-19.5-7.61-22-13.13,17.89-10.22,29.35-26,29.35-43.63,0-30.85-35-55.85-78.08-55.85-18.68,0-35.83,4.69-49.27,12.52m-.64,15.51c.65-.5,1.31-1,2-1.48,12.64-9,29.67-14,47.93-14s35.29,5,47.93,14c11.37,8.13,17.63,18.54,17.63,29.3s-6.26,21.17-17.63,29.3c-12.64,9-29.66,14-47.93,14s-35.29-5-47.93-14a51.57,51.57,0,0,1-9.18-8.31"/></g></g></svg>