<svg xmlns="http://www.w3.org/2000/svg" viewBox="0 0 315.7 315.7"><defs><style>.cls-1,.cls-2,.cls-3,.cls-4{fill:none;}.cls-2,.cls-3,.cls-4{stroke:#fff;stroke-miterlimit:10;}.cls-2,.cls-4{stroke-width:2.35px;}.cls-3{stroke-width:0.94px;}.cls-4{stroke-linecap:round;}</style></defs><title>ico_methods_3</title><g id="Calque_2" data-name="Calque 2"><g id="Pland_de_travail_4" data-name="Pland de travail 4"><rect class="cls-1" width="315.7" height="315.7"/><path class="cls-2" d="M307.23,131.35H278a3.18,3.18,0,0,0-1.42.33s-5.71,3.79-6.44,3.07,2.66-7.12,2.66-7.12a3.94,3.94,0,0,0-1.95-3.12c-2-1.32-4.22.82-4.22.82l-10.79,28.8a6.12,6.12,0,0,1-2,2.72l-19.47,15.64-1.67-2.09a9.83,9.83,0,0,1,1.52-13.82l9.72-7.83a3.33,3.33,0,0,0,1-1.43L253.19,125a6.69,6.69,0,0,0-2.42-3.24c-1.71-1.06-3.76,1-3.76,1l-7.87,21.49s-7.73,7.28-8.55,6.88,0-59.25,0-59.25h76.64m0-6.58H230.57V40.78a3.29,3.29,0,0,0-3.29-3.29H221V21.69a3.3,3.3,0,0,0-6.59,0v15.8h-6.25a3.29,3.29,0,0,0-3.29,3.29V47h-4.47a9.87,9.87,0,0,0-9.85,9.85V79a3.29,3.29,0,1,0,6.58,0V56.89a3.28,3.28,0,0,1,3.27-3.27h4.47V92L175,123.42a12.77,12.77,0,0,0-1.83,14.84l-2.33,2.45a12.78,12.78,0,0,0-.17,17.26L204,195.49a3.29,3.29,0,0,0,4.65.28l6,17.92a3.3,3.3,0,0,0,6.26,0l9.54-28.63a3.44,3.44,0,0,0,.16-.95s0-.06,0-.09v-5.81l.77.95a3.26,3.26,0,0,0,2.21,1.21h.35a3.27,3.27,0,0,0,2.06-.72L258,162a12.89,12.89,0,0,0,4-5.57l4.79-12.8,11.92-5.66h28.49M175.55,153.59a6.21,6.21,0,0,1,.06-8.36l1.67-1.75,27.62,31.07V184s0,.06,0,.09a3,3,0,0,0,.15.95l.94,2.83Zm4.16-17.27a6.21,6.21,0,0,1,.06-8.39h0l25.13-26.41v18.17l-10,10.3a3.3,3.3,0,0,0-.1,4.48l14.92,16.79a15.82,15.82,0,0,1,.92,19.86Zm25.19-7.17v6.74l-3.13-3.52Zm12.84,73-5-14.93h10ZM224,180.68H211.48v-1.55a3.23,3.23,0,0,0,1.32-.66,22.39,22.39,0,0,0,1.86-31.6l-3.16-3.56V44.07H224Z"/><path class="cls-3" d="M13.18,290.79c3.12,1.06,6.26,2.1,9.44,2.95,4,1.06,15.69.65,23-4s-9.72-.29-14.67-2.29c.88-1.56,1.62-3,2.49-4.34.17-.27.81-.37,1.22-.33,3.73.3,7.45.69,11.18,1l14.66-2c7.33-1.53,13.65-5.09,19.66-9.42-2.38.39-4.77.75-7.15,1.16-6.85,1.18-13.74,2-20.64.82-4.47-.75-8.84-2.05-13.24-3.14-.33-.09-.86-.59-.81-.78.37-1.51.82-3,1.33-4.47.07-.18.67-.32,1-.25,3.12.79,6.19,1.77,9.34,2.42,4.62,1,9.23,1.82,14,.92,4.29-.8,8.66-1.15,13-1.8,4-.6,7.88-1.38,11.83-2a30.33,30.33,0,0,0,10.13-3.4,6.76,6.76,0,0,0,.91-.77l-6.39-2.25c-4.86-1.71-9.72-3.43-14.58-5.12-2.27-.79-4.55-1.56-6.84-2.29-1.83-.58-2.39-1.32-2-2.86.46-1.94,1.88-3,3.6-2.48,2.74.83,5.43,1.81,8.15,2.73,4.61,1.56,9.23,3.07,13.82,4.68s9.35,3.43,14,5.11c3.64,1.31,7.33,2.47,11,3.83a46.17,46.17,0,0,0,18.7,3.14,28,28,0,0,0,12-3c2.27-1.2,4.76-2.05,6.92-3.41a7,7,0,0,0,3.3-6.05c0-1.44-.37-2.29-2.14-2.22a105.67,105.67,0,0,1-10.68,0,15.35,15.35,0,0,1-5.36-1.47c-7-3.23-14-6.58-21-9.94-5.51-2.67-11-5.45-16.48-8.12-4.12-2-8.3-3.89-12.43-5.85s-8-3.84-12-5.76c-4.68-2.25-9.34-4.53-14-6.76-3-1.43-2.3-2.59-1.52-4.23s3.66-1.18,6-.05c4.74,2.27,9.44,4.59,14.17,6.87,5.47,2.64,10.82,5.6,16.47,7.8,4.64,1.8,9.72,1.82,14.72,1.7,3.48-.09,6.86-.58,9.71-2.69a10.39,10.39,0,0,0,3-3.49c1-1.93-.05-3.87-2.35-5-7.1-3.57-21.77-10.77-22.11-10.88,0,0-30.22-15.73-39.81-17.7-5.58-1.16-31-.81-52.51-.09"/><path class="cls-3" d="M13.18,287.81c3.33,1.14,6.77,2.3,10.17,3.2a18.52,18.52,0,0,0,4.27.39,39.81,39.81,0,0,0,6.83-.61,13.1,13.1,0,0,1-4.57-.76,2.81,2.81,0,0,1-1.61-1.68,2.85,2.85,0,0,1,.21-2.32c.23-.4.45-.8.66-1.19.63-1.14,1.23-2.21,1.91-3.28a4,4,0,0,1,3.44-1.64h.39l4.86.43c2,.18,4,.37,6,.52l14.26-2a38.56,38.56,0,0,0,5.35-1.56c-1.92.18-3.9.29-5.9.29a45,45,0,0,1-7.58-.6c-3.38-.58-6.72-1.45-9.94-2.29l-3.5-.91c-1.5-.37-3.39-2.07-2.88-4.17.38-1.53.84-3.08,1.42-4.74a3.51,3.51,0,0,1,3.43-2.16,3.6,3.6,0,0,1,.88.1c1.17.3,2.34.62,3.46.94,2,.54,3.85,1.06,5.76,1.46a45.58,45.58,0,0,0,9.24,1.24,20,20,0,0,0,3.7-.33c2.65-.49,5.32-.82,7.9-1.14,1.71-.21,3.47-.42,5.18-.68,2.14-.33,4.32-.71,6.43-1.09,1.76-.31,3.57-.63,5.37-.92a32.31,32.31,0,0,0,4.2-1l-4.14-1.46q-5.23-1.85-10.47-3.67c-2.58-.9-4.73-1.62-6.76-2.27-1.87-.59-4.87-2.18-3.93-6.19.69-2.92,2.84-4.8,5.5-4.8a6,6,0,0,1,1.66.25c2,.6,3.92,1.28,5.81,1.93l2.43.83,4.27,1.44c3.15,1,6.4,2.13,9.59,3.26,2.66.93,5.34,1.92,7.93,2.88,2,.75,4.07,1.5,6.11,2.23,1.49.53,3,1,4.49,1.56,2.14.72,4.34,1.47,6.51,2.29a43.88,43.88,0,0,0,15.68,3c.63,0,1.26,0,1.89-.05A25.39,25.39,0,0,0,149.94,260c1-.54,2-1,3-1.43a31.8,31.8,0,0,0,3.74-1.88,4.1,4.1,0,0,0,1.93-3c-1.89.06-3.47.09-4.93.09-1.88,0-3.58-.05-5.2-.15a18.36,18.36,0,0,1-6.36-1.72c-7.3-3.36-14.68-6.91-21-10-2.86-1.38-5.75-2.82-8.54-4.2-2.6-1.29-5.3-2.63-8-3.92-2.46-1.19-5-2.37-7.43-3.51l-5-2.33c-3.77-1.79-7.58-3.62-11.26-5.39l-.79-.38-5.48-2.64q-4.26-2.07-8.53-4.12c-5.43-2.59-3.63-6.37-3-7.8l.08-.17A4.94,4.94,0,0,1,68,204.72a12.35,12.35,0,0,1,5.07,1.3c2.73,1.3,5.44,2.62,8.16,3.95l6,2.92c1.62.78,3.24,1.6,4.81,2.39,3.73,1.87,7.58,3.81,11.45,5.32a29.71,29.71,0,0,0,10.67,1.55c1.08,0,2.15,0,3-.05,3.84-.09,6.18-.71,8.1-2.12a7.77,7.77,0,0,0,2.2-2.5c.08-.17.06-.22,0-.25s-.36-.59-1.15-1c-7.14-3.59-20.76-10.27-21.89-10.78-.08,0-.17-.07-.25-.12-.3-.15-30-15.56-39.08-17.44-1.25-.26-5.21-.69-17.75-.69-10.22,0-22.81.28-34.19.66"/><path class="cls-4" d="M207.88,208.11q-39.34,0-78.67,0h-.72c3.88,2.49,4,1.84,6.18,4.89s1.08,8.49-.85,10.28-15.33,6.59-17.29,6.76c2.15,1.06,4.08,2,6,3L140,241.33c2.27,1.09,4.5,2.28,6.8,3.3a5.71,5.71,0,0,0,2.28.25c49.5.12,155.37.34,158.81.34.05-.1.09-.19.13-.29l-75.3-36.13a6.91,6.91,0,0,0-2.89-.67h-3.14"/></g></g></svg>