<svg xmlns="http://www.w3.org/2000/svg" viewBox="0 0 315.7 315.7"><defs><style>.cls-1,.cls-2{fill:none;}.cls-2{stroke:#fff;stroke-miterlimit:10;stroke-width:2.35px;}</style></defs><title>ico_methods_2_ecrou1</title><g id="Calque_2" data-name="Calque 2"><g id="Pland_de_travail_4" data-name="Pland de travail 4"><rect class="cls-1" width="315.7" height="315.7"/><path class="cls-2" d="M108.4,34.63a3.53,3.53,0,0,0,2.86-3.48V24.82a.57.57,0,0,1,.58-.57h6.9a.57.57,0,0,1,.58.57v6.33a3.56,3.56,0,0,0,2.86,3.48,34.55,34.55,0,0,1,12.6,5.22,3.53,3.53,0,0,0,4.48-.43L143.73,35a.56.56,0,0,1,.39-.18.58.58,0,0,1,.4.18l4.87,4.87a.53.53,0,0,1,0,.78l-4.48,4.48a3.57,3.57,0,0,0-.43,4.47,34.57,34.57,0,0,1,5.23,12.6A3.52,3.52,0,0,0,153.18,65h6.34a.56.56,0,0,1,.57.57V72.5a.56.56,0,0,1-.57.57h-6.34a3.56,3.56,0,0,0-3.47,2.87,34.57,34.57,0,0,1-5.23,12.6,3.53,3.53,0,0,0,.43,4.47l4.48,4.48a.53.53,0,0,1,0,.78l-4.87,4.87a.58.58,0,0,1-.4.18.56.56,0,0,1-.39-.18l-4.47-4.47a3.58,3.58,0,0,0-4.48-.43,34.55,34.55,0,0,1-12.6,5.22,3.53,3.53,0,0,0-2.86,3.48v6.33a.57.57,0,0,1-.58.57h-6.9a.57.57,0,0,1-.58-.57v-6.33a3.56,3.56,0,0,0-2.86-3.48,34.55,34.55,0,0,1-12.6-5.22,3.53,3.53,0,0,0-4.48.43l-4.47,4.54a.52.52,0,0,1-.79,0l-4.87-4.87a.56.56,0,0,1,0-.78l4.48-4.48a3.57,3.57,0,0,0,.43-4.47A34.57,34.57,0,0,1,80.87,76a3.53,3.53,0,0,0-3.47-2.87H71.06a.56.56,0,0,1-.57-.57V65.66a.56.56,0,0,1,.57-.57H77.4a3.56,3.56,0,0,0,3.47-2.86,34.57,34.57,0,0,1,5.23-12.6,3.54,3.54,0,0,0-.43-4.48l-4.48-4.47a.57.57,0,0,1,0-.79L86.06,35a.52.52,0,0,1,.79,0l4.47,4.48a3.52,3.52,0,0,0,2.51,1,3.59,3.59,0,0,0,2-.61A35.94,35.94,0,0,1,108.4,34.63Z"/><path class="cls-2" d="M115.27,48a21.05,21.05,0,1,0,21,21.05A21.09,21.09,0,0,0,115.27,48Z"/></g></g></svg>