<svg xmlns="http://www.w3.org/2000/svg" viewBox="0 0 315.7 315.7"><defs><style>.cls-1,.cls-2,.cls-3,.cls-4{fill:none;}.cls-2,.cls-3,.cls-4{stroke:#fff;stroke-miterlimit:10;}.cls-2{stroke-width:0.94px;}.cls-3{stroke-width:2.35px;}.cls-4{stroke-width:1.68px;}</style></defs><title>ico_methods_1</title><g id="Calque_2" data-name="Calque 2"><g id="Pland_de_travail_4" data-name="Pland de travail 4"><rect class="cls-1" width="315.7" height="315.7"/><path class="cls-2" d="M180.47,219a10.55,10.55,0,0,1-4.49-1.66c-2.32-1.49-4.59-3.06-6.87-4.62a10.48,10.48,0,0,0-6-2c-3.54,0-7.09,0-10.64.05l-2.91,0a6.53,6.53,0,0,0-4.57,1.76l-16.76,14.16c-1.4,1.19-2.84,2.33-4.2,3.57a1.75,1.75,0,0,0,.48,3.07,8.83,8.83,0,0,0,2.83.77,21.77,21.77,0,0,0,8.61-.75,23.83,23.83,0,0,0,3.86-1.73c1.64-.88,3.22-1.86,4.82-2.82a2.44,2.44,0,0,1,2.77.06c4.26,2.58,8.55,5.12,12.83,7.68l10.55,6.35,10.41,6.22,12.22,7.33c2.22,1.34,4.44,2.66,6.65,4a8.17,8.17,0,0,1,3.43,8,8.14,8.14,0,0,1-12,5.73c-.25-.14-.52-.26-.9-.44.25,3.51-.93,6.27-3.89,8.05s-6,1.48-9-.3c.13,3.55-1,6.36-4,8.11s-6,1.44-9-.39c0,.59,0,1,0,1.51a7.59,7.59,0,0,1-4.47,6.9,8.07,8.07,0,0,1-8.26-.53c-1-.6-1.91-1.22-2.9-1.76-.5-.28-.76-.48-.3-1a10.12,10.12,0,0,0,.88-1.41c.2-.37.42-.4.78-.18,1.26.77,2.51,1.56,3.81,2.26a4.83,4.83,0,0,0,5.24-.26,5,5,0,0,0,2.31-5,5,5,0,0,0-2.42-3.75c-.85-.53-1.72-1-2.58-1.55a1.52,1.52,0,0,1-.57-2.11,1.56,1.56,0,0,1,2.1-.39c3,1.78,6,3.62,9,5.33a5.16,5.16,0,0,0,7.11-2.76,5.34,5.34,0,0,0-2.54-6.58c-1.51-.84-3-1.81-4.48-2.65a1.65,1.65,0,0,1-.58-2.29c.54-.69,2.52,0,2.85.22l10.12,6.07a5.19,5.19,0,0,0,7.8-5.61,5.52,5.52,0,0,0-2.77-3.51c-2.38-1.41-4.74-2.83-7.11-4.26a1.62,1.62,0,0,1-.78-2.3c.7-1.21,2.18-.25,3,.25l3.66,2.19c3.1,1.86,6.19,3.73,9.3,5.57a5.18,5.18,0,0,0,7.47-6.24c-.56-1.67-1.87-2.54-3.27-3.37-3.36-2-6.71-4-10.07-6L175,248.85l-9.18-5.53-15.32-9.15c-1.19-.72-2.39-1.42-3.56-2.17a1.59,1.59,0,0,0-1.84,0c-2,1.16-4,2.33-6.12,3.37a17.92,17.92,0,0,1-7.42,1.68,42.88,42.88,0,0,1-4.94-.1,7.47,7.47,0,0,1-4.57-1.82,4.7,4.7,0,0,1,.22-7.22c3.36-2.79,6.68-5.62,10-8.43,3.75-3.15,7.48-6.33,11.24-9.46a9.14,9.14,0,0,1,6-2.18c4.52,0,9,0,13.55,0a14.35,14.35,0,0,1,8.36,2.91c2,1.45,4.09,2.9,6.24,4.17a10.77,10.77,0,0,0,7,1.35,1.34,1.34,0,0,1,1.44.56,13.52,13.52,0,0,0,1,1.23c.34.37.21.58-.2.77C186.37,219.1,181.52,219,180.47,219Z"/><path class="cls-2" d="M141.32,209.35c-.95.79-1.78,1.48-2.62,2.16a.47.47,0,0,1-.37,0,5.22,5.22,0,0,0-4.93,1.08c-2.07,1.51-4.17,3-6.33,4.38a14.73,14.73,0,0,1-9.78,2.19,15.16,15.16,0,0,1-6.37-2.21l-.36-.26c.37-.75.72-1.5,1.13-2.22.06-.11.44-.15.61-.08,1,.45,2,1,3.09,1.4a11.71,11.71,0,0,0,6.16.31c2.78-.55,4.9-2.27,7.15-3.79,1.52-1,3-2.12,4.58-3.07a7.35,7.35,0,0,1,6.1-.47Z"/><path class="cls-2" d="M100.5,257.94,99.32,260a9,9,0,0,1-.38-1.05,8,8,0,0,0-4-5.4l-1.5-.88a.6.6,0,0,1-.27-.91c.26-.51.5-1,.76-1.55.13-.25.28-.52.64-.3,1.81,1.08,4.09,2.36,5,3.78S100.88,257.26,100.5,257.94Z"/><path class="cls-2" d="M151.53,278.44a7.67,7.67,0,0,0-6.51-4.38c-.76-.06-1.53,0-2.37,0a7.91,7.91,0,0,0-2-8,7.81,7.81,0,0,0-7.94-2.11c-.15-1-.23-1.92-.45-2.83a7.94,7.94,0,0,0-6.75-6,7.85,7.85,0,0,0-6.24,1.81c-.36.3-.6.23-.78-.2a4.6,4.6,0,0,0-.4-.8,8.35,8.35,0,0,0-8-4.12,6.91,6.91,0,0,0-5.82,3.47c-2,3.35-3.83,6.73-5.76,10.08a7.29,7.29,0,0,0,0,7.71,8.31,8.31,0,0,0,5.81,4.12,9.36,9.36,0,0,0,3.58-.09c.5-.09.62.09.66.56a9.26,9.26,0,0,0,3.25,5.83c2,1.44,6.46,1.65,8.21.79.4-.19.51-.07.62.31a12.66,12.66,0,0,0,.72,2,7.69,7.69,0,0,0,5,4.07,8.25,8.25,0,0,0,5.72-.46c.36-.17.47-.1.56.29a7.69,7.69,0,0,0,.54,1.64,8.11,8.11,0,0,0,14.18,1c1.18-2,2.29-4.11,3.43-6.16a14.09,14.09,0,0,0,1.13-2A8,8,0,0,0,151.53,278.44Zm-41.72-6.09a4.64,4.64,0,0,1-5.41,1.91,5.56,5.56,0,0,1-3.74-3.42,9.73,9.73,0,0,1-.35-1.62,5.53,5.53,0,0,1,1.06-3c1.24-2.2,2.5-4.39,3.74-6.59.55-1,1.07-1.95,1.65-2.89a4.7,4.7,0,0,1,5.13-1.94,5.41,5.41,0,0,1,4.36,5.24,5.26,5.26,0,0,1-.69,2.17C113.68,265.65,111.78,269,109.81,272.35Zm11.42,6.94a4.83,4.83,0,0,1-3.53,2.83,5.47,5.47,0,0,1-4.87-1.29c-1.82-1.53-1.66-4.34-.63-6.67s4.28-7.55,6.44-11.31a13,13,0,0,1,2.37-3.56,5.17,5.17,0,0,1,8.11,1.73,5.49,5.49,0,0,1-.54,5.38C126.42,270.11,121.55,278.73,121.23,279.29Zm11.46,6.65a4.81,4.81,0,0,1-4.12,2.11c-3.77.06-6.53-4.2-4.63-7.52s3.64-6.43,5.46-9.65c.31-.54.59-1.09.91-1.62a5.07,5.07,0,0,1,4.6-2.69,4.91,4.91,0,0,1,4.49,2.72,5.36,5.36,0,0,1-.33,5.61c-1.3,2.19-2.52,4.41-3.79,6.62C134.44,283,133.65,284.53,132.69,285.94Zm15.65-.43c-1.12,1.92-2.19,3.88-3.32,5.8a5,5,0,0,1-4.94,2.59,4.9,4.9,0,0,1-4.29-3,4.77,4.77,0,0,1,.15-4.52c1.3-2.34,2.61-4.67,4-7a5,5,0,0,1,4.45-2.47,5.31,5.31,0,0,1,5,3.92A6.07,6.07,0,0,1,148.34,285.51Z"/><path class="cls-2" d="M200.55,258.24a11.35,11.35,0,0,1,2.3-4.71c1.32-1.62,3.14-2.53,4.87-3.59.33-.2.52-.05.66.23.28.55.54,1.12.82,1.67s-.06.69-.41.91a27.35,27.35,0,0,0-2.49,1.55,8.18,8.18,0,0,0-2.92,4.62c-.38,1.42-.14,1.76-1.54.56-.32-.28-.68-.51-1-.8A2,2,0,0,1,200.55,258.24Z"/><rect class="cls-2" x="70.63" y="220.08" width="43.18" height="13.98" transform="translate(-151.74 203.65) rotate(-62.41)"/><rect class="cls-2" x="67.39" y="217.1" width="49.47" height="19.94" transform="translate(-151.79 203.56) rotate(-62.41)"/><rect class="cls-2" x="188.58" y="220.33" width="43.18" height="13.98" transform="translate(316.12 -63.57) rotate(62.77)"/><rect class="cls-2" x="185.49" y="217.28" width="49.47" height="19.94" transform="translate(316.08 -63.66) rotate(62.77)"/><path class="cls-3" d="M154,138.33c13.11,17.68,39.1,29.73,69,29.73a106.32,106.32,0,0,0,25.32-3c26.85,19.8,45.41,3.92,45.41,3.92-13.57-1.78-19.5-7.61-22-13.13,17.89-10.22,29.35-26,29.35-43.63,0-30.85-35-55.85-78.08-55.85-18.68,0-35.83,4.69-49.27,12.52m-.64,15.51c.65-.5,1.31-1,2-1.48,12.64-9,29.67-14,47.93-14s35.29,5,47.93,14c11.37,8.13,17.63,18.54,17.63,29.3s-6.26,21.17-17.63,29.3c-12.64,9-29.66,14-47.93,14s-35.29-5-47.93-14a51.57,51.57,0,0,1-9.18-8.31"/><path class="cls-3" d="M43.49,158.61a8.23,8.23,0,1,1,8.22-8.23A8.23,8.23,0,0,1,43.49,158.61Z"/><path class="cls-3" d="M17.94,175.64a3.36,3.36,0,1,1,3.36-3.36A3.36,3.36,0,0,1,17.94,175.64Z"/><path class="cls-3" d="M165,80.39a32.36,32.36,0,0,0,7.71-20.68c0-19.1-17.42-34.64-38.84-34.64a41.41,41.41,0,0,0-24.61,7.86A42,42,0,0,0,89.34,28C67.92,28,50.49,43.58,50.49,62.68a29.41,29.41,0,0,0,.23,3.61c-14.33,5.29-23.95,17.83-23.95,32,0,18.7,16.71,34,37.51,34.61,7.45,10.17,20.16,16.36,34,16.36a42.79,42.79,0,0,0,29.52-11.37,42.91,42.91,0,0,0,9,1c21.41,0,38.84-15.53,38.84-34.63A32.81,32.81,0,0,0,165,80.39Zm-28.16,47.49a32,32,0,0,1-9.2-1.35,5.45,5.45,0,0,0-5.67,1.63,29.8,29.8,0,0,1-23.69,10.13c-29.21-1.49-29-22-29-26.49a28.5,28.5,0,0,1,.49-5.76,2,2,0,0,0-3.91-.91,40.82,40.82,0,0,0-.7,16.8C50,121.72,37.72,111.19,37.72,98.27c0-10.66,8.48-20,20.61-22.84a5.47,5.47,0,0,0,4-6.91,20.52,20.52,0,0,1-.89-5.84C61.45,49.62,74,39,89.34,39a30.66,30.66,0,0,1,17.29,5.16,5.5,5.5,0,0,0,6.77-.5A30,30,0,0,1,133.83,36c15.38,0,27.89,10.63,27.89,23.69,0,6.4-3,12.42-8.46,16.94,0,0-9-1.43-13.86-.92-3.39.36-3,3.86-.77,4.14A37.94,37.94,0,0,1,143.89,81a41,41,0,0,1,9.75,4.31l.11.1c6.95,4.55,10.93,11.38,10.93,18.75C164.68,117.26,152.17,127.88,136.79,127.88Z"/><path class="cls-4" d="M93.74,44.56c-7.34-.66-22,2.09-25,17.24a3.63,3.63,0,0,0,2.88,4.27,3.33,3.33,0,0,0,.7.07,3.65,3.65,0,0,0,3.58-3c2.41-12.4,16.51-11.4,17.17-11.36a3.65,3.65,0,0,0,.65-7.27Z"/></g></g></svg>