<svg xmlns="http://www.w3.org/2000/svg" viewBox="0 0 332.86 252.24"><defs><style>.cls-1{fill:#ed1c24;}.cls-2{fill:#fff;}</style></defs><title>logo_ADDpub_mini</title><g id="Calque_2" data-name="Calque 2"><g id="Pland_de_travail_4" data-name="Pland de travail 4"><g id="mini_logo" data-name="mini logo"><path class="cls-1" d="M332.86,121.74a56.81,56.81,0,1,1-56.81-56.8A56.81,56.81,0,0,1,332.86,121.74Z"/><path d="M245.65,145.45l-.78-.22a22.59,22.59,0,0,1-.71-42.88l.77-.26a6,6,0,0,0,3.66-5.54,5.23,5.23,0,0,0-.09-1c-.07-.31-.14-.62-.22-.92a126.13,126.13,0,1,0,1.1,58.26l.21-1a5.32,5.32,0,0,0,.06-.81A6,6,0,0,0,245.65,145.45Z"/><path class="cls-2" d="M62.2,125.15a36,36,0,0,0-.3-5.57,8.34,8.34,0,0,0-1.39-3.27,6.69,6.69,0,0,0-3.7-2.67,27.75,27.75,0,0,0-7.45-.73H21.73V102.13h29q4.61,0,7.88.3a31.88,31.88,0,0,1,5.63,1,13.92,13.92,0,0,1,4.06,1.82,16.13,16.13,0,0,1,3.15,2.85,16.94,16.94,0,0,1,3.51,6.78,45.56,45.56,0,0,1,1,10.78v35.51H44.15c-3,0-5.5,0-7.51-.13a32.43,32.43,0,0,1-5.09-.54A17.88,17.88,0,0,1,28,159.38a14.7,14.7,0,0,1-3-1.76q-6.44-5-6.43-14.17a19.94,19.94,0,0,1,2.49-10.06,14.59,14.59,0,0,1,6.72-6.3q4-1.94,13.94-1.94ZM42.86,135.93c-1.87,0-3.23,0-4.08.12a8,8,0,0,0-2.37.61c-2.6,1.05-3.89,3.27-3.89,6.66q0,3.88,2.37,5.46t8,1.57H62.2V135.93Z"/><path class="cls-2" d="M133.2,80.32h13.7v80.82H120a67.64,67.64,0,0,1-7.46-.37,36.45,36.45,0,0,1-5.81-1.09,17.93,17.93,0,0,1-4.67-2,26,26,0,0,1-4-3.09,25,25,0,0,1-6-9.51,37.31,37.31,0,0,1-2.12-13,37.88,37.88,0,0,1,2.66-14.48,24.72,24.72,0,0,1,7.64-10.36q6.54-5.09,18.66-5.09H133.2Zm0,32.59H120.91q-17,0-17,18.3,0,19.14,16.06,19.14H133.2Z"/><path class="cls-2" d="M205.05,80.32h13.69v80.82H191.85a67.64,67.64,0,0,1-7.46-.37,36.24,36.24,0,0,1-5.81-1.09,17.93,17.93,0,0,1-4.67-2,26,26,0,0,1-4-3.09,25,25,0,0,1-6-9.51,37.31,37.31,0,0,1-2.12-13,37.69,37.69,0,0,1,2.66-14.48,24.72,24.72,0,0,1,7.64-10.36q6.54-5.09,18.66-5.09h14.29Zm0,32.59H192.76q-17,0-17,18.3,0,19.14,16.06,19.14h13.26Z"/></g><path class="cls-2" d="M251.16,109.73c1.1,0,2.06,0,2.87.12a11.9,11.9,0,0,1,2.19.4A8,8,0,0,1,258,111a8.64,8.64,0,0,1,1.52,1.16q3.34,3,3.34,9.16a14.28,14.28,0,0,1-.87,5,10.56,10.56,0,0,1-2.37,3.83,8,8,0,0,1-1.48,1.18,7.48,7.48,0,0,1-1.77.75,12.18,12.18,0,0,1-2.2.4c-.82.08-1.78.12-2.87.12h-4.89v7.89h-5.31V109.73Zm-4.79,18.71h4.14q3.66,0,5.07-1.56,1.74-1.83,1.74-6,0-7-6.58-7h-4.37Z"/><path class="cls-2" d="M282.51,109.73h5.31v22.89h-11c-1.13,0-2.09,0-2.87-.12a9.83,9.83,0,0,1-2-.4,5.23,5.23,0,0,1-1.53-.77,7.46,7.46,0,0,1-1.27-1.25,7.32,7.32,0,0,1-1.36-2.7,15,15,0,0,1-.42-3.88V109.73h5.31v14a5.43,5.43,0,0,0,1,3.71,4.71,4.71,0,0,0,3.48,1h5.45Z"/><path class="cls-2" d="M305.54,109.73a14.3,14.3,0,0,1,4.94.73,7.72,7.72,0,0,1,3.33,2.37,9.53,9.53,0,0,1,1.88,3.48,14.62,14.62,0,0,1,.66,4.46q0,6.3-3.66,9.45a11.48,11.48,0,0,1-1.6,1.18,7,7,0,0,1-1.81.72,14.26,14.26,0,0,1-2.35.38c-.89.08-1.95.12-3.17.12h-9.54V101.27h5.31v8.46Zm-6,18.71h5q3.66,0,5-2.21a9.49,9.49,0,0,0,1.26-5.17q0-3.72-1.48-5.43c-1-1.15-2.56-1.72-4.72-1.72h-5.12Z"/></g></g></svg>