<svg xmlns="http://www.w3.org/2000/svg" viewBox="0 0 369.45 289.12"><defs><style>.cls-1{fill:#269bd8;}.cls-2{fill:#fff;}.cls-3{fill:none;stroke:#fff;stroke-miterlimit:10;stroke-width:5.91px;}</style></defs><title>logo_ADDcom</title><g id="Calque_2" data-name="Calque 2"><g id="Pland_de_travail_4" data-name="Pland de travail 4"><g id="mini_logo" data-name="mini logo"><path class="cls-1" d="M369.45,158.62a56.81,56.81,0,1,1-56.81-56.8A56.82,56.82,0,0,1,369.45,158.62Z"/><path class="cls-2" d="M294.79,155.44h-6.6q-3.29,0-4.69,1.51T282.09,162q0,3.71,2,5.31a4.29,4.29,0,0,0,1.68.84,11.33,11.33,0,0,0,2.73.25h6.31v3.74h-7.06a16,16,0,0,1-4.82-.58,7.34,7.34,0,0,1-3.07-2,9.69,9.69,0,0,1-1.9-3.28,12.48,12.48,0,0,1-.69-4.21q0-5.13,2.88-8a7.72,7.72,0,0,1,3-1.85,15.63,15.63,0,0,1,4.57-.54h7.06Z"/><path class="cls-2" d="M307.88,151.44c3.31,0,5.87.94,7.7,2.8s2.73,4.5,2.73,7.89a11.92,11.92,0,0,1-.73,4.31,8.76,8.76,0,0,1-2.13,3.24,9.56,9.56,0,0,1-3.36,2,13,13,0,0,1-4.46.72q-5.06,0-7.81-2.7c-1.84-1.79-2.75-4.33-2.75-7.61s.95-6,2.86-7.87S304.48,151.44,307.88,151.44Zm-.3,3.75a5,5,0,0,0-4.18,1.75,8.1,8.1,0,0,0-1.41,5.15,7.33,7.33,0,0,0,1.45,4.93,5.32,5.32,0,0,0,4.23,1.67q5.71,0,5.72-6.64a7.77,7.77,0,0,0-1.47-5.13A5.39,5.39,0,0,0,307.58,155.19Z"/><path class="cls-2" d="M342.75,151.7c1.1,0,2,0,2.78.06a10.82,10.82,0,0,1,1.94.25,5.37,5.37,0,0,1,1.36.51,4.82,4.82,0,0,1,1.08.82,5.6,5.6,0,0,1,1.49,2.39,12.44,12.44,0,0,1,.44,3.62v12.83h-4.75V159.73a4.91,4.91,0,0,0-.88-3.36,4.35,4.35,0,0,0-3.2-.93h-3.12v16.74h-4.75V155.44h-6.9v16.74h-4.75V151.7Z"/><path d="M282.23,182.33l-.77-.22a22.6,22.6,0,0,1-.71-42.89c.25-.08.51-.18.76-.25a6,6,0,0,0,3.67-5.54,5.15,5.15,0,0,0-.09-1c-.07-.31-.14-.62-.22-.93A126.16,126.16,0,1,0,286,189.8c.08-.34.15-.66.22-1a7.18,7.18,0,0,0,.06-.81A6,6,0,0,0,282.23,182.33Z"/><path class="cls-2" d="M98.79,162a34.61,34.61,0,0,0-.31-5.58,8.2,8.2,0,0,0-1.39-3.27,6.74,6.74,0,0,0-3.69-2.66,27.39,27.39,0,0,0-7.45-.73H58.32V139h29q4.6,0,7.87.3a32.17,32.17,0,0,1,5.64,1,13.9,13.9,0,0,1,4.06,1.82,15.76,15.76,0,0,1,3.15,2.84,17.23,17.23,0,0,1,3.51,6.79,45.51,45.51,0,0,1,1,10.78V198H80.73c-3,0-5.49,0-7.51-.12a32.57,32.57,0,0,1-5.09-.54,18.66,18.66,0,0,1-3.57-1.09,15.25,15.25,0,0,1-3-1.76q-6.42-5-6.42-14.18a20,20,0,0,1,2.48-10,14.66,14.66,0,0,1,6.73-6.3q4-2,13.93-1.94ZM79.44,172.81c-1.86,0-3.22,0-4.07.12a7.66,7.66,0,0,0-2.37.61q-3.9,1.58-3.9,6.66,0,3.88,2.37,5.45c1.59,1,4.24,1.58,8,1.58H98.79V172.81Z"/><path class="cls-2" d="M169.79,117.2h13.69V198h-26.9a67.66,67.66,0,0,1-7.45-.36,37.74,37.74,0,0,1-5.82-1.09,18.2,18.2,0,0,1-4.66-2,25.56,25.56,0,0,1-4-3.09,25,25,0,0,1-6-9.51,40.84,40.84,0,0,1,.55-27.51,24.66,24.66,0,0,1,7.63-10.35q6.54-5.1,18.66-5.09h14.3Zm0,32.59H157.5q-17,0-17,18.3,0,19.14,16.06,19.14h13.26Z"/><path class="cls-2" d="M241.64,117.2h13.69V198h-26.9a67.66,67.66,0,0,1-7.45-.36,37.74,37.74,0,0,1-5.82-1.09,18.2,18.2,0,0,1-4.66-2,23.44,23.44,0,0,1-10-12.6,40.84,40.84,0,0,1,.55-27.51,24.66,24.66,0,0,1,7.63-10.35q6.54-5.1,18.66-5.09h14.3Zm0,32.59H229.35q-17,0-17,18.3,0,19.14,16.06,19.14h13.26Z"/><path d="M4.93,207.71l18.43-12.8L1.19,191.44l-1-4.25,24.88-5.72.75,3.28L16.16,187,5.63,189.07l22,3.54.58,2.51L10,207.89l10.33-2.72L30,203l.76,3.28L5.9,211.94Z"/><path d="M24.4,165.55a6.75,6.75,0,0,1-2,.56A7.19,7.19,0,0,1,25,171.38a6.65,6.65,0,0,1-1.35,4.68,5.17,5.17,0,0,1-3.93,2,5.36,5.36,0,0,1-4.71-2,10.69,10.69,0,0,1-2-6.25l-.16-3.15-1.48.08a3.62,3.62,0,0,0-2.66,1.15,4.09,4.09,0,0,0-.86,3,4.73,4.73,0,0,0,1,2.86,2.58,2.58,0,0,0,2.18,1.07l.16,3.26a4.59,4.59,0,0,1-2.79-.87,7,7,0,0,1-2.22-2.63,8.93,8.93,0,0,1-1-3.75,7.49,7.49,0,0,1,1.38-5.21,5.88,5.88,0,0,1,4.41-2.15l8.72-.44a10.77,10.77,0,0,0,4.11-.87l.28,0Zm-2.2,5.5a5.67,5.67,0,0,0-.93-2.85,4.83,4.83,0,0,0-2.15-1.88l-3.88.2.12,2.54c.2,4,1.46,5.89,3.78,5.77a2.91,2.91,0,0,0,2.33-1.13A3.87,3.87,0,0,0,22.2,171.05Z"/><path d="M1.2,152.86l4.59.26.2-3.54,2.5.14-.2,3.54,11.76.66a2.58,2.58,0,0,0,1.73-.38,2,2,0,0,0,.66-1.57,8.23,8.23,0,0,0-.12-1.56l2.61.15a9.91,9.91,0,0,1,.21,2.51,4,4,0,0,1-1.5,3.19,5.63,5.63,0,0,1-3.79.9L8.11,156.5,7.91,160l-2.5-.15.2-3.44L1,156.1Z"/><path d="M0,134.4l.63-3.88L5,136l-.43,2.57ZM26.73,140a8.33,8.33,0,0,1-3.51,5.78A9.39,9.39,0,0,1,16.14,147l-.59-.09a11.52,11.52,0,0,1-4.8-1.88,8.52,8.52,0,0,1-2.94-3.53,7.67,7.67,0,0,1-.56-4.35,7.11,7.11,0,0,1,3.34-5.28c1.82-1.09,4.23-1.39,7.21-.9l1.33.22L17.06,143.9A6.77,6.77,0,0,0,21.8,143a5.18,5.18,0,0,0,2.35-3.65,5.63,5.63,0,0,0-.23-3A7.3,7.3,0,0,0,22.43,134l1.84-1.7A8,8,0,0,1,26.73,140ZM9.88,137.61a4.31,4.31,0,0,0,.88,3.48,7,7,0,0,0,3.69,2.28L16,134l-.24,0a6.21,6.21,0,0,0-4,.7A4.05,4.05,0,0,0,9.88,137.61Z"/><path d="M15.42,116.68a9.88,9.88,0,0,0-.55,1.51,4.28,4.28,0,0,0,1.46,4.9l13,3.59-.87,3.12-18.28-5.06.85-3,2.12.54a5.06,5.06,0,0,1-1.24-5,3.38,3.38,0,0,1,.62-1.32Z"/><path d="M9.12,110.7A2,2,0,0,1,8,109.8a2.17,2.17,0,0,1,1-2.7,1.93,1.93,0,0,1,1.42,0,1.77,1.77,0,0,1,1.09,2.44,1.86,1.86,0,0,1-1,1.17A1.88,1.88,0,0,1,9.12,110.7Zm23.79,4.75-1.09,3L14,112.14,15,109.08Z"/><path d="M39.31,100.68a6.52,6.52,0,0,1-2-.44,7.23,7.23,0,0,1-.18,5.89,6.69,6.69,0,0,1-3.39,3.49,5.16,5.16,0,0,1-4.41-.09,5.36,5.36,0,0,1-3.2-4,10.62,10.62,0,0,1,1.22-6.43l1.34-2.85-1.35-.64a3.63,3.63,0,0,0-2.88-.23,4.09,4.09,0,0,0-2.19,2.28,4.8,4.8,0,0,0-.45,3,2.58,2.58,0,0,0,1.42,2l-1.39,3a4.45,4.45,0,0,1-2.05-2.08,6.81,6.81,0,0,1-.73-3.36A9.28,9.28,0,0,1,20,96.37a7.47,7.47,0,0,1,3.67-3.94,5.9,5.9,0,0,1,4.9.17l7.9,3.72a10.85,10.85,0,0,0,4,1.17l.26.12Zm-4.53,3.82a5.59,5.59,0,0,0,.52-3,4.78,4.78,0,0,0-1-2.67l-3.52-1.66-1.08,2.3q-2.55,5.4.61,6.88a2.93,2.93,0,0,0,2.59.1A3.9,3.9,0,0,0,34.78,104.5Z"/><path d="M44.52,91.51l-1.66,2.78L19.73,80.51l1.66-2.79Z"/><path d="M27.17,74.09a1.89,1.89,0,0,1-.83-1.15,1.8,1.8,0,0,1,.35-1.49A1.83,1.83,0,0,1,28,70.57a1.9,1.9,0,0,1,1.37.34,2,2,0,0,1-.8,3.52A1.87,1.87,0,0,1,27.17,74.09ZM49,84.68l-1.83,2.68L31.48,76.7,33.3,74Z"/><path d="M54.62,69.24a2.37,2.37,0,0,0-2.2-.53,9.54,9.54,0,0,0-3.17,1.86,16.31,16.31,0,0,1-3.46,2.21,5.51,5.51,0,0,1-2.71.53,4.18,4.18,0,0,1-2.31-1,4.92,4.92,0,0,1-1.78-4,7.68,7.68,0,0,1,2-4.91,7.89,7.89,0,0,1,4.62-3,5.27,5.27,0,0,1,4.56,1.16l-2.08,2.52a2.88,2.88,0,0,0-2.49-.59A4.21,4.21,0,0,0,43,65.06a4.33,4.33,0,0,0-1.17,2.63,2.44,2.44,0,0,0,.91,2,2,2,0,0,0,2,.41,11.22,11.22,0,0,0,3-1.86,17.35,17.35,0,0,1,3.5-2.21,5.78,5.78,0,0,1,2.83-.57,4.46,4.46,0,0,1,2.45,1.09,4.85,4.85,0,0,1,1.85,4.16,8.5,8.5,0,0,1-2.18,5A9.58,9.58,0,0,1,53,78.4a6.49,6.49,0,0,1-3.48.68,5.34,5.34,0,0,1-3-1.23l2.06-2.5a3.36,3.36,0,0,0,2.83.64,5,5,0,0,0,2.78-1.87,5.25,5.25,0,0,0,1.31-2.75A2.3,2.3,0,0,0,54.62,69.24Z"/><path d="M68.8,62.48a8.28,8.28,0,0,1-6.31,2.44,9.37,9.37,0,0,1-6.4-3.3l-.41-.44A11.44,11.44,0,0,1,53,56.77a8.5,8.5,0,0,1-.17-4.6,7.65,7.65,0,0,1,2.21-3.78,7.15,7.15,0,0,1,5.87-2.15c2.11.26,4.19,1.49,6.26,3.7l.92,1L58.74,59.7A6.77,6.77,0,0,0,63,61.89a5.14,5.14,0,0,0,4.09-1.46,5.63,5.63,0,0,0,1.65-2.5A7.35,7.35,0,0,0,69,55.15l2.5-.23A8,8,0,0,1,68.8,62.48ZM56.89,50.34a4.34,4.34,0,0,0-1.43,3.29,6.93,6.93,0,0,0,1.53,4l6.94-6.49L63.77,51a6.18,6.18,0,0,0-3.59-1.88A4.07,4.07,0,0,0,56.89,50.34Z"/><path d="M85.81,43.43,82,28.61l2.8-1.78,4.43,19.66-2.08,1.33-16-12.33,2.8-1.78Z"/><path d="M91.75,33.55a11.19,11.19,0,0,1-1.13-5,8,8,0,0,1,4.85-7.38,8,8,0,0,1,6.81-.22,10.27,10.27,0,0,1,5.18,5.45l.1.21a11.29,11.29,0,0,1,1.14,4.95,8,8,0,0,1-1.3,4.39,8.46,8.46,0,0,1-3.59,3,8,8,0,0,1-6.79.21,10.3,10.3,0,0,1-5.17-5.42Zm3.12-1a8.06,8.06,0,0,0,3.47,4,4.94,4.94,0,0,0,7.09-3.34,8.84,8.84,0,0,0-1-5.53,8.12,8.12,0,0,0-3.48-4,4.73,4.73,0,0,0-4.39-.09,4.66,4.66,0,0,0-2.7,3.37A8.84,8.84,0,0,0,94.87,32.52Z"/><path d="M111.23,10.34l1.47,4.35,3.35-1.13.8,2.38-3.35,1.13,3.75,11.16a2.68,2.68,0,0,0,1,1.47,2,2,0,0,0,1.71,0,7.94,7.94,0,0,0,1.39-.69l.84,2.47a9.31,9.31,0,0,1-2.25,1.13,4.08,4.08,0,0,1-3.53-.2,5.67,5.67,0,0,1-2.23-3.19l-3.76-11.14-3.27,1.1-.8-2.38,3.27-1.1-1.46-4.35Z"/><path d="M130.12,12.93a9.62,9.62,0,0,0-1.58.26A4.27,4.27,0,0,0,125,16.87l3.23,13.07-3.15.78L120.52,12.3l3.06-.75.58,2.11a5,5,0,0,1,3.78-3.55,3.33,3.33,0,0,1,1.45-.11Z"/><path d="M143.59,27.37A8.3,8.3,0,0,1,137,25.72a9.49,9.49,0,0,1-3.32-6.39l-.08-.59A11.5,11.5,0,0,1,134,13.6a8.43,8.43,0,0,1,2.52-3.85,7.6,7.6,0,0,1,4-1.81,7.08,7.08,0,0,1,6,1.63c1.58,1.42,2.57,3.63,3,6.63l.18,1.34L137,19.29a6.76,6.76,0,0,0,2.24,4.27,5.18,5.18,0,0,0,4.19,1.16,5.66,5.66,0,0,0,2.79-1.09A7.46,7.46,0,0,0,148,21.51l2.17,1.26A8,8,0,0,1,143.59,27.37Zm-2.71-16.79a4.33,4.33,0,0,0-3.07,1.86,7,7,0,0,0-1.09,4.2l9.41-1.3,0-.24a6.16,6.16,0,0,0-1.84-3.61A4.05,4.05,0,0,0,140.88,10.58Z"/><path d="M165.71,25.9l-3.24-.06.34-19,3.24,0ZM162.63,1.84a1.94,1.94,0,0,1,.51-1.32,2.15,2.15,0,0,1,2.86,0,1.87,1.87,0,0,1,.47,1.34A1.88,1.88,0,0,1,166,3.22a2.22,2.22,0,0,1-2.87-.05A1.91,1.91,0,0,1,162.63,1.84Z"/><path d="M175.94,7.2l-.24,2.09a7,7,0,0,1,5.94-1.55c2.62.41,4.25,1.7,4.88,3.85a7.23,7.23,0,0,1,2.77-1.8A7.44,7.44,0,0,1,193,9.52q6.17,1,5.24,7.52l-2,12.55-3.2-.5L195,16.72a4.3,4.3,0,0,0-.44-3.15,4.1,4.1,0,0,0-2.93-1.48,4.29,4.29,0,0,0-3.12.6,4.35,4.35,0,0,0-1.82,2.65l-2,12.43-3.22-.5L183.41,15c.43-2.72-.69-4.3-3.36-4.72a4.34,4.34,0,0,0-4.73,2L173.17,26,170,25.45l2.95-18.73Z"/><path d="M210.71,34.83a6.78,6.78,0,0,1,.23-2,7.2,7.2,0,0,1-5.87.45,6.63,6.63,0,0,1-3.83-3,5.12,5.12,0,0,1-.38-4.39,5.38,5.38,0,0,1,3.64-3.61,10.63,10.63,0,0,1,6.52.53l3,1,.49-1.41a3.64,3.64,0,0,0-.07-2.89,4.08,4.08,0,0,0-2.51-1.94,4.67,4.67,0,0,0-3-.12,2.57,2.57,0,0,0-1.81,1.62L204,18a4.45,4.45,0,0,1,1.85-2.26,6.87,6.87,0,0,1,3.27-1.09,9.21,9.21,0,0,1,3.84.52,7.45,7.45,0,0,1,4.32,3.23,5.94,5.94,0,0,1,.34,4.9l-2.86,8.24a10.76,10.76,0,0,0-.73,4.15l-.09.26Zm-4.27-4.1a5.71,5.71,0,0,0,3,.2A4.79,4.79,0,0,0,212,29.64L213.25,26l-2.4-.84q-5.64-1.95-6.78,1.35a3,3,0,0,0,.18,2.58A4,4,0,0,0,206.44,30.73Z"/><path d="M220.74,28.35a11.15,11.15,0,0,1,5-5.36,7.08,7.08,0,0,1,9.74,4.78l1.1-1.8,2.64,1.35-8.41,16.49A7.73,7.73,0,0,1,226.26,48a8,8,0,0,1-6.19-.77,9.77,9.77,0,0,1-3.18-2.6,6.94,6.94,0,0,1-1.58-3.51l2.39-1a6.31,6.31,0,0,0,3.37,4.61,5,5,0,0,0,3.89.49,5.1,5.1,0,0,0,2.88-2.74l.74-1.45a6.68,6.68,0,0,1-5.75-.42,6.49,6.49,0,0,1-3.58-4.84A11.72,11.72,0,0,1,220.74,28.35Zm2.73,1.8a8.5,8.5,0,0,0-1.11,5.09,4.27,4.27,0,0,0,2.44,3.31,4.77,4.77,0,0,0,5.28-.44L234,30.4a4.82,4.82,0,0,0-2.75-4.46,4.33,4.33,0,0,0-4.13,0A9.32,9.32,0,0,0,223.47,30.15Z"/><path d="M240.22,51a8.29,8.29,0,0,1-3.71-5.66,9.4,9.4,0,0,1,1.88-6.95l.34-.49a11.29,11.29,0,0,1,3.76-3.52A8.45,8.45,0,0,1,247,33.28a7.6,7.6,0,0,1,4.16,1.37,7.1,7.1,0,0,1,3.33,5.28q.3,3.16-2.3,6.9l-.76,1.11-10.56-7.33a6.73,6.73,0,0,0-1.24,4.65A5.19,5.19,0,0,0,241.87,49,5.6,5.6,0,0,0,244.66,50a7.21,7.21,0,0,0,2.78-.34l.74,2.4A8,8,0,0,1,240.22,51Zm9.37-14.2a4.33,4.33,0,0,0-3.52-.7,6.88,6.88,0,0,0-3.64,2.35l7.8,5.42.14-.2a6.18,6.18,0,0,0,1.09-3.91A4.07,4.07,0,0,0,249.59,36.83Z"/></g><line class="cls-3" x1="259.45" y1="163.31" x2="273.45" y2="163.31"/></g></g></svg>