<svg xmlns="http://www.w3.org/2000/svg" viewBox="0 0 332.86 252.24"><defs><style>.cls-1{fill:#269bd8;}.cls-2{fill:#fff;}.cls-3{fill:none;stroke:#fff;stroke-miterlimit:10;stroke-width:5.91px;}</style></defs><title>logo_ADDcom_mini</title><g id="Calque_2" data-name="Calque 2"><g id="Pland_de_travail_4" data-name="Pland de travail 4"><g id="mini_logo" data-name="mini logo"><path class="cls-1" d="M332.86,121.74a56.81,56.81,0,1,1-56.81-56.8A56.81,56.81,0,0,1,332.86,121.74Z"/><path class="cls-2" d="M258.21,118.56H251.6c-2.18,0-3.75.51-4.69,1.52s-1.41,2.7-1.41,5.09.66,4.23,2,5.3a4.43,4.43,0,0,0,1.68.84,11.42,11.42,0,0,0,2.74.25h6.31v3.75h-7.07a15.9,15.9,0,0,1-4.81-.59,7.18,7.18,0,0,1-3.08-2,9.86,9.86,0,0,1-1.9-3.28,12.69,12.69,0,0,1-.68-4.21q0-5.13,2.87-8a7.57,7.57,0,0,1,3-1.85,15.13,15.13,0,0,1,4.56-.55h7.07Z"/><path class="cls-2" d="M271.29,114.57q5,0,7.7,2.79c1.82,1.87,2.74,4.5,2.74,7.89a11.91,11.91,0,0,1-.74,4.31,8.74,8.74,0,0,1-2.12,3.24,9.32,9.32,0,0,1-3.37,2,13,13,0,0,1-4.46.72c-3.36,0-6-.9-7.8-2.69s-2.76-4.34-2.76-7.62.95-6,2.86-7.87S267.9,114.57,271.29,114.57Zm-.29,3.74a5.06,5.06,0,0,0-4.19,1.76,8.05,8.05,0,0,0-1.41,5.14,7.36,7.36,0,0,0,1.45,4.93,5.29,5.29,0,0,0,4.23,1.67q5.73,0,5.73-6.64a7.72,7.72,0,0,0-1.48-5.12A5.35,5.35,0,0,0,271,118.31Z"/><path class="cls-2" d="M306.17,114.82c1.09,0,2,0,2.78.06a11.68,11.68,0,0,1,1.93.25,5.6,5.6,0,0,1,1.37.51,4.77,4.77,0,0,1,1.07.82,5.57,5.57,0,0,1,1.49,2.4,12,12,0,0,1,.45,3.62v12.83H310.5V122.85a4.89,4.89,0,0,0-.88-3.36,4.35,4.35,0,0,0-3.2-.93h-3.11v16.75h-4.76V118.56h-6.9v16.75H286.9V114.82Z"/><path d="M245.65,145.45l-.78-.22a22.59,22.59,0,0,1-.71-42.88l.77-.26a6,6,0,0,0,3.66-5.54,5.23,5.23,0,0,0-.09-1c-.07-.31-.14-.62-.22-.92a126.13,126.13,0,1,0,1.1,58.26l.21-1a5.32,5.32,0,0,0,.06-.81A6,6,0,0,0,245.65,145.45Z"/><path class="cls-2" d="M62.2,125.15a36,36,0,0,0-.3-5.57,8.34,8.34,0,0,0-1.39-3.27,6.69,6.69,0,0,0-3.7-2.67,27.75,27.75,0,0,0-7.45-.73H21.73V102.13h29q4.61,0,7.88.3a31.88,31.88,0,0,1,5.63,1,13.92,13.92,0,0,1,4.06,1.82,16.13,16.13,0,0,1,3.15,2.85,16.94,16.94,0,0,1,3.51,6.78,45.56,45.56,0,0,1,1,10.78v35.51H44.15c-3,0-5.5,0-7.51-.13a32.43,32.43,0,0,1-5.09-.54A17.88,17.88,0,0,1,28,159.38a14.7,14.7,0,0,1-3-1.76q-6.44-5-6.43-14.17a19.94,19.94,0,0,1,2.49-10.06,14.59,14.59,0,0,1,6.72-6.3q4-1.94,13.94-1.94ZM42.86,135.93c-1.87,0-3.23,0-4.08.12a8,8,0,0,0-2.37.61c-2.6,1.05-3.89,3.27-3.89,6.66q0,3.88,2.37,5.46t8,1.57H62.2V135.93Z"/><path class="cls-2" d="M133.2,80.32h13.7v80.82H120a67.64,67.64,0,0,1-7.46-.37,36.45,36.45,0,0,1-5.81-1.09,17.93,17.93,0,0,1-4.67-2,26,26,0,0,1-4-3.09,25,25,0,0,1-6-9.51,37.31,37.31,0,0,1-2.12-13,37.88,37.88,0,0,1,2.66-14.48,24.72,24.72,0,0,1,7.64-10.36q6.54-5.09,18.66-5.09H133.2Zm0,32.59H120.91q-17,0-17,18.3,0,19.14,16.06,19.14H133.2Z"/><path class="cls-2" d="M205.05,80.32h13.69v80.82H191.85a67.64,67.64,0,0,1-7.46-.37,36.24,36.24,0,0,1-5.81-1.09,17.93,17.93,0,0,1-4.67-2,26,26,0,0,1-4-3.09,25,25,0,0,1-6-9.51,37.31,37.31,0,0,1-2.12-13,37.69,37.69,0,0,1,2.66-14.48,24.72,24.72,0,0,1,7.64-10.36q6.54-5.09,18.66-5.09h14.29Zm0,32.59H192.76q-17,0-17,18.3,0,19.14,16.06,19.14h13.26Z"/></g><line class="cls-3" x1="222.86" y1="126.44" x2="236.86" y2="126.44"/></g></g></svg>