<svg xmlns="http://www.w3.org/2000/svg" viewBox="0 0 296.52 277.47"><defs><style>.cls-1,.cls-2,.cls-3{fill:none;stroke:#fff;stroke-miterlimit:10;}.cls-1,.cls-3{stroke-width:2.35px;}.cls-2{stroke-width:0.94px;}.cls-3{stroke-linecap:round;}</style></defs><title>methodes_conception</title><g id="Calque_2" data-name="Calque 2"><g id="Pland_de_travail_4" data-name="Pland de travail 4"><path class="cls-1" d="M294.2,114.13H265a3.14,3.14,0,0,0-1.41.33s-5.71,3.79-6.45,3.06,2.66-7.11,2.66-7.11a4,4,0,0,0-1.94-3.12c-2-1.33-4.22.82-4.22.82l-10.79,28.8a6.2,6.2,0,0,1-2,2.72l-19.47,15.63-1.67-2.08a9.83,9.83,0,0,1,1.51-13.82l9.73-7.83a3.39,3.39,0,0,0,1-1.44l8.18-22.34a6.74,6.74,0,0,0-2.43-3.24c-1.71-1.06-3.76,1-3.76,1L226.12,127s-7.73,7.28-8.56,6.88,0-59.25,0-59.25H294.2m0-6.58H217.55V23.56a3.29,3.29,0,0,0-3.29-3.29H208V4.47a3.29,3.29,0,1,0-6.58,0v15.8h-6.26a3.29,3.29,0,0,0-3.29,3.29v6.25h-4.46a9.88,9.88,0,0,0-9.85,9.86V61.74a3.29,3.29,0,1,0,6.58,0V39.67a3.26,3.26,0,0,1,3.27-3.27h4.46V74.75L161.94,106.2A12.78,12.78,0,0,0,160.11,121l-2.33,2.44a12.81,12.81,0,0,0-.17,17.27L191,178.27a3.29,3.29,0,0,0,4.64.28l6,17.92a3.29,3.29,0,0,0,4.15,2.1,3.24,3.24,0,0,0,2.1-2.1l9.55-28.64a3,3,0,0,0,.15-1s0-.06,0-.09V161l.76.95a3.28,3.28,0,0,0,2.21,1.21h.36a3.27,3.27,0,0,0,2.06-.72L245,144.74a12.78,12.78,0,0,0,4-5.58l4.8-12.79,11.91-5.66H294.2M162.53,136.37a6.23,6.23,0,0,1,.05-8.37l1.67-1.74,27.62,31.07v9.42s0,.06,0,.09a3.43,3.43,0,0,0,.15.95l1,2.83Zm4.15-17.27a6.22,6.22,0,0,1,.07-8.39h0L191.87,84.3v18.17l-10,10.3a3.29,3.29,0,0,0-.09,4.48L196.7,134a15.82,15.82,0,0,1,.93,19.86Zm25.19-7.18v6.75l-3.13-3.52ZM204.71,185l-5-14.94h10ZM211,163.46H198.46v-1.55a3.35,3.35,0,0,0,1.32-.66,22.38,22.38,0,0,0,1.85-31.6l-3.16-3.56V26.85H211Z"/><path class="cls-2" d="M.15,273.57c3.13,1.06,6.26,2.1,9.45,2.95,4,1.06,15.69.65,23-4s-9.72-.29-14.67-2.29c.88-1.56,1.63-3,2.5-4.34.17-.27.81-.37,1.21-.33,3.73.3,7.46.69,11.19,1l14.66-2c7.32-1.53,13.64-5.09,19.66-9.42-2.39.39-4.77.75-7.15,1.16-6.85,1.18-13.75,2-20.65.82-4.46-.75-8.83-2.05-13.23-3.15-.33-.08-.86-.58-.82-.77.37-1.51.83-3,1.34-4.47.06-.18.66-.33.95-.25,3.12.79,6.2,1.77,9.34,2.42,4.62,1,9.24,1.82,14,.92,4.29-.8,8.66-1.15,13-1.8,3.95-.6,7.88-1.38,11.83-2a30.42,30.42,0,0,0,10.12-3.4,6.76,6.76,0,0,0,.91-.77L80.4,241.5c-4.85-1.71-9.71-3.43-14.57-5.12-2.28-.79-4.55-1.56-6.85-2.29-1.82-.58-2.38-1.32-2-2.86.45-1.94,1.87-3,3.59-2.49,2.74.83,5.44,1.82,8.16,2.74,4.6,1.55,9.23,3.06,13.82,4.68s9.34,3.43,14,5.11c3.65,1.3,7.34,2.47,11,3.83a46.31,46.31,0,0,0,18.7,3.14,28,28,0,0,0,12-3c2.28-1.21,4.76-2,6.93-3.42a7,7,0,0,0,3.3-6c0-1.44-.38-2.29-2.15-2.23a102.83,102.83,0,0,1-10.68,0,15.63,15.63,0,0,1-5.36-1.47c-7-3.23-14-6.58-21-10-5.52-2.66-11-5.44-16.49-8.11-4.12-2-8.29-3.89-12.43-5.85s-8-3.84-12-5.76c-4.67-2.25-9.34-4.53-14-6.77-3-1.43-2.3-2.58-1.53-4.22s3.67-1.18,6,0c4.73,2.27,9.44,4.59,14.16,6.87,5.48,2.64,10.83,5.6,16.48,7.8,4.64,1.8,9.72,1.82,14.72,1.69,3.48-.08,6.85-.57,9.7-2.68a10.39,10.39,0,0,0,3-3.49c1-1.93,0-3.87-2.34-5-7.11-3.57-21.77-10.78-22.11-10.88,0,0-30.23-15.73-39.82-17.71-5.57-1.15-31-.8-52.51-.08"/><path class="cls-2" d="M.15,270.59c3.34,1.13,6.77,2.29,10.17,3.2a19.16,19.16,0,0,0,4.27.39,39.81,39.81,0,0,0,6.83-.61,13.34,13.34,0,0,1-4.57-.76,2.83,2.83,0,0,1-1.4-4l.67-1.19c.63-1.14,1.22-2.21,1.91-3.29a4.06,4.06,0,0,1,3.43-1.63h.39c1.63.13,3.25.28,4.87.43,2,.18,4,.36,6,.52l14.26-2a36.45,36.45,0,0,0,5.35-1.55c-1.91.18-3.89.29-5.9.29a44.9,44.9,0,0,1-7.57-.61c-3.39-.57-6.72-1.44-9.94-2.28-1.17-.31-2.34-.62-3.51-.91-1.49-.37-3.38-2.07-2.87-4.17.37-1.53.84-3.08,1.41-4.74a3.52,3.52,0,0,1,3.44-2.16,3.65,3.65,0,0,1,.88.1c1.16.3,2.33.62,3.46.93,2,.55,3.85,1.07,5.75,1.46a45.77,45.77,0,0,0,9.25,1.24,20,20,0,0,0,3.7-.32c2.64-.5,5.31-.82,7.9-1.14,1.71-.21,3.47-.43,5.18-.68,2.13-.33,4.32-.72,6.43-1.09,1.75-.31,3.57-.64,5.37-.92a31.09,31.09,0,0,0,4.2-1l-4.15-1.45L64.9,239c-2.59-.9-4.74-1.62-6.77-2.26-1.87-.59-4.86-2.19-3.92-6.2.68-2.91,2.84-4.79,5.49-4.79a5.68,5.68,0,0,1,1.67.25c2,.6,3.92,1.27,5.8,1.93l2.44.83,4.27,1.43c3.14,1.06,6.39,2.14,9.58,3.27,2.66.93,5.34,1.92,7.94,2.88,2,.75,4.07,1.5,6.11,2.23,1.48.53,3,1,4.49,1.56,2.13.72,4.34,1.47,6.5,2.29a43.89,43.89,0,0,0,15.69,3c.62,0,1.26,0,1.88-.05a25.21,25.21,0,0,0,10.84-2.69c1-.53,2-1,3-1.43a30.88,30.88,0,0,0,3.73-1.87,4.09,4.09,0,0,0,1.93-3c-1.88.06-3.46.09-4.92.09-1.88,0-3.59-.05-5.21-.15a18.59,18.59,0,0,1-6.35-1.72c-7.31-3.36-14.69-6.91-21-10-2.86-1.39-5.74-2.82-8.53-4.2-2.61-1.3-5.3-2.63-8-3.92-2.46-1.19-5-2.37-7.42-3.51l-5-2.33L67.91,205.3l-.78-.38-5.48-2.65c-2.84-1.37-5.69-2.75-8.54-4.11-5.42-2.59-3.62-6.37-3-7.8l.09-.18A4.94,4.94,0,0,1,55,187.5a12.58,12.58,0,0,1,5.07,1.29q4.08,2,8.16,4l6,2.92c1.62.78,3.25,1.6,4.82,2.39,3.72,1.87,7.58,3.81,11.45,5.32a29.65,29.65,0,0,0,10.66,1.55c1.08,0,2.15,0,3-.05,3.83-.09,6.18-.71,8.09-2.13a7.46,7.46,0,0,0,2.2-2.5c.09-.16.07-.21.06-.24a2.26,2.26,0,0,0-1.15-1c-7.14-3.59-20.76-10.28-21.89-10.78l-.26-.12c-.29-.15-30-15.56-39.08-17.44-1.24-.26-5.21-.69-17.74-.69-10.23,0-22.81.28-34.2.66"/><path class="cls-3" d="M194.85,190.89H115.46c3.88,2.48,4,1.84,6.18,4.89s1.08,8.49-.85,10.28-15.33,6.59-17.28,6.76c2.15,1.06,4.07,2,6,3,5.81,2.78,11.64,5.53,17.45,8.32,2.27,1.09,4.49,2.28,6.79,3.3a5.75,5.75,0,0,0,2.28.25c49.5.12,155.38.34,158.82.34a2.55,2.55,0,0,1,.13-.29l-75.31-36.14a6.87,6.87,0,0,0-2.89-.66h-3.13"/></g></g></svg>