<svg xmlns="http://www.w3.org/2000/svg" viewBox="0 0 288.88 275.41"><defs><style>.cls-1,.cls-2,.cls-3{fill:none;stroke:#fff;stroke-miterlimit:10;}.cls-1{stroke-width:1.41px;}.cls-2{stroke-width:2.35px;}.cls-3{stroke-width:1.68px;}</style></defs><title>methodes_identification</title><g id="Calque_2" data-name="Calque 2"><g id="Pland_de_travail_4" data-name="Pland de travail 4"><path class="cls-1" d="M167.06,195.12a10.55,10.55,0,0,1-4.49-1.66c-2.32-1.49-4.59-3.06-6.87-4.62a10.47,10.47,0,0,0-5.95-2c-3.55,0-7.09,0-10.64,0-.5,0-2.66,0-2.91,0a6.49,6.49,0,0,0-4.57,1.76l-16.76,14.15c-1.4,1.19-2.84,2.34-4.2,3.58a1.74,1.74,0,0,0,.48,3.06,9.11,9.11,0,0,0,2.83.78,21.77,21.77,0,0,0,8.61-.76,23.36,23.36,0,0,0,3.86-1.73c1.64-.87,3.22-1.85,4.82-2.81A2.46,2.46,0,0,1,134,205c4.26,2.58,8.55,5.12,12.83,7.69L157.42,219l10.41,6.22,12.22,7.34c2.22,1.33,4.44,2.65,6.65,4a8.13,8.13,0,0,1,3.42,8,8.13,8.13,0,0,1-12,5.72c-.26-.14-.53-.25-.9-.43.25,3.5-.94,6.26-3.89,8.05s-6,1.48-9-.3c.13,3.54-1,6.35-4,8.1s-6,1.44-9-.39c0,.59,0,1.05,0,1.51a7.6,7.6,0,0,1-4.47,6.91,8.1,8.1,0,0,1-8.26-.54c-1-.59-1.91-1.21-2.9-1.76-.5-.28-.76-.47-.3-1a9.21,9.21,0,0,0,.87-1.41c.21-.37.43-.39.79-.18,1.26.77,2.51,1.56,3.81,2.26a4.81,4.81,0,0,0,5.24-.26,5.15,5.15,0,0,0-.11-8.72c-.85-.54-1.72-1-2.58-1.56a1.51,1.51,0,0,1-.57-2.1,1.55,1.55,0,0,1,2.1-.4c3,1.78,6,3.63,9,5.33a5.15,5.15,0,0,0,7.11-2.76,5.36,5.36,0,0,0-2.54-6.58c-1.51-.84-3-1.81-4.48-2.65a1.65,1.65,0,0,1-.58-2.29c.54-.69,2.52,0,2.85.22l10.12,6.08a5.2,5.2,0,0,0,7.8-5.62,5.52,5.52,0,0,0-2.77-3.51q-3.57-2.1-7.11-4.25a1.63,1.63,0,0,1-.78-2.31c.69-1.21,2.18-.25,3,.26l3.65,2.18c3.1,1.86,6.2,3.73,9.31,5.58a5.1,5.1,0,0,0,6-.63,5.18,5.18,0,0,0,1.43-5.62,6.48,6.48,0,0,0-3.27-3.37c-3.37-2-6.71-4-10.08-6L161.59,225c-3.07-1.83-6.12-3.69-9.18-5.52q-7.65-4.59-15.32-9.16c-1.19-.71-2.39-1.42-3.56-2.16a1.58,1.58,0,0,0-1.84,0c-2,1.16-4,2.33-6.12,3.37a17.76,17.76,0,0,1-7.42,1.68,42.87,42.87,0,0,1-4.94-.09,7.48,7.48,0,0,1-4.57-1.83,4.7,4.7,0,0,1,.22-7.22c3.36-2.79,6.68-5.61,10-8.43,3.75-3.15,7.48-6.32,11.24-9.46a9.19,9.19,0,0,1,6-2.18c4.52,0,9,0,13.55,0a14.34,14.34,0,0,1,8.36,2.9c2,1.45,4.09,2.91,6.24,4.17a10.82,10.82,0,0,0,7,1.36,1.33,1.33,0,0,1,1.45.55,11.09,11.09,0,0,0,1,1.23c.34.38.21.58-.2.77C173,195.21,168.11,195.12,167.06,195.12Z"/><path class="cls-1" d="M127.91,185.45c-1,.8-1.78,1.49-2.63,2.16-.07.07-.25,0-.36,0A5.21,5.21,0,0,0,120,188.7c-2.08,1.52-4.17,3-6.34,4.38a14.77,14.77,0,0,1-9.78,2.2,15.32,15.32,0,0,1-6.36-2.22,3.8,3.8,0,0,1-.36-.26c.37-.74.72-1.5,1.13-2.22.06-.11.44-.15.61-.07,1,.45,2,1,3.09,1.4a11.71,11.71,0,0,0,6.16.3c2.77-.54,4.9-2.26,7.15-3.79,1.52-1,3-2.12,4.58-3.07a7.39,7.39,0,0,1,6.1-.47Z"/><path class="cls-1" d="M87.09,234l-1.18,2.07a9.7,9.7,0,0,1-.38-1.06,8,8,0,0,0-4-5.4l-1.5-.87a.61.61,0,0,1-.28-.91c.27-.52.51-1,.77-1.55.13-.26.28-.52.64-.31,1.81,1.09,4.08,2.37,5,3.78S87.47,233.37,87.09,234Z"/><path class="cls-1" d="M138.12,254.54a7.7,7.7,0,0,0-6.51-4.38c-.76-.06-1.53,0-2.37,0a8.15,8.15,0,0,0-10-10.12c-.15-1-.23-1.92-.45-2.82a8.07,8.07,0,0,0-13-4.15c-.36.3-.6.23-.78-.2a6,6,0,0,0-.4-.8,8.32,8.32,0,0,0-8-4.11,6.87,6.87,0,0,0-5.82,3.47c-1.95,3.34-3.83,6.72-5.76,10.08a7.27,7.27,0,0,0,0,7.7,8.23,8.23,0,0,0,5.81,4.12,9.36,9.36,0,0,0,3.58-.08c.5-.1.62.08.66.55a9.23,9.23,0,0,0,3.25,5.83c2,1.44,6.46,1.65,8.21.8.4-.2.51-.08.62.3a12.3,12.3,0,0,0,.72,2,7.66,7.66,0,0,0,5,4.07,8.2,8.2,0,0,0,5.72-.46c.36-.16.47-.1.56.29a7.94,7.94,0,0,0,.53,1.65,8.12,8.12,0,0,0,14.19,1c1.17-2,2.29-4.1,3.43-6.16a13.55,13.55,0,0,0,1.13-2A8,8,0,0,0,138.12,254.54ZM96.4,248.45A4.65,4.65,0,0,1,91,250.37,5.61,5.61,0,0,1,87.25,247a10.07,10.07,0,0,1-.35-1.63A5.53,5.53,0,0,1,88,242.37q1.86-3.3,3.74-6.58c.55-1,1.07-1.95,1.65-2.9A4.7,4.7,0,0,1,98.48,231a5.44,5.44,0,0,1,4.36,5.24,5.26,5.26,0,0,1-.69,2.17C100.27,241.75,98.37,245.12,96.4,248.45Zm11.42,7a4.81,4.81,0,0,1-3.53,2.82,5.45,5.45,0,0,1-4.87-1.29c-1.82-1.53-1.67-4.34-.63-6.67s4.28-7.55,6.44-11.31a13.22,13.22,0,0,1,2.36-3.56,5.18,5.18,0,0,1,8.12,1.74,5.5,5.5,0,0,1-.54,5.37C113,246.21,108.14,254.83,107.82,255.4ZM119.28,262a4.85,4.85,0,0,1-4.12,2.12c-3.77,0-6.53-4.2-4.63-7.52s3.64-6.44,5.46-9.66c.31-.54.59-1.09.91-1.62a5.09,5.09,0,0,1,4.6-2.69,4.92,4.92,0,0,1,4.49,2.72,5.36,5.36,0,0,1-.33,5.61c-1.3,2.19-2.52,4.42-3.79,6.62C121,259.11,120.24,260.63,119.28,262Zm15.65-.42c-1.12,1.92-2.19,3.87-3.32,5.79a5.19,5.19,0,0,1-9.23-.44,4.77,4.77,0,0,1,.15-4.52c1.3-2.34,2.61-4.67,4-7A5,5,0,0,1,131,253a5.29,5.29,0,0,1,5,3.91A6,6,0,0,1,134.93,261.62Z"/><path class="cls-1" d="M187.14,234.34a11.41,11.41,0,0,1,2.3-4.71,17.78,17.78,0,0,1,4.86-3.58c.34-.21.52-.06.67.22.27.56.53,1.12.81,1.67s-.05.7-.4.91a29.07,29.07,0,0,0-2.5,1.56A8.18,8.18,0,0,0,190,235c-.38,1.41-.14,1.76-1.54.55-.33-.28-.69-.51-1-.8A2,2,0,0,1,187.14,234.34Z"/><rect class="cls-1" x="57.22" y="196.18" width="43.18" height="13.98" transform="translate(-137.76 178.93) rotate(-62.41)"/><rect class="cls-1" x="53.98" y="193.2" width="49.47" height="19.94" transform="translate(-137.81 178.85) rotate(-62.41)"/><rect class="cls-1" x="175.17" y="196.44" width="43.18" height="13.98" transform="translate(287.6 -64.61) rotate(62.77)"/><rect class="cls-1" x="172.07" y="193.38" width="49.47" height="19.94" transform="translate(287.56 -64.7) rotate(62.77)"/><path class="cls-2" d="M151.54,56.49a32.36,32.36,0,0,0,7.71-20.68c0-19.09-17.42-34.63-38.84-34.63A41.38,41.38,0,0,0,95.8,9,42.16,42.16,0,0,0,75.93,4.14c-21.42,0-38.85,15.54-38.85,34.64a29.45,29.45,0,0,0,.23,3.62c-14.34,5.29-24,17.82-24,32,0,18.7,16.71,34,37.51,34.62,7.45,10.16,20.16,16.35,33.95,16.35A42.74,42.74,0,0,0,114.34,114a42.91,42.91,0,0,0,9,1c21.41,0,38.84-15.53,38.84-34.63A32.81,32.81,0,0,0,151.54,56.49ZM123.38,104a32.37,32.37,0,0,1-9.2-1.35,5.47,5.47,0,0,0-5.68,1.62,29.74,29.74,0,0,1-23.68,10.13c-29.22-1.48-29-22-29-26.48a28.38,28.38,0,0,1,.49-5.76,2,2,0,0,0-3.91-.91,40.54,40.54,0,0,0-.7,16.8C36.58,97.82,24.31,87.3,24.31,74.37c0-10.65,8.47-20,20.61-22.83a5.48,5.48,0,0,0,4-6.91A20.63,20.63,0,0,1,48,38.78C48,25.72,60.55,15.1,75.93,15.1a30.73,30.73,0,0,1,17.29,5.15,5.48,5.48,0,0,0,6.77-.5,30,30,0,0,1,20.43-7.62c15.38,0,27.89,10.63,27.89,23.69,0,6.4-3,12.41-8.46,16.94,0,0-9-1.44-13.86-.93-3.4.36-3,3.86-.77,4.14a39.87,39.87,0,0,1,5.26,1.17,41.37,41.37,0,0,1,9.75,4.31l.11.1c6.95,4.55,10.93,11.39,10.93,18.75C151.27,93.36,138.75,104,123.38,104Z"/><path class="cls-2" d="M30.08,134.71a8.23,8.23,0,1,1,8.22-8.22A8.23,8.23,0,0,1,30.08,134.71Z"/><path class="cls-2" d="M4.53,151.74a3.36,3.36,0,1,1,3.36-3.35A3.36,3.36,0,0,1,4.53,151.74Z"/><path class="cls-3" d="M80.33,20.67c-7.34-.67-22,2.08-25,17.23a3.64,3.64,0,0,0,2.88,4.28,3.33,3.33,0,0,0,.7.07,3.65,3.65,0,0,0,3.58-3C64.92,26.9,79,27.89,79.68,27.94a3.65,3.65,0,0,0,.65-7.27Z"/><path class="cls-2" d="M140.59,114.43c13.11,17.68,39.1,29.73,69,29.73a106.69,106.69,0,0,0,25.31-3c26.85,19.79,45.42,3.91,45.42,3.91-13.57-1.78-19.5-7.61-22-13.12,17.89-10.23,29.35-26,29.35-43.64,0-30.84-35-55.85-78.08-55.85-18.68,0-35.84,4.7-49.28,12.53m-.63,15.5c.65-.5,1.31-1,2-1.48,12.64-9,29.66-14,47.93-14s35.29,5,47.93,14c11.37,8.13,17.63,18.54,17.63,29.3s-6.26,21.17-17.63,29.3c-12.64,9-29.66,14-47.93,14s-35.29-5-47.93-14a51.61,51.61,0,0,1-9.19-8.31"/></g></g></svg>