<svg xmlns="http://www.w3.org/2000/svg" viewBox="0 0 224.13 276"><defs><style>.cls-1,.cls-2,.cls-3{fill:none;stroke:#fff;stroke-miterlimit:10;}.cls-1{stroke-width:0.94px;}.cls-2{stroke-width:2.35px;}.cls-3{stroke-width:1.68px;}</style></defs><title>methodes_production</title><g id="Calque_2" data-name="Calque 2"><g id="Pland_de_travail_4" data-name="Pland de travail 4"><path class="cls-1" d="M141.54,196a10.55,10.55,0,0,1-4.49-1.66c-2.32-1.49-4.59-3.06-6.87-4.62a10.48,10.48,0,0,0-6-2c-3.54,0-7.09,0-10.64,0l-2.91,0a6.53,6.53,0,0,0-4.57,1.76L89.35,203.65c-1.4,1.19-2.84,2.33-4.2,3.57a1.75,1.75,0,0,0,.48,3.07,8.83,8.83,0,0,0,2.83.77,21.77,21.77,0,0,0,8.61-.75,23.83,23.83,0,0,0,3.86-1.73c1.64-.88,3.22-1.86,4.82-2.82a2.44,2.44,0,0,1,2.77.06c4.26,2.58,8.55,5.12,12.83,7.68l10.55,6.35,10.41,6.22,12.22,7.33c2.22,1.34,4.44,2.66,6.65,4a8.17,8.17,0,0,1,3.43,8.05,8.14,8.14,0,0,1-12,5.73c-.25-.14-.52-.26-.9-.44.25,3.51-.93,6.27-3.89,8.05s-6,1.48-9-.3c.13,3.55-1,6.36-4,8.11s-6,1.44-9-.39c0,.59,0,1,0,1.51a7.59,7.59,0,0,1-4.47,6.9,8.07,8.07,0,0,1-8.26-.53c-1-.6-1.91-1.22-2.9-1.76-.5-.28-.76-.48-.3-1a10.12,10.12,0,0,0,.88-1.41c.2-.37.42-.4.78-.18,1.26.77,2.51,1.56,3.81,2.26a4.83,4.83,0,0,0,5.24-.26,5,5,0,0,0,2.31-5,5,5,0,0,0-2.42-3.75c-.85-.53-1.72-1-2.58-1.55a1.52,1.52,0,0,1-.57-2.11,1.56,1.56,0,0,1,2.1-.39c3,1.78,6,3.62,9,5.33a5.15,5.15,0,0,0,7.11-2.77,5.33,5.33,0,0,0-2.54-6.57c-1.51-.84-3-1.81-4.48-2.65a1.65,1.65,0,0,1-.58-2.29c.54-.69,2.52,0,2.85.22l10.12,6.07a5.19,5.19,0,0,0,7.8-5.61,5.52,5.52,0,0,0-2.77-3.51c-2.38-1.41-4.74-2.83-7.11-4.26a1.62,1.62,0,0,1-.78-2.3c.7-1.21,2.18-.25,3,.25l3.66,2.19c3.1,1.86,6.19,3.73,9.3,5.57a5.18,5.18,0,0,0,7.47-6.24c-.56-1.67-1.87-2.54-3.27-3.37-3.36-2-6.71-4-10.07-6l-12.08-7.19-9.18-5.53-15.32-9.15c-1.19-.72-2.39-1.42-3.56-2.17a1.59,1.59,0,0,0-1.84,0c-2,1.16-4,2.33-6.12,3.37A17.92,17.92,0,0,1,92.63,214a42.88,42.88,0,0,1-4.94-.1,7.47,7.47,0,0,1-4.57-1.82,4.7,4.7,0,0,1,.22-7.22c3.36-2.79,6.68-5.62,10-8.43,3.75-3.15,7.48-6.33,11.24-9.46a9.14,9.14,0,0,1,6-2.18c4.52,0,9,0,13.55,0a14.35,14.35,0,0,1,8.36,2.91c2,1.45,4.09,2.9,6.24,4.17a10.78,10.78,0,0,0,7,1.35,1.34,1.34,0,0,1,1.44.56,13.52,13.52,0,0,0,1,1.23c.34.37.21.58-.2.77C147.44,196,142.59,196,141.54,196Z"/><path class="cls-1" d="M102.39,186.28c-1,.79-1.78,1.48-2.62,2.16a.47.47,0,0,1-.37,0,5.22,5.22,0,0,0-4.93,1.08c-2.07,1.51-4.17,3-6.33,4.38a14.73,14.73,0,0,1-9.78,2.19A15.16,15.16,0,0,1,72,193.89l-.36-.26c.37-.75.72-1.5,1.13-2.22.06-.11.44-.15.61-.08,1,.45,2,1,3.09,1.4a11.71,11.71,0,0,0,6.16.31c2.78-.55,4.9-2.27,7.15-3.79,1.52-1,3-2.12,4.58-3.07a7.35,7.35,0,0,1,6.1-.47Z"/><path class="cls-1" d="M61.57,234.87l-1.18,2.06a9,9,0,0,1-.38-1.05,8,8,0,0,0-4-5.4l-1.5-.88a.6.6,0,0,1-.27-.91c.26-.51.5-1,.76-1.55.13-.25.28-.52.64-.3,1.81,1.08,4.09,2.36,5.05,3.78S62,234.19,61.57,234.87Z"/><path class="cls-1" d="M112.6,255.37a7.67,7.67,0,0,0-6.51-4.38c-.76-.06-1.53,0-2.37,0a7.91,7.91,0,0,0-2-8,7.81,7.81,0,0,0-7.94-2.11c-.15-1-.23-1.92-.45-2.83a7.94,7.94,0,0,0-6.75-5.95,7.85,7.85,0,0,0-6.24,1.81c-.36.3-.6.23-.78-.2a4.6,4.6,0,0,0-.4-.8,8.35,8.35,0,0,0-8-4.12,6.91,6.91,0,0,0-5.82,3.47c-1.95,3.35-3.83,6.73-5.76,10.08a7.29,7.29,0,0,0,0,7.71,8.31,8.31,0,0,0,5.82,4.12,9.31,9.31,0,0,0,3.57-.09c.5-.09.62.09.66.56a9.26,9.26,0,0,0,3.25,5.83c2,1.44,6.46,1.65,8.21.79.4-.19.51-.07.62.31a12.66,12.66,0,0,0,.72,2,7.69,7.69,0,0,0,5,4.07,8.2,8.2,0,0,0,5.72-.47c.36-.16.47-.09.56.29a7.59,7.59,0,0,0,.54,1.65,8.11,8.11,0,0,0,14.18,1c1.18-2,2.29-4.11,3.43-6.16a14.09,14.09,0,0,0,1.13-2A8,8,0,0,0,112.6,255.37Zm-41.72-6.09a4.64,4.64,0,0,1-5.41,1.91,5.56,5.56,0,0,1-3.74-3.42,9.73,9.73,0,0,1-.35-1.62,5.53,5.53,0,0,1,1.06-3c1.24-2.2,2.5-4.39,3.74-6.59.55-1,1.07-2,1.65-2.89A4.7,4.7,0,0,1,73,231.78,5.41,5.41,0,0,1,77.32,237a5.26,5.26,0,0,1-.69,2.17C74.75,242.58,72.85,246,70.88,249.28Zm11.42,6.94a4.83,4.83,0,0,1-3.53,2.83,5.47,5.47,0,0,1-4.87-1.29c-1.82-1.53-1.66-4.34-.63-6.67s4.28-7.55,6.44-11.31a13,13,0,0,1,2.37-3.56A5.17,5.17,0,0,1,90.19,238a5.49,5.49,0,0,1-.54,5.38C87.49,247,82.62,255.66,82.3,256.22Zm11.46,6.65A4.81,4.81,0,0,1,89.64,265c-3.77.06-6.53-4.2-4.63-7.52s3.64-6.43,5.46-9.65c.31-.54.59-1.09.91-1.62a5.09,5.09,0,0,1,4.6-2.7,4.94,4.94,0,0,1,4.49,2.73,5.36,5.36,0,0,1-.33,5.61c-1.29,2.19-2.52,4.41-3.79,6.62C95.51,259.93,94.72,261.46,93.76,262.87Zm15.65-.43c-1.12,1.92-2.19,3.88-3.32,5.8a5,5,0,0,1-4.94,2.59,4.9,4.9,0,0,1-4.29-3,4.77,4.77,0,0,1,.15-4.52c1.3-2.34,2.61-4.67,4-7a5,5,0,0,1,4.45-2.47,5.31,5.31,0,0,1,5,3.92A6.07,6.07,0,0,1,109.41,262.44Z"/><path class="cls-1" d="M161.62,235.17a11.35,11.35,0,0,1,2.3-4.71c1.32-1.62,3.14-2.53,4.87-3.59.33-.2.52-.05.66.23.28.55.54,1.12.82,1.67s-.06.69-.41.91a27.35,27.35,0,0,0-2.49,1.55,8.18,8.18,0,0,0-2.92,4.62c-.38,1.42-.14,1.76-1.54.56-.32-.28-.68-.52-1-.8A2,2,0,0,1,161.62,235.17Z"/><rect class="cls-1" x="31.7" y="197.01" width="43.18" height="13.98" transform="translate(-152.19 156.76) rotate(-62.41)"/><rect class="cls-1" x="28.46" y="194.03" width="49.47" height="19.94" transform="translate(-152.25 156.67) rotate(-62.41)"/><rect class="cls-1" x="149.65" y="197.26" width="43.18" height="13.98" transform="translate(274.49 -41.47) rotate(62.77)"/><rect class="cls-1" x="146.56" y="194.21" width="49.47" height="19.94" transform="translate(274.45 -41.56) rotate(62.77)"/><path class="cls-2" d="M139.52,50,142.85,42a2.11,2.11,0,0,1,2.76-1.14l8.77,3.61a2.14,2.14,0,0,1,1.14,1.15,2,2,0,0,1,0,1.61l-3.33,8a3.57,3.57,0,0,0,1.33,4.3A48.67,48.67,0,0,1,167.16,73.2a3.54,3.54,0,0,0,4.29,1.29l8.06-3.33a2.12,2.12,0,0,1,2.75,1.14l3.65,8.77a2.12,2.12,0,0,1-1.14,2.76l-8.06,3.33a3.59,3.59,0,0,0-2.11,4,49.16,49.16,0,0,1,0,19.26,3.53,3.53,0,0,0,2.11,4l8.06,3.33a2.14,2.14,0,0,1,1.14,1.15,2,2,0,0,1,0,1.61l-3.61,8.77a2.11,2.11,0,0,1-2.76,1.15l-8-3.33a3.55,3.55,0,0,0-4.3,1.32A48.54,48.54,0,0,1,153.55,142a3.54,3.54,0,0,0-1.29,4.29l3.33,8.06a2,2,0,0,1,0,1.61,2.11,2.11,0,0,1-1.14,1.15l-8.77,3.65a2.13,2.13,0,0,1-2.76-1.15l-3.33-8.05a3.59,3.59,0,0,0-4-2.12,49,49,0,0,1-19.26,0,3.49,3.49,0,0,0-4,2.12l-3.33,8.05a2.16,2.16,0,0,1-1.15,1.15,2.14,2.14,0,0,1-1.61,0l-8.77-3.62a2.14,2.14,0,0,1-1.14-2.76l3.32-8a3.56,3.56,0,0,0-1.32-4.3A48.51,48.51,0,0,1,84.75,128.4a3.52,3.52,0,0,0-4.29-1.29l-8.06,3.33a2.14,2.14,0,0,1-1.61,0,2.11,2.11,0,0,1-1.14-1.15L66,120.52a2.12,2.12,0,0,1,1.15-2.75l8-3.33"/><path class="cls-2" d="M97.1,100.58a28.85,28.85,0,0,0,28.64,29H126A28.82,28.82,0,0,0,126.13,72h0"/><path class="cls-2" d="M62.74,11.56A3.53,3.53,0,0,0,65.6,8.08V1.75a.56.56,0,0,1,.57-.57h6.91a.56.56,0,0,1,.57.57V8.08a3.57,3.57,0,0,0,2.87,3.48,34.55,34.55,0,0,1,12.6,5.22,3.52,3.52,0,0,0,4.47-.43l4.48-4.47a.55.55,0,0,1,.39-.18.58.58,0,0,1,.4.18l4.86,4.87a.51.51,0,0,1,0,.78L99.25,22a3.57,3.57,0,0,0-.43,4.47,34.57,34.57,0,0,1,5.23,12.6A3.52,3.52,0,0,0,107.52,42h6.33a.57.57,0,0,1,.58.57v6.91a.57.57,0,0,1-.58.57h-6.33a3.56,3.56,0,0,0-3.47,2.87,34.57,34.57,0,0,1-5.23,12.6,3.52,3.52,0,0,0,.43,4.47l4.47,4.48a.51.51,0,0,1,0,.78l-4.86,4.87a.58.58,0,0,1-.4.18.55.55,0,0,1-.39-.18L93.59,75.6a3.57,3.57,0,0,0-4.47-.43,34.55,34.55,0,0,1-12.6,5.22,3.54,3.54,0,0,0-2.87,3.48V90.2a.56.56,0,0,1-.57.57H66.17a.56.56,0,0,1-.57-.57V83.87a3.57,3.57,0,0,0-2.86-3.48,34.55,34.55,0,0,1-12.6-5.22,3.53,3.53,0,0,0-4.48.43l-4.47,4.54a.54.54,0,0,1-.4.18.52.52,0,0,1-.39-.18l-4.87-4.87a.56.56,0,0,1,0-.78L40,70a3.57,3.57,0,0,0,.43-4.47,34.4,34.4,0,0,1-5.23-12.6,3.53,3.53,0,0,0-3.47-2.87H25.4a.56.56,0,0,1-.57-.57V42.59A.56.56,0,0,1,25.4,42h6.34a3.56,3.56,0,0,0,3.47-2.86,34.4,34.4,0,0,1,5.23-12.6A3.54,3.54,0,0,0,40,22.08l-4.48-4.47a.57.57,0,0,1,0-.79L40.4,12a.56.56,0,0,1,.39-.18.58.58,0,0,1,.4.18l4.47,4.48a3.52,3.52,0,0,0,2.51,1,3.59,3.59,0,0,0,2-.61A35.94,35.94,0,0,1,62.74,11.56Z"/><path class="cls-2" d="M69.61,24.94A21.05,21.05,0,1,0,90.62,46,21.09,21.09,0,0,0,69.61,24.94Z"/><path class="cls-3" d="M218.35,35l-20-5c-1.65,6-3.12,11.47-5.45,20l9.56-7.48c29.16,62.08,16.67,87.54,2.11,118.4,24.38-41.85,24.45-70.6,3.37-121.29Z"/><path class="cls-3" d="M9.52,23.88l-7.84-.42-.6-1.67,15.35-4.85,8.4,12.79L14.54,25.78c-12.32,22.79-5.26,44.1,9.26,65C1.93,70.44-.17,48.09,9.52,23.88Z"/></g></g></svg>