<svg xmlns="http://www.w3.org/2000/svg" xmlns:xlink="http://www.w3.org/1999/xlink" viewBox="0 0 120 120"><defs><style>.cls-1{fill:#90d1f3;}.cls-2{clip-path:url(#clip-path);}.cls-3,.cls-4{fill:none;}.cls-3,.cls-4,.cls-5,.cls-6{stroke:#0d529e;stroke-miterlimit:10;}.cls-3{stroke-width:3px;}.cls-4,.cls-5{stroke-width:2px;}.cls-5,.cls-6{fill:#0d529e;}</style><clipPath id="clip-path"><circle class="cls-1" cx="60" cy="60" r="60"/></clipPath></defs><title>pack_classic_papierEntete</title><g id="Calque_2" data-name="Calque 2"><g id="Pland_de_travail_4" data-name="Pland de travail 4"><circle class="cls-1" cx="60" cy="60" r="60"/><g class="cls-2"><polygon class="cls-3" points="23.44 93.73 23.44 20.69 72.07 20.69 72.07 34.25 28.86 34.25 28.86 93.73 23.44 93.73"/><path class="cls-4" d="M71,20.69c0,4.5-2.44,8.14-6.93,8.14H31.54c-4.48,0-6.91-3.66-6.91-8.14Z"/><rect class="cls-5" x="68.01" y="48.15" width="3.9" height="5.25"/><line class="cls-3" x1="77.49" y1="73.73" x2="77.49" y2="77.46"/><polyline class="cls-3" points="77.5 45.27 77.5 34.25 28.86 34.25 28.86 100.51 77.5 100.51 77.5 93.73"/><line class="cls-3" x1="77.49" y1="82.88" x2="77.49" y2="88.31"/><rect class="cls-3" x="64.45" y="45.26" width="38.13" height="28.47"/><polygon class="cls-4" points="101.9 93.73 101.9 88.31 55.8 88.31 50.38 91.02 55.8 93.73 101.9 93.73"/><path class="cls-4" d="M99.22,83.05h.12A2.8,2.8,0,0,0,102,79.36a2.76,2.76,0,0,0-2.64-1.9H56l-5.42,2.72L56,83.05Z"/><path class="cls-6" d="M39.39,43.75v-.83a3.12,3.12,0,0,0,.25-4.43,3.18,3.18,0,0,0-4.46-.24,3.13,3.13,0,0,0-.25,4.43l.25.24v.83h-1.6v1h1.83v.84h3.67v-.84h1.83v-1Z"/><path class="cls-6" d="M94.92,33.09V31.55a5.89,5.89,0,0,0,.47-8.34,6,6,0,0,0-8.4-.46,5.87,5.87,0,0,0-.46,8.33c.15.16.31.33.46.47v1.54H84V35h3.45v1.58h6.9V35h3.44V33.09Z"/></g></g></g></svg>