<svg xmlns="http://www.w3.org/2000/svg" xmlns:xlink="http://www.w3.org/1999/xlink" viewBox="0 0 120 120"><defs><style>.cls-1{fill:#99d1ff;}.cls-2{clip-path:url(#clip-path);}.cls-3{fill:none;}.cls-3,.cls-4,.cls-5,.cls-6{stroke:#0d529e;stroke-miterlimit:10;}.cls-3,.cls-4{stroke-width:3px;}.cls-4,.cls-5{fill:#0d529e;}.cls-6{fill:#591e00;stroke-width:4px;}</style><clipPath id="clip-path"><circle class="cls-1" cx="60" cy="60" r="60"/></clipPath></defs><title>pack_print_carteCorrespondance</title><g id="Calque_2" data-name="Calque 2"><g id="Pland_de_travail_4" data-name="Pland de travail 4"><circle class="cls-1" cx="60" cy="60" r="60"/><g class="cls-2"><polygon class="cls-3" points="26.87 47.27 26.87 67.11 26.87 72.73 35.48 72.73 35.48 67.11 35.48 47.27 26.87 47.27"/><path class="cls-3" d="M47.94,100.8a4.26,4.26,0,0,1-4.22-4.3V92.19H91.63V96.5a4.27,4.27,0,0,0,4.23,4.3Z"/><path class="cls-3" d="M19.76,37.28A4.23,4.23,0,0,1,24,33.05h2.88V47.27H24A4.23,4.23,0,0,1,19.76,43Z"/><path class="cls-3" d="M95.86,100.8H96a4.22,4.22,0,0,0,4.23-4.22V41.66H52.33V92.19"/><polyline class="cls-3" points="84.52 41.66 84.52 19.2 77.41 19.2 77.41 22 45.22 29.12 45.22 50.93 52.33 53.71"/><polygon class="cls-4" points="26.87 33.11 26.87 47.22 45.22 51.3 45.22 29.03 26.87 33.11"/><path class="cls-5" d="M81.51,59.73v-2a7.51,7.51,0,0,0,.6-10.67,7.66,7.66,0,0,0-10.75-.59,7.53,7.53,0,0,0-.6,10.67c.2.2.4.41.6.59v2H67.5v2.44h4.42v2h8.84v-2h4.41V59.73Z"/><line class="cls-6" x1="59.85" y1="78.6" x2="91.65" y2="78.6"/><line class="cls-6" x1="59.85" y1="84.6" x2="91.65" y2="84.6"/></g></g></g></svg>