<svg xmlns="http://www.w3.org/2000/svg" xmlns:xlink="http://www.w3.org/1999/xlink" viewBox="0 0 120 120"><defs><style>.cls-1{fill:#90d1f3;}.cls-2{clip-path:url(#clip-path);}.cls-3,.cls-4,.cls-7{fill:none;}.cls-10,.cls-3,.cls-4,.cls-6,.cls-7,.cls-8,.cls-9{stroke:#0d529e;}.cls-10,.cls-3,.cls-6,.cls-7,.cls-8,.cls-9{stroke-miterlimit:10;}.cls-3,.cls-8{stroke-width:3px;}.cls-4{stroke-linejoin:round;}.cls-5,.cls-6{fill:#0d529e;}.cls-10,.cls-8{fill:#fff;}.cls-9{fill:#591e00;stroke-width:4px;}.cls-10{stroke-width:2px;}</style><clipPath id="clip-path"><circle class="cls-1" cx="60" cy="60" r="60"/></clipPath></defs><title>pack_web_OnePage</title><g id="Calque_2" data-name="Calque 2"><g id="Pland_de_travail_4" data-name="Pland de travail 4"><circle class="cls-1" cx="60" cy="60" r="60"/><g class="cls-2"><path class="cls-3" d="M21,84.64V31.42A4.32,4.32,0,0,1,25.3,27.1H94.49a4.33,4.33,0,0,1,4.33,4.33V84.64h-26L70,87.6H49.8l-2.88-3Z"/><rect class="cls-4" x="26.9" y="32.82" width="66.21" height="46.11"/><path class="cls-5" d="M102,84.44v4.34a4.35,4.35,0,0,1-4.35,4.34H22.35A4.35,4.35,0,0,1,18,88.78h0V84.44H47l2.9,2.89H70.14L73,84.44Z"/><rect class="cls-5" x="31.82" y="48.19" width="22.07" height="20.69"/><rect class="cls-5" x="36.69" y="74.13" width="48.72" height="4.99"/><path class="cls-6" d="M33.45,39.17v-.62a2.37,2.37,0,0,0,.19-3.35A2.41,2.41,0,0,0,30.27,35a2.35,2.35,0,0,0-.19,3.34c.06.06.12.13.19.19v.62H29.06v.76h1.38v.64h2.77v-.64h1.38v-.76Z"/><line class="cls-7" x1="26.9" y1="42.64" x2="93.1" y2="42.64"/><line class="cls-8" x1="49.2" y1="36.82" x2="55.2" y2="36.82"/><line class="cls-8" x1="58.2" y1="36.82" x2="64.2" y2="36.82"/><line class="cls-8" x1="67.2" y1="36.82" x2="73.2" y2="36.82"/><line class="cls-8" x1="76.2" y1="36.82" x2="82.2" y2="36.82"/><line class="cls-8" x1="85.2" y1="36.82" x2="91.2" y2="36.82"/><line class="cls-9" x1="58.2" y1="48.22" x2="90.6" y2="48.22"/><line class="cls-9" x1="58.2" y1="52.42" x2="79.2" y2="52.42"/><line class="cls-10" x1="58.2" y1="60.22" x2="70.2" y2="60.22"/><line class="cls-10" x1="78.6" y1="60.22" x2="90.6" y2="60.22"/><line class="cls-10" x1="58.2" y1="62.62" x2="70.2" y2="62.62"/><line class="cls-10" x1="78.6" y1="62.62" x2="90.6" y2="62.62"/><line class="cls-10" x1="58.2" y1="65.02" x2="70.2" y2="65.02"/><line class="cls-10" x1="78.6" y1="65.02" x2="90.6" y2="65.02"/><line class="cls-10" x1="58.2" y1="67.42" x2="70.2" y2="67.42"/><line class="cls-10" x1="78.6" y1="67.42" x2="90.6" y2="67.42"/></g></g></g></svg>