<svg xmlns="http://www.w3.org/2000/svg" xmlns:xlink="http://www.w3.org/1999/xlink" viewBox="0 0 120 120"><defs><style>.cls-1{fill:#90d1f3;}.cls-2{clip-path:url(#clip-path);}.cls-3,.cls-4,.cls-5{fill:none;}.cls-3{stroke:#269bd8;stroke-width:0;}.cls-3,.cls-4{stroke-linecap:round;stroke-linejoin:round;}.cls-4,.cls-5,.cls-6,.cls-7,.cls-8,.cls-9{stroke:#0d529e;}.cls-4,.cls-5,.cls-7{stroke-width:3px;}.cls-5,.cls-6,.cls-7,.cls-8,.cls-9{stroke-miterlimit:10;}.cls-6,.cls-8{fill:#591e00;}.cls-6{stroke-width:2px;}.cls-7,.cls-9{fill:#0d529e;}.cls-8{stroke-width:4px;}</style><clipPath id="clip-path"><circle class="cls-1" cx="60" cy="60" r="60"/></clipPath></defs><title>pack_print_flyers</title><g id="Calque_2" data-name="Calque 2"><g id="Pland_de_travail_4" data-name="Pland de travail 4"><circle class="cls-1" cx="60" cy="60" r="60"/><g class="cls-2"><polyline class="cls-3" points="60.46 98.66 56.4 94.61 56.32 94.61"/><path class="cls-4" d="M60.46,32.5l4.27-4.2h30.4V94.61H64.7l-4.2,4"/><polygon class="cls-4" points="60.46 32.5 56.25 28.3 25.98 28.3 25.98 94.61 56.32 94.61 60.46 98.66 60.46 98.75 60.46 32.5"/><rect class="cls-5" x="31.19" y="35.12" width="10.99" height="10.99"/><line class="cls-6" x1="43.2" y1="65.27" x2="55.8" y2="65.27"/><line class="cls-6" x1="43.2" y1="68.27" x2="55.8" y2="68.27"/><line class="cls-6" x1="43.2" y1="71.27" x2="55.8" y2="71.27"/><rect class="cls-7" x="31.19" y="64.1" width="8.34" height="8.34"/><line class="cls-6" x1="43.79" y1="84.47" x2="31.19" y2="84.47"/><line class="cls-6" x1="43.79" y1="81.47" x2="31.19" y2="81.47"/><line class="cls-6" x1="43.79" y1="78.47" x2="31.19" y2="78.47"/><rect class="cls-7" x="47.46" y="77.3" width="8.34" height="8.34"/><line class="cls-6" x1="77.4" y1="65.27" x2="90" y2="65.27"/><line class="cls-6" x1="77.4" y1="68.27" x2="90" y2="68.27"/><line class="cls-6" x1="77.4" y1="71.27" x2="90" y2="71.27"/><rect class="cls-7" x="65.99" y="64.1" width="8.34" height="8.34"/><line class="cls-6" x1="78.59" y1="84.47" x2="65.99" y2="84.47"/><line class="cls-6" x1="78.59" y1="81.47" x2="65.99" y2="81.47"/><line class="cls-6" x1="78.59" y1="78.47" x2="65.99" y2="78.47"/><rect class="cls-7" x="81.66" y="77.3" width="8.34" height="8.34"/><rect class="cls-5" x="79.01" y="35.12" width="10.99" height="10.99"/><line class="cls-8" x1="65.99" y1="55.3" x2="77.99" y2="55.3"/><line class="cls-8" x1="65.99" y1="51.1" x2="90.59" y2="51.1"/><line class="cls-8" x1="31.2" y1="55.3" x2="51" y2="55.3"/><line class="cls-8" x1="31.19" y1="51.1" x2="55.2" y2="51.1"/><path class="cls-9" d="M67.15,38.78V36.15A10,10,0,0,0,67.94,22a10.15,10.15,0,0,0-14.25-.79,10,10,0,0,0-.79,14.15c.26.27.52.55.79.79v2.63H48.57V42h5.86V44.7H66.16V42H72V38.78Z"/></g></g></g></svg>