<svg xmlns="http://www.w3.org/2000/svg" xmlns:xlink="http://www.w3.org/1999/xlink" viewBox="0 0 120 120"><defs><style>.cls-1{fill:#90d1f3;}.cls-2{clip-path:url(#clip-path);}.cls-3,.cls-4,.cls-5{fill:none;stroke:#0d529e;stroke-miterlimit:10;}.cls-3{stroke-width:3px;}.cls-4,.cls-5{stroke-width:8px;}.cls-5{stroke-linecap:round;}</style><clipPath id="clip-path"><circle class="cls-1" cx="60" cy="60" r="60"/></clipPath></defs><title>pack_classic_logo</title><g id="Calque_2" data-name="Calque 2"><g id="Pland_de_travail_4" data-name="Pland de travail 4"><circle class="cls-1" cx="60" cy="60" r="60"/><g class="cls-2"><rect class="cls-3" x="17.89" y="75.82" width="84.72" height="16.4"/><path class="cls-3" d="M78.87,75.82V67a29.52,29.52,0,0,0,2.19-40.75A27.28,27.28,0,0,0,41.63,24a29.54,29.54,0,0,0-2.21,40.75A29.14,29.14,0,0,0,41.6,67v8.81"/><polyline class="cls-3" points="45.85 92.22 45.85 100.8 74.65 100.8 74.65 92.22"/><line class="cls-4" x1="60.55" y1="60.9" x2="60.55" y2="75.82"/><polyline class="cls-5" points="52.45 52.8 60.55 60.6 68.05 52.8"/></g></g></g></svg>