<svg xmlns="http://www.w3.org/2000/svg" xmlns:xlink="http://www.w3.org/1999/xlink" viewBox="0 0 121.24 120"><defs><style>.cls-1{fill:#90d1f3;}.cls-2{clip-path:url(#clip-path);}.cls-3,.cls-4,.cls-5,.cls-7{fill:none;}.cls-3,.cls-4,.cls-5,.cls-6{stroke:#0d529e;}.cls-3{stroke-linecap:round;}.cls-3,.cls-4{stroke-linejoin:round;}.cls-3,.cls-4,.cls-5{stroke-width:3px;}.cls-5,.cls-6{stroke-miterlimit:10;}.cls-6{fill:#0d529e;}</style><clipPath id="clip-path"><circle class="cls-1" cx="61.24" cy="60" r="60"/></clipPath></defs><title>pack_classic_carteDeVisite</title><g id="Calque_2" data-name="Calque 2"><g id="Pland_de_travail_4" data-name="Pland de travail 4"><circle class="cls-1" cx="61.24" cy="60" r="60"/><g class="cls-2"><g id="Calque_2-2" data-name="Calque 2"><polygon class="cls-3" points="98.17 83.66 68.35 92.14 30.08 92.14 59.9 83.66 98.17 83.66"/><rect class="cls-4" x="29.91" y="92.14" width="38.96" height="10.61"/><polygon class="cls-4" points="68.85 102.7 98.76 94.25 98.76 83.6 68.87 92.03 68.85 102.7"/></g><g id="Calque_1-2" data-name="Calque 1"><g id="Capa_1" data-name="Capa 1"><rect class="cls-5" x="40.91" y="28.18" width="29.31" height="3.47"/><path class="cls-6" d="M93.75,40.91V39a7.14,7.14,0,0,0,.57-10.13,7.27,7.27,0,0,0-10.21-.56,7.13,7.13,0,0,0-.57,10.13c.19.19.38.4.57.56v1.89H80.44v2.31h4.2v1.93H93V43.22h4.18V40.91Z"/><polyline class="cls-7" points="34.74 44.13 34.74 64.44 51.62 64.44"/><polyline class="cls-5" points="34.74 44.13 34.74 20.85 102.04 20.85 102.04 64.44 51.62 64.44"/><path class="cls-5" d="M.34,78.15c2.93,0,11.07,2.09,13.7,3.39a18.75,18.75,0,0,0,8.46,2H40a3.83,3.83,0,0,0,4-3.9,4,4,0,0,0-4-4h3.73a4,4,0,0,0,0-7.91h3.93a4.06,4.06,0,0,0,4-3.27"/><path class="cls-5" d="M34.74,44.13a8.78,8.78,0,0,0-1.91-.33H19.9A7.85,7.85,0,0,0,13.57,47l-1.2,1.59c-1.5,2-9.86,4.37-12.37,4.37"/><path class="cls-5" d="M34.74,44.13a8.63,8.63,0,0,1,5.17,4l1.78,3.54h9.1a4,4,0,1,1,0,7.9H47.65a4.07,4.07,0,0,1,4.05,4,4,4,0,0,1-.08.78"/></g></g></g></g></g></svg>